G04 PROTEUS RS274X GERBER FILE*
%FSLAX45Y45*%
%MOMM*%
G01*
%ADD23C,0.250000*%
%ADD24C,0.200000*%
%ADD25C,0.600000*%
%ADD22C,0.203200*%
%ADD26C,0.152400*%
D23*
X+2094740Y+1720680D02*
X+2094697Y+1721719D01*
X+2094345Y+1723798D01*
X+2093608Y+1725877D01*
X+2092404Y+1727956D01*
X+2090563Y+1730006D01*
X+2088484Y+1731509D01*
X+2086405Y+1732466D01*
X+2084326Y+1733005D01*
X+2082247Y+1733180D01*
X+2082240Y+1733180D01*
X+2069740Y+1720680D02*
X+2069783Y+1721719D01*
X+2070135Y+1723798D01*
X+2070872Y+1725877D01*
X+2072076Y+1727956D01*
X+2073917Y+1730006D01*
X+2075996Y+1731509D01*
X+2078075Y+1732466D01*
X+2080154Y+1733005D01*
X+2082233Y+1733180D01*
X+2082240Y+1733180D01*
X+2069740Y+1720680D02*
X+2069783Y+1719641D01*
X+2070135Y+1717562D01*
X+2070872Y+1715483D01*
X+2072076Y+1713404D01*
X+2073917Y+1711354D01*
X+2075996Y+1709851D01*
X+2078075Y+1708894D01*
X+2080154Y+1708355D01*
X+2082233Y+1708180D01*
X+2082240Y+1708180D01*
X+2094740Y+1720680D02*
X+2094697Y+1719641D01*
X+2094345Y+1717562D01*
X+2093608Y+1715483D01*
X+2092404Y+1713404D01*
X+2090563Y+1711354D01*
X+2088484Y+1709851D01*
X+2086405Y+1708894D01*
X+2084326Y+1708355D01*
X+2082247Y+1708180D01*
X+2082240Y+1708180D01*
D24*
X+2262240Y+980680D02*
X+2712240Y+980680D01*
X+2712240Y+1720680D01*
X+2262240Y+1720680D01*
X+2262240Y+980680D01*
D25*
X+2392240Y+1620680D02*
X+2392137Y+1623169D01*
X+2391295Y+1628149D01*
X+2389535Y+1633129D01*
X+2386658Y+1638109D01*
X+2382257Y+1643025D01*
X+2377277Y+1646639D01*
X+2372297Y+1648944D01*
X+2367317Y+1650247D01*
X+2362337Y+1650680D01*
X+2362240Y+1650680D01*
X+2332240Y+1620680D02*
X+2332343Y+1623169D01*
X+2333185Y+1628149D01*
X+2334945Y+1633129D01*
X+2337822Y+1638109D01*
X+2342223Y+1643025D01*
X+2347203Y+1646639D01*
X+2352183Y+1648944D01*
X+2357163Y+1650247D01*
X+2362143Y+1650680D01*
X+2362240Y+1650680D01*
X+2332240Y+1620680D02*
X+2332343Y+1618191D01*
X+2333185Y+1613211D01*
X+2334945Y+1608231D01*
X+2337822Y+1603251D01*
X+2342223Y+1598335D01*
X+2347203Y+1594721D01*
X+2352183Y+1592416D01*
X+2357163Y+1591113D01*
X+2362143Y+1590680D01*
X+2362240Y+1590680D01*
X+2392240Y+1620680D02*
X+2392137Y+1618191D01*
X+2391295Y+1613211D01*
X+2389535Y+1608231D01*
X+2386658Y+1603251D01*
X+2382257Y+1598335D01*
X+2377277Y+1594721D01*
X+2372297Y+1592416D01*
X+2367317Y+1591113D01*
X+2362337Y+1590680D01*
X+2362240Y+1590680D01*
D22*
X+2360240Y+1867600D02*
X+2360240Y+1791400D01*
X+2376115Y+1776160D01*
X+2439615Y+1776160D01*
X+2455490Y+1791400D01*
X+2455490Y+1867600D01*
X+2518990Y+1837120D02*
X+2550740Y+1867600D01*
X+2550740Y+1776160D01*
X+4213000Y+974500D02*
X+4848000Y+974500D01*
X+4848000Y+1609500D01*
X+4213000Y+1609500D01*
X+4213000Y+974500D01*
X+4707565Y+1294540D02*
X+4706969Y+1309161D01*
X+4702126Y+1338405D01*
X+4692012Y+1367649D01*
X+4675547Y+1396893D01*
X+4650363Y+1425976D01*
X+4621119Y+1448096D01*
X+4591875Y+1462388D01*
X+4562631Y+1470767D01*
X+4533387Y+1474063D01*
X+4527960Y+1474145D01*
X+4348355Y+1294540D02*
X+4348951Y+1309161D01*
X+4353794Y+1338405D01*
X+4363908Y+1367649D01*
X+4380373Y+1396893D01*
X+4405557Y+1425976D01*
X+4434801Y+1448096D01*
X+4464045Y+1462388D01*
X+4493289Y+1470767D01*
X+4522533Y+1474063D01*
X+4527960Y+1474145D01*
X+4348355Y+1294540D02*
X+4348951Y+1279919D01*
X+4353794Y+1250675D01*
X+4363908Y+1221431D01*
X+4380373Y+1192187D01*
X+4405557Y+1163104D01*
X+4434801Y+1140984D01*
X+4464045Y+1126692D01*
X+4493289Y+1118313D01*
X+4522533Y+1115017D01*
X+4527960Y+1114935D01*
X+4707565Y+1294540D02*
X+4706969Y+1279919D01*
X+4702126Y+1250675D01*
X+4692012Y+1221431D01*
X+4675547Y+1192187D01*
X+4650363Y+1163104D01*
X+4621119Y+1140984D01*
X+4591875Y+1126692D01*
X+4562631Y+1118313D01*
X+4533387Y+1115017D01*
X+4527960Y+1114935D01*
X+4350160Y+522860D02*
X+4350160Y+614300D01*
X+4429535Y+614300D01*
X+4445410Y+599060D01*
X+4445410Y+583820D01*
X+4429535Y+568580D01*
X+4350160Y+568580D01*
X+4429535Y+568580D02*
X+4445410Y+553340D01*
X+4445410Y+522860D01*
X+4477160Y+538100D02*
X+4493035Y+522860D01*
X+4556535Y+522860D01*
X+4572410Y+538100D01*
X+4572410Y+553340D01*
X+4556535Y+568580D01*
X+4493035Y+568580D01*
X+4477160Y+583820D01*
X+4477160Y+599060D01*
X+4493035Y+614300D01*
X+4556535Y+614300D01*
X+4572410Y+599060D01*
X+4604160Y+614300D02*
X+4699410Y+614300D01*
X+4651785Y+614300D02*
X+4651785Y+522860D01*
X+1729960Y+692880D02*
X+1798540Y+692880D01*
X+1729960Y+570960D02*
X+1801080Y+570960D01*
X+1731230Y+769080D02*
X+1715355Y+753840D01*
X+1667730Y+753840D01*
X+1635980Y+784320D01*
X+1635980Y+814800D01*
X+1667730Y+845280D01*
X+1715355Y+845280D01*
X+1731230Y+830040D01*
X+1794730Y+814800D02*
X+1826480Y+845280D01*
X+1826480Y+753840D01*
D23*
X+1217240Y+1937860D02*
X+1217197Y+1938899D01*
X+1216845Y+1940978D01*
X+1216108Y+1943057D01*
X+1214904Y+1945136D01*
X+1213063Y+1947186D01*
X+1210984Y+1948689D01*
X+1208905Y+1949646D01*
X+1206826Y+1950185D01*
X+1204747Y+1950360D01*
X+1204740Y+1950360D01*
X+1192240Y+1937860D02*
X+1192283Y+1938899D01*
X+1192635Y+1940978D01*
X+1193372Y+1943057D01*
X+1194576Y+1945136D01*
X+1196417Y+1947186D01*
X+1198496Y+1948689D01*
X+1200575Y+1949646D01*
X+1202654Y+1950185D01*
X+1204733Y+1950360D01*
X+1204740Y+1950360D01*
X+1192240Y+1937860D02*
X+1192283Y+1936821D01*
X+1192635Y+1934742D01*
X+1193372Y+1932663D01*
X+1194576Y+1930584D01*
X+1196417Y+1928534D01*
X+1198496Y+1927031D01*
X+1200575Y+1926074D01*
X+1202654Y+1925535D01*
X+1204733Y+1925360D01*
X+1204740Y+1925360D01*
X+1217240Y+1937860D02*
X+1217197Y+1936821D01*
X+1216845Y+1934742D01*
X+1216108Y+1932663D01*
X+1214904Y+1930584D01*
X+1213063Y+1928534D01*
X+1210984Y+1927031D01*
X+1208905Y+1926074D01*
X+1206826Y+1925535D01*
X+1204747Y+1925360D01*
X+1204740Y+1925360D01*
D24*
X+1014740Y+1877860D02*
X+1014740Y+1997860D01*
D22*
X+771790Y+1706060D02*
X+680350Y+1706060D01*
X+680350Y+1785435D01*
X+695590Y+1801310D01*
X+710830Y+1801310D01*
X+726070Y+1785435D01*
X+726070Y+1706060D01*
X+680350Y+1833060D02*
X+771790Y+1833060D01*
X+726070Y+1880685D01*
X+771790Y+1928310D01*
X+680350Y+1928310D01*
X+771790Y+1960060D02*
X+680350Y+1960060D01*
X+680350Y+2039435D01*
X+695590Y+2055310D01*
X+710830Y+2055310D01*
X+726070Y+2039435D01*
X+726070Y+1960060D01*
X+726070Y+2039435D02*
X+741310Y+2055310D01*
X+771790Y+2055310D01*
X+970120Y+1782920D02*
X+1015840Y+1782920D01*
X+970120Y+1701640D02*
X+1015840Y+1701640D01*
D26*
X+603500Y+945540D02*
X+730500Y+1009040D01*
X+603500Y+1072540D02*
X+730500Y+1009040D01*
X+603500Y+619430D02*
X+603500Y+1998650D01*
X-811280Y+1998650D01*
X-811280Y+619430D01*
X+603500Y+619430D01*
D22*
X-879860Y+1118540D02*
X-864620Y+1118540D01*
X-849380Y+1134415D01*
X-849380Y+1197915D01*
X-864620Y+1213790D01*
X-940820Y+1213790D01*
X-910340Y+1277290D02*
X-940820Y+1309040D01*
X-849380Y+1309040D01*
X-925580Y+1388415D02*
X-940820Y+1404290D01*
X-940820Y+1451915D01*
X-925580Y+1467790D01*
X-910340Y+1467790D01*
X-895100Y+1451915D01*
X-895100Y+1404290D01*
X-879860Y+1388415D01*
X-849380Y+1388415D01*
X-849380Y+1467790D01*
D23*
X+1208360Y+783440D02*
X+1208317Y+784479D01*
X+1207965Y+786558D01*
X+1207228Y+788637D01*
X+1206024Y+790716D01*
X+1204183Y+792766D01*
X+1202104Y+794269D01*
X+1200025Y+795226D01*
X+1197946Y+795765D01*
X+1195867Y+795940D01*
X+1195860Y+795940D01*
X+1183360Y+783440D02*
X+1183403Y+784479D01*
X+1183755Y+786558D01*
X+1184492Y+788637D01*
X+1185696Y+790716D01*
X+1187537Y+792766D01*
X+1189616Y+794269D01*
X+1191695Y+795226D01*
X+1193774Y+795765D01*
X+1195853Y+795940D01*
X+1195860Y+795940D01*
X+1183360Y+783440D02*
X+1183403Y+782401D01*
X+1183755Y+780322D01*
X+1184492Y+778243D01*
X+1185696Y+776164D01*
X+1187537Y+774114D01*
X+1189616Y+772611D01*
X+1191695Y+771654D01*
X+1193774Y+771115D01*
X+1195853Y+770940D01*
X+1195860Y+770940D01*
X+1208360Y+783440D02*
X+1208317Y+782401D01*
X+1207965Y+780322D01*
X+1207228Y+778243D01*
X+1206024Y+776164D01*
X+1204183Y+774114D01*
X+1202104Y+772611D01*
X+1200025Y+771654D01*
X+1197946Y+771115D01*
X+1195867Y+770940D01*
X+1195860Y+770940D01*
D24*
X+1135860Y+933440D02*
X+955860Y+933440D01*
X+1135860Y+793440D02*
X+955860Y+793440D01*
D22*
X+1282080Y+816860D02*
X+1282080Y+908300D01*
X+1345580Y+908300D01*
X+1377330Y+877820D01*
X+1377330Y+847340D01*
X+1345580Y+816860D01*
X+1282080Y+816860D01*
X+1440830Y+877820D02*
X+1472580Y+908300D01*
X+1472580Y+816860D01*
D23*
X+908360Y+717380D02*
X+908317Y+718419D01*
X+907965Y+720498D01*
X+907228Y+722577D01*
X+906024Y+724656D01*
X+904183Y+726706D01*
X+902104Y+728209D01*
X+900025Y+729166D01*
X+897946Y+729705D01*
X+895867Y+729880D01*
X+895860Y+729880D01*
X+883360Y+717380D02*
X+883403Y+718419D01*
X+883755Y+720498D01*
X+884492Y+722577D01*
X+885696Y+724656D01*
X+887537Y+726706D01*
X+889616Y+728209D01*
X+891695Y+729166D01*
X+893774Y+729705D01*
X+895853Y+729880D01*
X+895860Y+729880D01*
X+883360Y+717380D02*
X+883403Y+716341D01*
X+883755Y+714262D01*
X+884492Y+712183D01*
X+885696Y+710104D01*
X+887537Y+708054D01*
X+889616Y+706551D01*
X+891695Y+705594D01*
X+893774Y+705055D01*
X+895853Y+704880D01*
X+895860Y+704880D01*
X+908360Y+717380D02*
X+908317Y+716341D01*
X+907965Y+714262D01*
X+907228Y+712183D01*
X+906024Y+710104D01*
X+904183Y+708054D01*
X+902104Y+706551D01*
X+900025Y+705594D01*
X+897946Y+705055D01*
X+895867Y+704880D01*
X+895860Y+704880D01*
D24*
X+955860Y+567380D02*
X+1135860Y+567380D01*
X+955860Y+707380D02*
X+1135860Y+707380D01*
D22*
X+1277000Y+587440D02*
X+1277000Y+678880D01*
X+1340500Y+678880D01*
X+1372250Y+648400D01*
X+1372250Y+617920D01*
X+1340500Y+587440D01*
X+1277000Y+587440D01*
X+1419875Y+663640D02*
X+1435750Y+678880D01*
X+1483375Y+678880D01*
X+1499250Y+663640D01*
X+1499250Y+648400D01*
X+1483375Y+633160D01*
X+1499250Y+617920D01*
X+1499250Y+602680D01*
X+1483375Y+587440D01*
X+1435750Y+587440D01*
X+1419875Y+602680D01*
X+1451625Y+633160D02*
X+1483375Y+633160D01*
X+1165560Y+974260D02*
X+1965560Y+974260D01*
X+1965560Y+1774260D01*
X+1165560Y+1774260D01*
X+1165560Y+974260D01*
X+1400460Y+1916660D02*
X+1400460Y+1840460D01*
X+1416335Y+1825220D01*
X+1479835Y+1825220D01*
X+1495710Y+1840460D01*
X+1495710Y+1916660D01*
X+1527460Y+1840460D02*
X+1543335Y+1825220D01*
X+1606835Y+1825220D01*
X+1622710Y+1840460D01*
X+1622710Y+1855700D01*
X+1606835Y+1870940D01*
X+1543335Y+1870940D01*
X+1527460Y+1886180D01*
X+1527460Y+1901420D01*
X+1543335Y+1916660D01*
X+1606835Y+1916660D01*
X+1622710Y+1901420D01*
X+1654460Y+1825220D02*
X+1654460Y+1916660D01*
X+1733835Y+1916660D01*
X+1749710Y+1901420D01*
X+1749710Y+1886180D01*
X+1733835Y+1870940D01*
X+1749710Y+1855700D01*
X+1749710Y+1840460D01*
X+1733835Y+1825220D01*
X+1654460Y+1825220D01*
X+1654460Y+1870940D02*
X+1733835Y+1870940D01*
X+1006500Y+1168400D02*
X+960780Y+1168400D01*
X+1006500Y+1249680D02*
X+960780Y+1249680D01*
X+82220Y+1171400D02*
X+82220Y+1262840D01*
X+161595Y+1262840D01*
X+177470Y+1247600D01*
X+177470Y+1232360D01*
X+161595Y+1217120D01*
X+82220Y+1217120D01*
X+161595Y+1217120D02*
X+177470Y+1201880D01*
X+177470Y+1171400D01*
X+225095Y+1262840D02*
X+304470Y+1262840D01*
X+304470Y+1247600D01*
X+225095Y+1171400D01*
X+1016500Y+1368400D02*
X+970780Y+1368400D01*
X+1016500Y+1449680D02*
X+970780Y+1449680D01*
X+81780Y+1368400D02*
X+81780Y+1459840D01*
X+161155Y+1459840D01*
X+177030Y+1444600D01*
X+177030Y+1429360D01*
X+161155Y+1414120D01*
X+81780Y+1414120D01*
X+161155Y+1414120D02*
X+177030Y+1398880D01*
X+177030Y+1368400D01*
X+240530Y+1414120D02*
X+224655Y+1429360D01*
X+224655Y+1444600D01*
X+240530Y+1459840D01*
X+288155Y+1459840D01*
X+304030Y+1444600D01*
X+304030Y+1429360D01*
X+288155Y+1414120D01*
X+240530Y+1414120D01*
X+224655Y+1398880D01*
X+224655Y+1383640D01*
X+240530Y+1368400D01*
X+288155Y+1368400D01*
X+304030Y+1383640D01*
X+304030Y+1398880D01*
X+288155Y+1414120D01*
X+959960Y+1084420D02*
X+1005680Y+1084420D01*
X+959960Y+1003140D02*
X+1005680Y+1003140D01*
X+81400Y+1020460D02*
X+81400Y+1111900D01*
X+160775Y+1111900D01*
X+176650Y+1096660D01*
X+176650Y+1081420D01*
X+160775Y+1066180D01*
X+81400Y+1066180D01*
X+160775Y+1066180D02*
X+176650Y+1050940D01*
X+176650Y+1020460D01*
X+303650Y+1081420D02*
X+287775Y+1066180D01*
X+240150Y+1066180D01*
X+224275Y+1081420D01*
X+224275Y+1096660D01*
X+240150Y+1111900D01*
X+287775Y+1111900D01*
X+303650Y+1096660D01*
X+303650Y+1035700D01*
X+287775Y+1020460D01*
X+240150Y+1020460D01*
X+1015840Y+1534000D02*
X+970120Y+1534000D01*
X+1015840Y+1615280D02*
X+970120Y+1615280D01*
X+81120Y+1534000D02*
X+81120Y+1625440D01*
X+160495Y+1625440D01*
X+176370Y+1610200D01*
X+176370Y+1594960D01*
X+160495Y+1579720D01*
X+81120Y+1579720D01*
X+160495Y+1579720D02*
X+176370Y+1564480D01*
X+176370Y+1534000D01*
X+303370Y+1610200D02*
X+287495Y+1625440D01*
X+239870Y+1625440D01*
X+223995Y+1610200D01*
X+223995Y+1549240D01*
X+239870Y+1534000D01*
X+287495Y+1534000D01*
X+303370Y+1549240D01*
X+303370Y+1564480D01*
X+287495Y+1579720D01*
X+223995Y+1579720D01*
X+1193000Y+2382040D02*
X+2463000Y+2382040D01*
X+2463000Y+2636040D01*
X+1193000Y+2636040D01*
X+1193000Y+2382040D01*
X+2693000Y+2382040D02*
X+3963000Y+2382040D01*
X+3963000Y+2636040D01*
X+2693000Y+2636040D01*
X+2693000Y+2382040D01*
X+1193000Y-7960D02*
X+2717000Y-7960D01*
X+2717000Y+246040D01*
X+1193000Y+246040D01*
X+1193000Y-7960D01*
X+2956500Y-7960D02*
X+3464500Y-7960D01*
X+3464500Y+246040D01*
X+2956500Y+246040D01*
X+2956500Y-7960D01*
X+4663180Y+2028200D02*
X+4617460Y+2028200D01*
X+4663180Y+2109480D02*
X+4617460Y+2109480D01*
X+4226300Y+2012960D02*
X+4226300Y+2104400D01*
X+4305675Y+2104400D01*
X+4321550Y+2089160D01*
X+4321550Y+2073920D01*
X+4305675Y+2058680D01*
X+4226300Y+2058680D01*
X+4305675Y+2058680D02*
X+4321550Y+2043440D01*
X+4321550Y+2012960D01*
X+4385050Y+2073920D02*
X+4416800Y+2104400D01*
X+4416800Y+2012960D01*
X+746600Y+2435040D02*
X+746600Y+2587440D01*
X+873600Y+2587440D01*
X+899000Y+2562040D01*
X+899000Y+2536640D01*
X+873600Y+2511240D01*
X+746600Y+2511240D01*
X+949800Y+2435040D02*
X+949800Y+2587440D01*
X+1051400Y+2587440D01*
X+1102200Y+2536640D01*
X+1102200Y+2485840D01*
X+1051400Y+2435040D01*
X+949800Y+2435040D01*
X+4048600Y+2415040D02*
X+4048600Y+2567440D01*
X+4175600Y+2567440D01*
X+4201000Y+2542040D01*
X+4201000Y+2516640D01*
X+4175600Y+2491240D01*
X+4048600Y+2491240D01*
X+4404200Y+2440440D02*
X+4378800Y+2415040D01*
X+4302600Y+2415040D01*
X+4251800Y+2465840D01*
X+4251800Y+2516640D01*
X+4302600Y+2567440D01*
X+4378800Y+2567440D01*
X+4404200Y+2542040D01*
X+746600Y+39540D02*
X+746600Y+191940D01*
X+873600Y+191940D01*
X+899000Y+166540D01*
X+899000Y+141140D01*
X+873600Y+115740D01*
X+746600Y+115740D01*
X+949800Y+39540D02*
X+949800Y+191940D01*
X+1076800Y+191940D01*
X+1102200Y+166540D01*
X+1102200Y+141140D01*
X+1076800Y+115740D01*
X+1102200Y+90340D01*
X+1102200Y+64940D01*
X+1076800Y+39540D01*
X+949800Y+39540D01*
X+949800Y+115740D02*
X+1076800Y+115740D01*
X+3553300Y+39540D02*
X+3553300Y+191940D01*
X+3680300Y+191940D01*
X+3705700Y+166540D01*
X+3705700Y+141140D01*
X+3680300Y+115740D01*
X+3553300Y+115740D01*
X+3908900Y+39540D02*
X+3756500Y+39540D01*
X+3756500Y+191940D01*
X+3908900Y+191940D01*
X+3756500Y+115740D02*
X+3858100Y+115740D01*
X+5181500Y+567040D02*
X+5435500Y+567040D01*
X+5435500Y+2091040D01*
X+5181500Y+2091040D01*
X+5181500Y+567040D01*
X+4957101Y+1417940D02*
X+5033301Y+1417940D01*
X+5109501Y+1494140D01*
X+5033301Y+1570340D01*
X+4957101Y+1570340D01*
X+5084101Y+1773540D02*
X+5109501Y+1748140D01*
X+5109501Y+1671940D01*
X+5058701Y+1621140D01*
X+5007901Y+1621140D01*
X+4957101Y+1671940D01*
X+4957101Y+1748140D01*
X+4982501Y+1773540D01*
X+5084101Y+1976740D02*
X+5109501Y+1951340D01*
X+5109501Y+1875140D01*
X+5058701Y+1824340D01*
X+5007901Y+1824340D01*
X+4957101Y+1875140D01*
X+4957101Y+1951340D01*
X+4982501Y+1976740D01*
X+5058701Y+782940D02*
X+5058701Y+833740D01*
X+5109501Y+833740D01*
X+5109501Y+732140D01*
X+5058701Y+681340D01*
X+5007901Y+681340D01*
X+4957101Y+732140D01*
X+4957101Y+808340D01*
X+4982501Y+833740D01*
X+5109501Y+884540D02*
X+4957101Y+884540D01*
X+5109501Y+1036940D01*
X+4957101Y+1036940D01*
X+5109501Y+1087740D02*
X+4957101Y+1087740D01*
X+4957101Y+1189340D01*
X+5007901Y+1240140D01*
X+5058701Y+1240140D01*
X+5109501Y+1189340D01*
X+5109501Y+1087740D01*
X+0Y+150000D02*
X+0Y+2470000D01*
X+250000Y+2720000D02*
X+5250000Y+2720000D01*
X+5500000Y+2470000D02*
X+5500000Y+150000D01*
X+5250000Y-100000D02*
X+250000Y-100000D01*
X+0Y+2470000D02*
X+4974Y+2521117D01*
X+19287Y+2568389D01*
X+42023Y+2610900D01*
X+72266Y+2647734D01*
X+109100Y+2677977D01*
X+151611Y+2700713D01*
X+198883Y+2715026D01*
X+250000Y+2720000D01*
X+0Y+150000D02*
X+4974Y+98883D01*
X+19287Y+51611D01*
X+42023Y+9100D01*
X+72266Y-27734D01*
X+109100Y-57977D01*
X+151611Y-80713D01*
X+198883Y-95026D01*
X+250000Y-100000D01*
X+5250000Y-100000D02*
X+5301117Y-95026D01*
X+5348389Y-80713D01*
X+5390900Y-57977D01*
X+5427734Y-27734D01*
X+5457977Y+9100D01*
X+5480713Y+51611D01*
X+5495026Y+98883D01*
X+5500000Y+150000D01*
X+5500000Y+2470000D02*
X+5495026Y+2521117D01*
X+5480713Y+2568389D01*
X+5457977Y+2610900D01*
X+5427734Y+2647734D01*
X+5390900Y+2677977D01*
X+5348389Y+2700713D01*
X+5301117Y+2715026D01*
X+5250000Y+2720000D01*
X+1265400Y+2293800D02*
X+1290800Y+2319200D01*
X+1367000Y+2319200D01*
X+1392400Y+2293800D01*
X+1392400Y+2268400D01*
X+1367000Y+2243000D01*
X+1290800Y+2243000D01*
X+1265400Y+2217600D01*
X+1265400Y+2166800D01*
X+1392400Y+2166800D01*
X+1525400Y+2293800D02*
X+1550800Y+2319200D01*
X+1627000Y+2319200D01*
X+1652400Y+2293800D01*
X+1652400Y+2268400D01*
X+1627000Y+2243000D01*
X+1652400Y+2217600D01*
X+1652400Y+2192200D01*
X+1627000Y+2166800D01*
X+1550800Y+2166800D01*
X+1525400Y+2192200D01*
X+1576200Y+2243000D02*
X+1627000Y+2243000D01*
X+1902400Y+2319200D02*
X+1775400Y+2319200D01*
X+1775400Y+2268400D01*
X+1877000Y+2268400D01*
X+1902400Y+2243000D01*
X+1902400Y+2192200D01*
X+1877000Y+2166800D01*
X+1800800Y+2166800D01*
X+1775400Y+2192200D01*
X+2152400Y+2293800D02*
X+2127000Y+2319200D01*
X+2050800Y+2319200D01*
X+2025400Y+2293800D01*
X+2025400Y+2192200D01*
X+2050800Y+2166800D01*
X+2127000Y+2166800D01*
X+2152400Y+2192200D01*
X+2152400Y+2217600D01*
X+2127000Y+2243000D01*
X+2025400Y+2243000D01*
X+2275400Y+2319200D02*
X+2402400Y+2319200D01*
X+2402400Y+2293800D01*
X+2275400Y+2166800D01*
X+3750000Y+2192200D02*
X+3750000Y+2293800D01*
X+3775400Y+2319200D01*
X+3877000Y+2319200D01*
X+3902400Y+2293800D01*
X+3902400Y+2192200D01*
X+3877000Y+2166800D01*
X+3775400Y+2166800D01*
X+3750000Y+2192200D01*
X+3750000Y+2166800D02*
X+3902400Y+2319200D01*
X+3550800Y+2268400D02*
X+3601600Y+2319200D01*
X+3601600Y+2166800D01*
X+3402400Y+2217600D02*
X+3250000Y+2217600D01*
X+3351600Y+2319200D01*
X+3351600Y+2166800D01*
X+3126400Y+2319200D02*
X+2999400Y+2319200D01*
X+2999400Y+2268400D01*
X+3101000Y+2268400D01*
X+3126400Y+2243000D01*
X+3126400Y+2192200D01*
X+3101000Y+2166800D01*
X+3024800Y+2166800D01*
X+2999400Y+2192200D01*
X+2852400Y+2293800D02*
X+2827000Y+2319200D01*
X+2750800Y+2319200D01*
X+2725400Y+2293800D01*
X+2725400Y+2192200D01*
X+2750800Y+2166800D01*
X+2827000Y+2166800D01*
X+2852400Y+2192200D01*
X+2852400Y+2217600D01*
X+2827000Y+2243000D01*
X+2725400Y+2243000D01*
X+2550800Y+398400D02*
X+2601600Y+449200D01*
X+2601600Y+296800D01*
X+2275400Y+423800D02*
X+2300800Y+449200D01*
X+2377000Y+449200D01*
X+2402400Y+423800D01*
X+2402400Y+398400D01*
X+2377000Y+373000D01*
X+2402400Y+347600D01*
X+2402400Y+322200D01*
X+2377000Y+296800D01*
X+2300800Y+296800D01*
X+2275400Y+322200D01*
X+2326200Y+373000D02*
X+2377000Y+373000D01*
X+2152400Y+347600D02*
X+2000000Y+347600D01*
X+2101600Y+449200D01*
X+2101600Y+296800D01*
X+1902400Y+449200D02*
X+1775400Y+449200D01*
X+1775400Y+398400D01*
X+1877000Y+398400D01*
X+1902400Y+373000D01*
X+1902400Y+322200D01*
X+1877000Y+296800D01*
X+1800800Y+296800D01*
X+1775400Y+322200D01*
X+1652400Y+423800D02*
X+1627000Y+449200D01*
X+1550800Y+449200D01*
X+1525400Y+423800D01*
X+1525400Y+322200D01*
X+1550800Y+296800D01*
X+1627000Y+296800D01*
X+1652400Y+322200D01*
X+1652400Y+347600D01*
X+1627000Y+373000D01*
X+1525400Y+373000D01*
X+1275400Y+449200D02*
X+1402400Y+449200D01*
X+1402400Y+423800D01*
X+1275400Y+296800D01*
X+3000000Y+322200D02*
X+3000000Y+423800D01*
X+3025400Y+449200D01*
X+3127000Y+449200D01*
X+3152400Y+423800D01*
X+3152400Y+322200D01*
X+3127000Y+296800D01*
X+3025400Y+296800D01*
X+3000000Y+322200D01*
X+3000000Y+296800D02*
X+3152400Y+449200D01*
X+3275400Y+423800D02*
X+3300800Y+449200D01*
X+3377000Y+449200D01*
X+3402400Y+423800D01*
X+3402400Y+398400D01*
X+3377000Y+373000D01*
X+3300800Y+373000D01*
X+3275400Y+347600D01*
X+3275400Y+296800D01*
X+3402400Y+296800D01*
X+3265000Y+553000D02*
X+4027000Y+553000D01*
X+4027000Y+807000D01*
X+3265000Y+807000D01*
X+3265000Y+553000D01*
X+3250000Y+980000D02*
X+4050000Y+980000D01*
X+4050000Y+1780000D01*
X+3250000Y+1780000D01*
X+3250000Y+980000D01*
X+3416000Y+1920149D02*
X+3511250Y+1828709D01*
X+3416000Y+1828709D02*
X+3511250Y+1920149D01*
X+3543000Y+1920149D02*
X+3638250Y+1920149D01*
X+3590625Y+1920149D02*
X+3590625Y+1828709D01*
X+3670000Y+1828709D02*
X+3670000Y+1889669D01*
X+3701750Y+1920149D01*
X+3733500Y+1920149D01*
X+3765250Y+1889669D01*
X+3765250Y+1828709D01*
X+3670000Y+1859189D02*
X+3765250Y+1859189D01*
X+3797000Y+1920149D02*
X+3797000Y+1828709D01*
X+3892250Y+1828709D01*
M02*
