G04 PROTEUS RS274X GERBER FILE*
%FSLAX45Y45*%
%MOMM*%
G01*
%ADD13R,1.701800X0.457200*%
%ADD14R,1.473200X2.387600*%
%ADD15R,1.016000X1.270000*%
%ADD16R,0.990600X1.397000*%
%ADD17R,0.889000X0.889000*%
%ADD18R,2.997200X0.990600*%
%ADD71R,0.838200X0.508000*%
%ADD22C,0.203200*%
D13*
X+2142240Y+1643180D03*
X+2142240Y+1578180D03*
X+2142240Y+1513180D03*
X+2142240Y+1448180D03*
X+2142240Y+1383180D03*
X+2142240Y+1318180D03*
X+2142240Y+1253180D03*
X+2142240Y+1188180D03*
X+2142240Y+1123180D03*
X+2142240Y+1058180D03*
X+2832240Y+1058180D03*
X+2832240Y+1123180D03*
X+2832240Y+1188180D03*
X+2832240Y+1253180D03*
X+2832240Y+1318180D03*
X+2832240Y+1383180D03*
X+2832240Y+1448180D03*
X+2832240Y+1513180D03*
X+2832240Y+1578180D03*
X+2832240Y+1643180D03*
D14*
X+4721000Y+784000D03*
X+4340000Y+1800000D03*
X+4721000Y+1800000D03*
X+4340000Y+784000D03*
D15*
X+1656300Y+634460D03*
X+1869660Y+634460D03*
D16*
X+924740Y+1937860D03*
X+1104740Y+1937860D03*
D17*
X+906620Y+1742280D03*
X+1079340Y+1742280D03*
D18*
X+540000Y+1009040D03*
X+540000Y+1209040D03*
X+540000Y+1409040D03*
X+540000Y+1609040D03*
D71*
X+915860Y+863440D03*
X+1175860Y+863440D03*
X+1175860Y+637380D03*
X+915860Y+637380D03*
D17*
X+1070000Y+1209040D03*
X+897280Y+1209040D03*
X+1080000Y+1409040D03*
X+907280Y+1409040D03*
X+896460Y+1043780D03*
X+1069180Y+1043780D03*
X+1079340Y+1574640D03*
X+906620Y+1574640D03*
X+4726680Y+2068840D03*
X+4553960Y+2068840D03*
D22*
X+0Y+150000D02*
X+0Y+2470000D01*
X+250000Y+2720000D02*
X+5250000Y+2720000D01*
X+5500000Y+2470000D02*
X+5500000Y+150000D01*
X+5250000Y-100000D02*
X+250000Y-100000D01*
X+0Y+2470000D02*
X+4974Y+2521117D01*
X+19287Y+2568389D01*
X+42023Y+2610900D01*
X+72266Y+2647734D01*
X+109100Y+2677977D01*
X+151611Y+2700713D01*
X+198883Y+2715026D01*
X+250000Y+2720000D01*
X+0Y+150000D02*
X+4974Y+98883D01*
X+19287Y+51611D01*
X+42023Y+9100D01*
X+72266Y-27734D01*
X+109100Y-57977D01*
X+151611Y-80713D01*
X+198883Y-95026D01*
X+250000Y-100000D01*
X+5250000Y-100000D02*
X+5301117Y-95026D01*
X+5348389Y-80713D01*
X+5390900Y-57977D01*
X+5427734Y-27734D01*
X+5457977Y+9100D01*
X+5480713Y+51611D01*
X+5495026Y+98883D01*
X+5500000Y+150000D01*
X+5500000Y+2470000D02*
X+5495026Y+2521117D01*
X+5480713Y+2568389D01*
X+5457977Y+2610900D01*
X+5427734Y+2647734D01*
X+5390900Y+2677977D01*
X+5348389Y+2700713D01*
X+5301117Y+2715026D01*
X+5250000Y+2720000D01*
M02*
