G04 PROTEUS RS274X GERBER FILE*
%FSLAX45Y45*%
%MOMM*%
G01*
%AMPPAD019*
4,1,4,
-0.850900,-0.228600,
-0.850900,0.228600,
0.850900,0.228600,
0.850900,-0.228600,
-0.850900,-0.228600,
0*%
%ADD27PPAD019*%
%AMPPAD020*
4,1,36,
-0.863600,-1.193800,
-0.863600,1.193800,
-0.861070,1.219770,
-0.853800,1.243780,
-0.842250,1.265380,
-0.826890,1.284090,
-0.808170,1.299450,
-0.786580,1.311000,
-0.762570,1.318270,
-0.736600,1.320800,
0.736600,1.320800,
0.762570,1.318270,
0.786580,1.311000,
0.808170,1.299450,
0.826890,1.284090,
0.842250,1.265380,
0.853800,1.243780,
0.861070,1.219770,
0.863600,1.193800,
0.863600,-1.193800,
0.861070,-1.219770,
0.853800,-1.243780,
0.842250,-1.265380,
0.826890,-1.284090,
0.808170,-1.299450,
0.786580,-1.311000,
0.762570,-1.318270,
0.736600,-1.320800,
-0.736600,-1.320800,
-0.762570,-1.318270,
-0.786580,-1.311000,
-0.808170,-1.299450,
-0.826890,-1.284090,
-0.842250,-1.265380,
-0.853800,-1.243780,
-0.861070,-1.219770,
-0.863600,-1.193800,
0*%
%ADD28PPAD020*%
%AMPPAD021*
4,1,36,
-0.508000,0.762000,
0.508000,0.762000,
0.533970,0.759470,
0.557980,0.752200,
0.579580,0.740650,
0.598290,0.725290,
0.613650,0.706570,
0.625200,0.684980,
0.632470,0.660970,
0.635000,0.635000,
0.635000,-0.635000,
0.632470,-0.660970,
0.625200,-0.684980,
0.613650,-0.706570,
0.598290,-0.725290,
0.579580,-0.740650,
0.557980,-0.752200,
0.533970,-0.759470,
0.508000,-0.762000,
-0.508000,-0.762000,
-0.533970,-0.759470,
-0.557980,-0.752200,
-0.579580,-0.740650,
-0.598290,-0.725290,
-0.613650,-0.706570,
-0.625200,-0.684980,
-0.632470,-0.660970,
-0.635000,-0.635000,
-0.635000,0.635000,
-0.632470,0.660970,
-0.625200,0.684980,
-0.613650,0.706570,
-0.598290,0.725290,
-0.579580,0.740650,
-0.557980,0.752200,
-0.533970,0.759470,
-0.508000,0.762000,
0*%
%ADD29PPAD021*%
%AMPPAD022*
4,1,4,
0.495300,-0.698500,
-0.495300,-0.698500,
-0.495300,0.698500,
0.495300,0.698500,
0.495300,-0.698500,
0*%
%ADD72PPAD022*%
%AMPPAD023*
4,1,36,
-0.444500,0.571500,
0.444500,0.571500,
0.470470,0.568970,
0.494480,0.561700,
0.516080,0.550150,
0.534790,0.534790,
0.550150,0.516070,
0.561700,0.494480,
0.568970,0.470470,
0.571500,0.444500,
0.571500,-0.444500,
0.568970,-0.470470,
0.561700,-0.494480,
0.550150,-0.516070,
0.534790,-0.534790,
0.516080,-0.550150,
0.494480,-0.561700,
0.470470,-0.568970,
0.444500,-0.571500,
-0.444500,-0.571500,
-0.470470,-0.568970,
-0.494480,-0.561700,
-0.516080,-0.550150,
-0.534790,-0.534790,
-0.550150,-0.516070,
-0.561700,-0.494480,
-0.568970,-0.470470,
-0.571500,-0.444500,
-0.571500,0.444500,
-0.568970,0.470470,
-0.561700,0.494480,
-0.550150,0.516070,
-0.534790,0.534790,
-0.516080,0.550150,
-0.494480,0.561700,
-0.470470,0.568970,
-0.444500,0.571500,
0*%
%ADD73PPAD023*%
%AMPPAD024*
4,1,4,
-1.498600,-0.495300,
-1.498600,0.495300,
1.498600,0.495300,
1.498600,-0.495300,
-1.498600,-0.495300,
0*%
%ADD30PPAD024*%
%ADD19C,3.556000*%
%AMPPAD025*
4,1,4,
0.419100,0.254000,
0.419100,-0.254000,
-0.419100,-0.254000,
-0.419100,0.254000,
0.419100,0.254000,
0*%
%ADD31PPAD025*%
%ADD32C,1.524000*%
%AMPPAD027*
4,1,36,
-1.016000,1.143000,
1.016000,1.143000,
1.041970,1.140470,
1.065980,1.133200,
1.087580,1.121650,
1.106290,1.106290,
1.121650,1.087570,
1.133200,1.065980,
1.140470,1.041970,
1.143000,1.016000,
1.143000,-1.016000,
1.140470,-1.041970,
1.133200,-1.065980,
1.121650,-1.087570,
1.106290,-1.106290,
1.087580,-1.121650,
1.065980,-1.133200,
1.041970,-1.140470,
1.016000,-1.143000,
-1.016000,-1.143000,
-1.041970,-1.140470,
-1.065980,-1.133200,
-1.087580,-1.121650,
-1.106290,-1.106290,
-1.121650,-1.087570,
-1.133200,-1.065980,
-1.140470,-1.041970,
-1.143000,-1.016000,
-1.143000,1.016000,
-1.140470,1.041970,
-1.133200,1.065980,
-1.121650,1.087570,
-1.106290,1.106290,
-1.087580,1.121650,
-1.065980,1.133200,
-1.041970,1.140470,
-1.016000,1.143000,
0*%
%ADD33PPAD027*%
%AMPPAD028*
4,1,36,
1.143000,1.016000,
1.143000,-1.016000,
1.140470,-1.041970,
1.133200,-1.065980,
1.121650,-1.087580,
1.106290,-1.106290,
1.087570,-1.121650,
1.065980,-1.133200,
1.041970,-1.140470,
1.016000,-1.143000,
-1.016000,-1.143000,
-1.041970,-1.140470,
-1.065980,-1.133200,
-1.087570,-1.121650,
-1.106290,-1.106290,
-1.121650,-1.087580,
-1.133200,-1.065980,
-1.140470,-1.041970,
-1.143000,-1.016000,
-1.143000,1.016000,
-1.140470,1.041970,
-1.133200,1.065980,
-1.121650,1.087580,
-1.106290,1.106290,
-1.087570,1.121650,
-1.065980,1.133200,
-1.041970,1.140470,
-1.016000,1.143000,
1.016000,1.143000,
1.041970,1.140470,
1.065980,1.133200,
1.087570,1.121650,
1.106290,1.106290,
1.121650,1.087580,
1.133200,1.065980,
1.140470,1.041970,
1.143000,1.016000,
0*%
%ADD34PPAD028*%
%ADD22C,0.203200*%
D27*
X+2142240Y+1643180D03*
X+2142240Y+1578180D03*
X+2142240Y+1513180D03*
X+2142240Y+1448180D03*
X+2142240Y+1383180D03*
X+2142240Y+1318180D03*
X+2142240Y+1253180D03*
X+2142240Y+1188180D03*
X+2142240Y+1123180D03*
X+2142240Y+1058180D03*
X+2832240Y+1058180D03*
X+2832240Y+1123180D03*
X+2832240Y+1188180D03*
X+2832240Y+1253180D03*
X+2832240Y+1318180D03*
X+2832240Y+1383180D03*
X+2832240Y+1448180D03*
X+2832240Y+1513180D03*
X+2832240Y+1578180D03*
X+2832240Y+1643180D03*
D28*
X+4721000Y+784000D03*
X+4340000Y+1800000D03*
X+4721000Y+1800000D03*
X+4340000Y+784000D03*
D29*
X+1656300Y+634460D03*
X+1869660Y+634460D03*
D72*
X+924740Y+1937860D03*
X+1104740Y+1937860D03*
D73*
X+906620Y+1742280D03*
X+1079340Y+1742280D03*
D30*
X+540000Y+1009040D03*
X+540000Y+1209040D03*
X+540000Y+1409040D03*
X+540000Y+1609040D03*
D19*
X+232660Y+648640D03*
X+232660Y+1969440D03*
D31*
X+915860Y+863440D03*
X+1175860Y+863440D03*
X+1175860Y+637380D03*
X+915860Y+637380D03*
D32*
X+1315560Y+1074260D03*
X+1565560Y+1074260D03*
X+1815560Y+1074260D03*
X+1815560Y+1674260D03*
X+1565560Y+1674260D03*
X+1315560Y+1674260D03*
D73*
X+1070000Y+1209040D03*
X+897280Y+1209040D03*
X+1080000Y+1409040D03*
X+907280Y+1409040D03*
X+896460Y+1043780D03*
X+1069180Y+1043780D03*
X+1079340Y+1574640D03*
X+906620Y+1574640D03*
D33*
X+1320000Y+2509040D03*
X+1574000Y+2509040D03*
X+1828000Y+2509040D03*
X+2082000Y+2509040D03*
X+2336000Y+2509040D03*
X+3836000Y+2509040D03*
X+3582000Y+2509040D03*
X+3328000Y+2509040D03*
X+3074000Y+2509040D03*
X+2820000Y+2509040D03*
X+2590000Y+119040D03*
X+2336000Y+119040D03*
X+2082000Y+119040D03*
X+1828000Y+119040D03*
X+1574000Y+119040D03*
X+1320000Y+119040D03*
X+3083500Y+119040D03*
X+3337500Y+119040D03*
D73*
X+4726680Y+2068840D03*
X+4553960Y+2068840D03*
D34*
X+5308500Y+1964040D03*
X+5308500Y+1710040D03*
X+5308500Y+1456040D03*
X+5308500Y+1202040D03*
X+5308500Y+948040D03*
X+5308500Y+694040D03*
D33*
X+3900000Y+680000D03*
X+3646000Y+680000D03*
X+3392000Y+680000D03*
D32*
X+3400000Y+1080000D03*
X+3650000Y+1080000D03*
X+3900000Y+1080000D03*
X+3900000Y+1680000D03*
X+3650000Y+1680000D03*
X+3400000Y+1680000D03*
D22*
X+0Y+150000D02*
X+0Y+2470000D01*
X+250000Y+2720000D02*
X+5250000Y+2720000D01*
X+5500000Y+2470000D02*
X+5500000Y+150000D01*
X+5250000Y-100000D02*
X+250000Y-100000D01*
X+0Y+2470000D02*
X+4974Y+2521117D01*
X+19287Y+2568389D01*
X+42023Y+2610900D01*
X+72266Y+2647734D01*
X+109100Y+2677977D01*
X+151611Y+2700713D01*
X+198883Y+2715026D01*
X+250000Y+2720000D01*
X+0Y+150000D02*
X+4974Y+98883D01*
X+19287Y+51611D01*
X+42023Y+9100D01*
X+72266Y-27734D01*
X+109100Y-57977D01*
X+151611Y-80713D01*
X+198883Y-95026D01*
X+250000Y-100000D01*
X+5250000Y-100000D02*
X+5301117Y-95026D01*
X+5348389Y-80713D01*
X+5390900Y-57977D01*
X+5427734Y-27734D01*
X+5457977Y+9100D01*
X+5480713Y+51611D01*
X+5495026Y+98883D01*
X+5500000Y+150000D01*
X+5500000Y+2470000D02*
X+5495026Y+2521117D01*
X+5480713Y+2568389D01*
X+5457977Y+2610900D01*
X+5427734Y+2647734D01*
X+5390900Y+2677977D01*
X+5348389Y+2700713D01*
X+5301117Y+2715026D01*
X+5250000Y+2720000D01*
M02*
