G04 PROTEUS RS274X GERBER FILE*
%FSLAX45Y45*%
%MOMM*%
G01*
%ADD22C,0.203200*%
%ADD47C,0.127000*%
%ADD48C,0.063500*%
D22*
X+1769660Y+697960D02*
X+1769660Y+570960D01*
X+1706160Y+634460D02*
X+1833160Y+634460D01*
X+994230Y+1107280D02*
X+994230Y+980280D01*
X+930730Y+1043780D02*
X+1057730Y+1043780D01*
X+777042Y+1672436D02*
X+777042Y+1545436D01*
X+713542Y+1608936D02*
X+840542Y+1608936D01*
X+1027549Y+2001360D02*
X+1027549Y+1874360D01*
X+964049Y+1937860D02*
X+1091049Y+1937860D01*
X+2296024Y+1450246D02*
X+2296024Y+1323246D01*
X+2232524Y+1386746D02*
X+2359524Y+1386746D01*
X+4628909Y+2132340D02*
X+4628909Y+2005340D01*
X+4565409Y+2068840D02*
X+4692409Y+2068840D01*
X+1990000Y+1707689D02*
X+1990000Y+1580689D01*
X+1926500Y+1644189D02*
X+2053500Y+1644189D01*
X+4340000Y+1863500D02*
X+4340000Y+1736500D01*
X+4276500Y+1800000D02*
X+4403500Y+1800000D01*
X+1992294Y+1382707D02*
X+1992294Y+1255707D01*
X+1928794Y+1319207D02*
X+2055794Y+1319207D01*
X+1917473Y+1316921D02*
X+1917473Y+1189921D01*
X+1853973Y+1253421D02*
X+1980973Y+1253421D01*
X+296160Y+648640D02*
X+295943Y+653887D01*
X+294178Y+664382D01*
X+290486Y+674877D01*
X+284458Y+685372D01*
X+275236Y+695752D01*
X+264741Y+703440D01*
X+254246Y+708358D01*
X+243751Y+711164D01*
X+233256Y+712137D01*
X+232660Y+712140D01*
X+169160Y+648640D02*
X+169377Y+653887D01*
X+171142Y+664382D01*
X+174834Y+674877D01*
X+180862Y+685372D01*
X+190084Y+695752D01*
X+200579Y+703440D01*
X+211074Y+708358D01*
X+221569Y+711164D01*
X+232064Y+712137D01*
X+232660Y+712140D01*
X+169160Y+648640D02*
X+169377Y+643393D01*
X+171142Y+632898D01*
X+174834Y+622403D01*
X+180862Y+611908D01*
X+190084Y+601528D01*
X+200579Y+593840D01*
X+211074Y+588922D01*
X+221569Y+586116D01*
X+232064Y+585143D01*
X+232660Y+585140D01*
X+296160Y+648640D02*
X+295943Y+643393D01*
X+294178Y+632898D01*
X+290486Y+622403D01*
X+284458Y+611908D01*
X+275236Y+601528D01*
X+264741Y+593840D01*
X+254246Y+588922D01*
X+243751Y+586116D01*
X+233256Y+585143D01*
X+232660Y+585140D01*
X+232660Y+712140D02*
X+232660Y+585140D01*
X+169160Y+648640D02*
X+296160Y+648640D01*
X+296160Y+1969440D02*
X+295943Y+1974687D01*
X+294178Y+1985182D01*
X+290486Y+1995677D01*
X+284458Y+2006172D01*
X+275236Y+2016552D01*
X+264741Y+2024240D01*
X+254246Y+2029158D01*
X+243751Y+2031964D01*
X+233256Y+2032937D01*
X+232660Y+2032940D01*
X+169160Y+1969440D02*
X+169377Y+1974687D01*
X+171142Y+1985182D01*
X+174834Y+1995677D01*
X+180862Y+2006172D01*
X+190084Y+2016552D01*
X+200579Y+2024240D01*
X+211074Y+2029158D01*
X+221569Y+2031964D01*
X+232064Y+2032937D01*
X+232660Y+2032940D01*
X+169160Y+1969440D02*
X+169377Y+1964193D01*
X+171142Y+1953698D01*
X+174834Y+1943203D01*
X+180862Y+1932708D01*
X+190084Y+1922328D01*
X+200579Y+1914640D01*
X+211074Y+1909722D01*
X+221569Y+1906916D01*
X+232064Y+1905943D01*
X+232660Y+1905940D01*
X+296160Y+1969440D02*
X+295943Y+1964193D01*
X+294178Y+1953698D01*
X+290486Y+1943203D01*
X+284458Y+1932708D01*
X+275236Y+1922328D01*
X+264741Y+1914640D01*
X+254246Y+1909722D01*
X+243751Y+1906916D01*
X+233256Y+1905943D01*
X+232660Y+1905940D01*
X+232660Y+2032940D02*
X+232660Y+1905940D01*
X+169160Y+1969440D02*
X+296160Y+1969440D01*
X+1270659Y+1119161D02*
X+1360461Y+1029359D01*
X+1270659Y+1029359D02*
X+1360461Y+1119161D01*
X+1520659Y+1119161D02*
X+1610461Y+1029359D01*
X+1520659Y+1029359D02*
X+1610461Y+1119161D01*
X+1770659Y+1119161D02*
X+1860461Y+1029359D01*
X+1770659Y+1029359D02*
X+1860461Y+1119161D01*
X+1770659Y+1719161D02*
X+1860461Y+1629359D01*
X+1770659Y+1629359D02*
X+1860461Y+1719161D01*
X+1520659Y+1719161D02*
X+1610461Y+1629359D01*
X+1520659Y+1629359D02*
X+1610461Y+1719161D01*
X+1270659Y+1719161D02*
X+1360461Y+1629359D01*
X+1270659Y+1629359D02*
X+1360461Y+1719161D01*
X+1320000Y+2572540D02*
X+1320000Y+2445540D01*
X+1256500Y+2509040D02*
X+1383500Y+2509040D01*
X+1275099Y+2553941D02*
X+1364901Y+2464139D01*
X+1275099Y+2464139D02*
X+1364901Y+2553941D01*
X+1574000Y+2572540D02*
X+1574000Y+2445540D01*
X+1510500Y+2509040D02*
X+1637500Y+2509040D01*
X+1529099Y+2553941D02*
X+1618901Y+2464139D01*
X+1529099Y+2464139D02*
X+1618901Y+2553941D01*
X+1828000Y+2572540D02*
X+1828000Y+2445540D01*
X+1764500Y+2509040D02*
X+1891500Y+2509040D01*
X+1783099Y+2553941D02*
X+1872901Y+2464139D01*
X+1783099Y+2464139D02*
X+1872901Y+2553941D01*
X+2082000Y+2572540D02*
X+2082000Y+2445540D01*
X+2018500Y+2509040D02*
X+2145500Y+2509040D01*
X+2037099Y+2553941D02*
X+2126901Y+2464139D01*
X+2037099Y+2464139D02*
X+2126901Y+2553941D01*
X+2336000Y+2572540D02*
X+2336000Y+2445540D01*
X+2272500Y+2509040D02*
X+2399500Y+2509040D01*
X+2291099Y+2553941D02*
X+2380901Y+2464139D01*
X+2291099Y+2464139D02*
X+2380901Y+2553941D01*
X+3836000Y+2572540D02*
X+3836000Y+2445540D01*
X+3772500Y+2509040D02*
X+3899500Y+2509040D01*
X+3791099Y+2553941D02*
X+3880901Y+2464139D01*
X+3791099Y+2464139D02*
X+3880901Y+2553941D01*
X+3582000Y+2572540D02*
X+3582000Y+2445540D01*
X+3518500Y+2509040D02*
X+3645500Y+2509040D01*
X+3537099Y+2553941D02*
X+3626901Y+2464139D01*
X+3537099Y+2464139D02*
X+3626901Y+2553941D01*
X+3328000Y+2572540D02*
X+3328000Y+2445540D01*
X+3264500Y+2509040D02*
X+3391500Y+2509040D01*
X+3283099Y+2553941D02*
X+3372901Y+2464139D01*
X+3283099Y+2464139D02*
X+3372901Y+2553941D01*
X+3074000Y+2572540D02*
X+3074000Y+2445540D01*
X+3010500Y+2509040D02*
X+3137500Y+2509040D01*
X+3029099Y+2553941D02*
X+3118901Y+2464139D01*
X+3029099Y+2464139D02*
X+3118901Y+2553941D01*
X+2820000Y+2572540D02*
X+2820000Y+2445540D01*
X+2756500Y+2509040D02*
X+2883500Y+2509040D01*
X+2775099Y+2553941D02*
X+2864901Y+2464139D01*
X+2775099Y+2464139D02*
X+2864901Y+2553941D01*
X+2590000Y+182540D02*
X+2590000Y+55540D01*
X+2526500Y+119040D02*
X+2653500Y+119040D01*
X+2545099Y+163941D02*
X+2634901Y+74139D01*
X+2545099Y+74139D02*
X+2634901Y+163941D01*
X+2336000Y+182540D02*
X+2336000Y+55540D01*
X+2272500Y+119040D02*
X+2399500Y+119040D01*
X+2291099Y+163941D02*
X+2380901Y+74139D01*
X+2291099Y+74139D02*
X+2380901Y+163941D01*
X+2082000Y+182540D02*
X+2082000Y+55540D01*
X+2018500Y+119040D02*
X+2145500Y+119040D01*
X+2037099Y+163941D02*
X+2126901Y+74139D01*
X+2037099Y+74139D02*
X+2126901Y+163941D01*
X+1828000Y+182540D02*
X+1828000Y+55540D01*
X+1764500Y+119040D02*
X+1891500Y+119040D01*
X+1783099Y+163941D02*
X+1872901Y+74139D01*
X+1783099Y+74139D02*
X+1872901Y+163941D01*
X+1574000Y+182540D02*
X+1574000Y+55540D01*
X+1510500Y+119040D02*
X+1637500Y+119040D01*
X+1529099Y+163941D02*
X+1618901Y+74139D01*
X+1529099Y+74139D02*
X+1618901Y+163941D01*
X+1320000Y+182540D02*
X+1320000Y+55540D01*
X+1256500Y+119040D02*
X+1383500Y+119040D01*
X+1275099Y+163941D02*
X+1364901Y+74139D01*
X+1275099Y+74139D02*
X+1364901Y+163941D01*
X+3083500Y+182540D02*
X+3083500Y+55540D01*
X+3020000Y+119040D02*
X+3147000Y+119040D01*
X+3038599Y+163941D02*
X+3128401Y+74139D01*
X+3038599Y+74139D02*
X+3128401Y+163941D01*
X+3337500Y+182540D02*
X+3337500Y+55540D01*
X+3274000Y+119040D02*
X+3401000Y+119040D01*
X+3292599Y+163941D02*
X+3382401Y+74139D01*
X+3292599Y+74139D02*
X+3382401Y+163941D01*
X+5308500Y+2027540D02*
X+5308500Y+1900540D01*
X+5245000Y+1964040D02*
X+5372000Y+1964040D01*
X+5263599Y+2008941D02*
X+5353401Y+1919139D01*
X+5263599Y+1919139D02*
X+5353401Y+2008941D01*
X+5308500Y+1773540D02*
X+5308500Y+1646540D01*
X+5245000Y+1710040D02*
X+5372000Y+1710040D01*
X+5263599Y+1754941D02*
X+5353401Y+1665139D01*
X+5263599Y+1665139D02*
X+5353401Y+1754941D01*
X+5308500Y+1519540D02*
X+5308500Y+1392540D01*
X+5245000Y+1456040D02*
X+5372000Y+1456040D01*
X+5263599Y+1500941D02*
X+5353401Y+1411139D01*
X+5263599Y+1411139D02*
X+5353401Y+1500941D01*
X+5308500Y+1265540D02*
X+5308500Y+1138540D01*
X+5245000Y+1202040D02*
X+5372000Y+1202040D01*
X+5263599Y+1246941D02*
X+5353401Y+1157139D01*
X+5263599Y+1157139D02*
X+5353401Y+1246941D01*
X+5308500Y+1011540D02*
X+5308500Y+884540D01*
X+5245000Y+948040D02*
X+5372000Y+948040D01*
X+5263599Y+992941D02*
X+5353401Y+903139D01*
X+5263599Y+903139D02*
X+5353401Y+992941D01*
X+5308500Y+757540D02*
X+5308500Y+630540D01*
X+5245000Y+694040D02*
X+5372000Y+694040D01*
X+5263599Y+738941D02*
X+5353401Y+649139D01*
X+5263599Y+649139D02*
X+5353401Y+738941D01*
X+283500Y+120000D02*
X+283283Y+125247D01*
X+281518Y+135742D01*
X+277826Y+146237D01*
X+271798Y+156732D01*
X+262576Y+167112D01*
X+252081Y+174800D01*
X+241586Y+179718D01*
X+231091Y+182524D01*
X+220596Y+183497D01*
X+220000Y+183500D01*
X+156500Y+120000D02*
X+156717Y+125247D01*
X+158482Y+135742D01*
X+162174Y+146237D01*
X+168202Y+156732D01*
X+177424Y+167112D01*
X+187919Y+174800D01*
X+198414Y+179718D01*
X+208909Y+182524D01*
X+219404Y+183497D01*
X+220000Y+183500D01*
X+156500Y+120000D02*
X+156717Y+114753D01*
X+158482Y+104258D01*
X+162174Y+93763D01*
X+168202Y+83268D01*
X+177424Y+72888D01*
X+187919Y+65200D01*
X+198414Y+60282D01*
X+208909Y+57476D01*
X+219404Y+56503D01*
X+220000Y+56500D01*
X+283500Y+120000D02*
X+283283Y+114753D01*
X+281518Y+104258D01*
X+277826Y+93763D01*
X+271798Y+83268D01*
X+262576Y+72888D01*
X+252081Y+65200D01*
X+241586Y+60282D01*
X+231091Y+57476D01*
X+220596Y+56503D01*
X+220000Y+56500D01*
X+175099Y+164901D02*
X+264901Y+75099D01*
X+175099Y+75099D02*
X+264901Y+164901D01*
X+283500Y+2500000D02*
X+283283Y+2505247D01*
X+281518Y+2515742D01*
X+277826Y+2526237D01*
X+271798Y+2536732D01*
X+262576Y+2547112D01*
X+252081Y+2554800D01*
X+241586Y+2559718D01*
X+231091Y+2562524D01*
X+220596Y+2563497D01*
X+220000Y+2563500D01*
X+156500Y+2500000D02*
X+156717Y+2505247D01*
X+158482Y+2515742D01*
X+162174Y+2526237D01*
X+168202Y+2536732D01*
X+177424Y+2547112D01*
X+187919Y+2554800D01*
X+198414Y+2559718D01*
X+208909Y+2562524D01*
X+219404Y+2563497D01*
X+220000Y+2563500D01*
X+156500Y+2500000D02*
X+156717Y+2494753D01*
X+158482Y+2484258D01*
X+162174Y+2473763D01*
X+168202Y+2463268D01*
X+177424Y+2452888D01*
X+187919Y+2445200D01*
X+198414Y+2440282D01*
X+208909Y+2437476D01*
X+219404Y+2436503D01*
X+220000Y+2436500D01*
X+283500Y+2500000D02*
X+283283Y+2494753D01*
X+281518Y+2484258D01*
X+277826Y+2473763D01*
X+271798Y+2463268D01*
X+262576Y+2452888D01*
X+252081Y+2445200D01*
X+241586Y+2440282D01*
X+231091Y+2437476D01*
X+220596Y+2436503D01*
X+220000Y+2436500D01*
X+175099Y+2544901D02*
X+264901Y+2455099D01*
X+175099Y+2455099D02*
X+264901Y+2544901D01*
X+5343500Y+2500000D02*
X+5343283Y+2505247D01*
X+5341518Y+2515742D01*
X+5337826Y+2526237D01*
X+5331798Y+2536732D01*
X+5322576Y+2547112D01*
X+5312081Y+2554800D01*
X+5301586Y+2559718D01*
X+5291091Y+2562524D01*
X+5280596Y+2563497D01*
X+5280000Y+2563500D01*
X+5216500Y+2500000D02*
X+5216717Y+2505247D01*
X+5218482Y+2515742D01*
X+5222174Y+2526237D01*
X+5228202Y+2536732D01*
X+5237424Y+2547112D01*
X+5247919Y+2554800D01*
X+5258414Y+2559718D01*
X+5268909Y+2562524D01*
X+5279404Y+2563497D01*
X+5280000Y+2563500D01*
X+5216500Y+2500000D02*
X+5216717Y+2494753D01*
X+5218482Y+2484258D01*
X+5222174Y+2473763D01*
X+5228202Y+2463268D01*
X+5237424Y+2452888D01*
X+5247919Y+2445200D01*
X+5258414Y+2440282D01*
X+5268909Y+2437476D01*
X+5279404Y+2436503D01*
X+5280000Y+2436500D01*
X+5343500Y+2500000D02*
X+5343283Y+2494753D01*
X+5341518Y+2484258D01*
X+5337826Y+2473763D01*
X+5331798Y+2463268D01*
X+5322576Y+2452888D01*
X+5312081Y+2445200D01*
X+5301586Y+2440282D01*
X+5291091Y+2437476D01*
X+5280596Y+2436503D01*
X+5280000Y+2436500D01*
X+5235099Y+2544901D02*
X+5324901Y+2455099D01*
X+5235099Y+2455099D02*
X+5324901Y+2544901D01*
X+5343500Y+120000D02*
X+5343283Y+125247D01*
X+5341518Y+135742D01*
X+5337826Y+146237D01*
X+5331798Y+156732D01*
X+5322576Y+167112D01*
X+5312081Y+174800D01*
X+5301586Y+179718D01*
X+5291091Y+182524D01*
X+5280596Y+183497D01*
X+5280000Y+183500D01*
X+5216500Y+120000D02*
X+5216717Y+125247D01*
X+5218482Y+135742D01*
X+5222174Y+146237D01*
X+5228202Y+156732D01*
X+5237424Y+167112D01*
X+5247919Y+174800D01*
X+5258414Y+179718D01*
X+5268909Y+182524D01*
X+5279404Y+183497D01*
X+5280000Y+183500D01*
X+5216500Y+120000D02*
X+5216717Y+114753D01*
X+5218482Y+104258D01*
X+5222174Y+93763D01*
X+5228202Y+83268D01*
X+5237424Y+72888D01*
X+5247919Y+65200D01*
X+5258414Y+60282D01*
X+5268909Y+57476D01*
X+5279404Y+56503D01*
X+5280000Y+56500D01*
X+5343500Y+120000D02*
X+5343283Y+114753D01*
X+5341518Y+104258D01*
X+5337826Y+93763D01*
X+5331798Y+83268D01*
X+5322576Y+72888D01*
X+5312081Y+65200D01*
X+5301586Y+60282D01*
X+5291091Y+57476D01*
X+5280596Y+56503D01*
X+5280000Y+56500D01*
X+5235099Y+164901D02*
X+5324901Y+75099D01*
X+5235099Y+75099D02*
X+5324901Y+164901D01*
X+3900000Y+743500D02*
X+3900000Y+616500D01*
X+3836500Y+680000D02*
X+3963500Y+680000D01*
X+3855099Y+724901D02*
X+3944901Y+635099D01*
X+3855099Y+635099D02*
X+3944901Y+724901D01*
X+3646000Y+743500D02*
X+3646000Y+616500D01*
X+3582500Y+680000D02*
X+3709500Y+680000D01*
X+3601099Y+724901D02*
X+3690901Y+635099D01*
X+3601099Y+635099D02*
X+3690901Y+724901D01*
X+3392000Y+743500D02*
X+3392000Y+616500D01*
X+3328500Y+680000D02*
X+3455500Y+680000D01*
X+3347099Y+724901D02*
X+3436901Y+635099D01*
X+3347099Y+635099D02*
X+3436901Y+724901D01*
X+3355099Y+1124901D02*
X+3444901Y+1035099D01*
X+3355099Y+1035099D02*
X+3444901Y+1124901D01*
X+3605099Y+1124901D02*
X+3694901Y+1035099D01*
X+3605099Y+1035099D02*
X+3694901Y+1124901D01*
X+3855099Y+1124901D02*
X+3944901Y+1035099D01*
X+3855099Y+1035099D02*
X+3944901Y+1124901D01*
X+3855099Y+1724901D02*
X+3944901Y+1635099D01*
X+3855099Y+1635099D02*
X+3944901Y+1724901D01*
X+3605099Y+1724901D02*
X+3694901Y+1635099D01*
X+3605099Y+1635099D02*
X+3694901Y+1724901D01*
X+3355099Y+1724901D02*
X+3444901Y+1635099D01*
X+3355099Y+1635099D02*
X+3444901Y+1724901D01*
X+0Y+150000D02*
X+0Y+2470000D01*
X+250000Y+2720000D02*
X+5250000Y+2720000D01*
X+5500000Y+2470000D02*
X+5500000Y+150000D01*
X+5250000Y-100000D02*
X+250000Y-100000D01*
X+0Y+2470000D02*
X+4974Y+2521117D01*
X+19287Y+2568389D01*
X+42023Y+2610900D01*
X+72266Y+2647734D01*
X+109100Y+2677977D01*
X+151611Y+2700713D01*
X+198883Y+2715026D01*
X+250000Y+2720000D01*
X+0Y+150000D02*
X+4974Y+98883D01*
X+19287Y+51611D01*
X+42023Y+9100D01*
X+72266Y-27734D01*
X+109100Y-57977D01*
X+151611Y-80713D01*
X+198883Y-95026D01*
X+250000Y-100000D01*
X+5250000Y-100000D02*
X+5301117Y-95026D01*
X+5348389Y-80713D01*
X+5390900Y-57977D01*
X+5427734Y-27734D01*
X+5457977Y+9100D01*
X+5480713Y+51611D01*
X+5495026Y+98883D01*
X+5500000Y+150000D01*
X+5500000Y+2470000D02*
X+5495026Y+2521117D01*
X+5480713Y+2568389D01*
X+5457977Y+2610900D01*
X+5427734Y+2647734D01*
X+5390900Y+2677977D01*
X+5348389Y+2700713D01*
X+5301117Y+2715026D01*
X+5250000Y+2720000D01*
D47*
X-971300Y-1852600D02*
X+1774440Y-1852600D01*
X+1774440Y-366700D01*
X-971300Y-366700D01*
X-971300Y-1852600D01*
D48*
X-503938Y-366700D02*
X-503938Y-1852600D01*
X+410462Y-366700D02*
X+410462Y-1852600D01*
X+1243582Y-366700D02*
X+1243582Y-1852600D01*
X-971300Y-639750D02*
X+1774440Y-639750D01*
X-971300Y-881050D02*
X+1774440Y-881050D01*
X-971300Y-1122350D02*
X+1774440Y-1122350D01*
X-971300Y-1363650D02*
X+1774440Y-1363650D01*
X-971300Y-1604950D02*
X+1774440Y-1604950D01*
D47*
X-914150Y-530530D02*
X-898910Y-545770D01*
X-837950Y-545770D01*
X-822710Y-530530D01*
X-822710Y-515290D01*
X-837950Y-500050D01*
X-898910Y-500050D01*
X-914150Y-484810D01*
X-914150Y-469570D01*
X-898910Y-454330D01*
X-837950Y-454330D01*
X-822710Y-469570D01*
X-700790Y-454330D02*
X-792230Y-545770D01*
X-792230Y-454330D02*
X-746510Y-500050D01*
X-670310Y-545770D02*
X-670310Y-454330D01*
X-624590Y-500050D01*
X-578870Y-454330D01*
X-578870Y-545770D01*
X-446790Y-530530D02*
X-431550Y-545770D01*
X-370590Y-545770D01*
X-355350Y-530530D01*
X-355350Y-515290D01*
X-370590Y-500050D01*
X-431550Y-500050D01*
X-446790Y-484810D01*
X-446790Y-469570D01*
X-431550Y-454330D01*
X-370590Y-454330D01*
X-355350Y-469570D01*
X-309630Y-454330D02*
X-248670Y-454330D01*
X-279150Y-454330D02*
X-279150Y-545770D01*
X-309630Y-545770D02*
X-248670Y-545770D01*
X-202950Y-454330D02*
X-111510Y-454330D01*
X-202950Y-545770D01*
X-111510Y-545770D01*
X+10410Y-545770D02*
X-81030Y-545770D01*
X-81030Y-454330D01*
X+10410Y-454330D01*
X-81030Y-500050D02*
X-20070Y-500050D01*
X+467610Y-545770D02*
X+467610Y-454330D01*
X+543810Y-454330D01*
X+559050Y-469570D01*
X+559050Y-484810D01*
X+543810Y-500050D01*
X+467610Y-500050D01*
X+589530Y-454330D02*
X+589530Y-545770D01*
X+680970Y-545770D01*
X+711450Y-545770D02*
X+711450Y-484810D01*
X+741930Y-454330D01*
X+772410Y-454330D01*
X+802890Y-484810D01*
X+802890Y-545770D01*
X+711450Y-515290D02*
X+802890Y-515290D01*
X+833370Y-454330D02*
X+924810Y-454330D01*
X+879090Y-454330D02*
X+879090Y-545770D01*
X+1046730Y-545770D02*
X+955290Y-545770D01*
X+955290Y-454330D01*
X+1046730Y-454330D01*
X+955290Y-500050D02*
X+1016250Y-500050D01*
X+1077210Y-545770D02*
X+1077210Y-454330D01*
X+1138170Y-454330D01*
X+1168650Y-484810D01*
X+1168650Y-515290D01*
X+1138170Y-545770D01*
X+1077210Y-545770D01*
X+1300730Y-484810D02*
X+1331210Y-454330D01*
X+1361690Y-454330D01*
X+1392170Y-484810D01*
X+1392170Y-515290D01*
X+1361690Y-545770D01*
X+1331210Y-545770D01*
X+1300730Y-515290D01*
X+1300730Y-484810D01*
X+1361690Y-515290D02*
X+1392170Y-545770D01*
X+1422650Y-454330D02*
X+1514090Y-454330D01*
X+1468370Y-454330D02*
X+1468370Y-545770D01*
X+1636010Y-454330D02*
X+1544570Y-545770D01*
X+1544570Y-454330D02*
X+1590290Y-500050D01*
D22*
X-724920Y-690550D02*
X-724920Y-817550D01*
X-788420Y-754050D02*
X-661420Y-754050D01*
D47*
X-427740Y-779450D02*
X-427740Y-728650D01*
X-415040Y-715950D01*
X-364240Y-715950D01*
X-351540Y-728650D01*
X-351540Y-779450D01*
X-364240Y-792150D01*
X-415040Y-792150D01*
X-427740Y-779450D01*
X-427740Y-792150D02*
X-351540Y-715950D01*
X-288040Y-779450D02*
X-275340Y-779450D01*
X-275340Y-792150D01*
X-288040Y-792150D01*
X-288040Y-779450D01*
X-211840Y-728650D02*
X-199140Y-715950D01*
X-161040Y-715950D01*
X-148340Y-728650D01*
X-148340Y-741350D01*
X-161040Y-754050D01*
X-148340Y-766750D01*
X-148340Y-779450D01*
X-161040Y-792150D01*
X-199140Y-792150D01*
X-211840Y-779450D01*
X-186440Y-754050D02*
X-161040Y-754050D01*
X-97540Y-754050D02*
X-110240Y-741350D01*
X-110240Y-728650D01*
X-97540Y-715950D01*
X-59440Y-715950D01*
X-46740Y-728650D01*
X-46740Y-741350D01*
X-59440Y-754050D01*
X-97540Y-754050D01*
X-110240Y-766750D01*
X-110240Y-779450D01*
X-97540Y-792150D01*
X-59440Y-792150D01*
X-46740Y-779450D01*
X-46740Y-766750D01*
X-59440Y-754050D01*
X+4060Y-741350D02*
X+29460Y-715950D01*
X+29460Y-792150D01*
X+80260Y-792150D02*
X+80260Y-741350D01*
X+80260Y-754050D02*
X+92960Y-741350D01*
X+118360Y-766750D01*
X+143760Y-741350D01*
X+156460Y-754050D01*
X+156460Y-792150D01*
X+181860Y-792150D02*
X+181860Y-741350D01*
X+181860Y-754050D02*
X+194560Y-741350D01*
X+219960Y-766750D01*
X+245360Y-741350D01*
X+258060Y-754050D01*
X+258060Y-792150D01*
X+575560Y-715950D02*
X+499360Y-792150D01*
X+499360Y-715950D02*
X+537460Y-754050D01*
X+677160Y-792150D02*
X+600960Y-792150D01*
X+600960Y-715950D01*
X+677160Y-715950D01*
X+600960Y-754050D02*
X+651760Y-754050D01*
X+702560Y-779450D02*
X+715260Y-792150D01*
X+766060Y-792150D01*
X+778760Y-779450D01*
X+778760Y-766750D01*
X+766060Y-754050D01*
X+715260Y-754050D01*
X+702560Y-741350D01*
X+702560Y-728650D01*
X+715260Y-715950D01*
X+766060Y-715950D01*
X+778760Y-728650D01*
X+1370580Y-741350D02*
X+1395980Y-715950D01*
X+1395980Y-792150D01*
X+1446780Y-779450D02*
X+1446780Y-728650D01*
X+1459480Y-715950D01*
X+1510280Y-715950D01*
X+1522980Y-728650D01*
X+1522980Y-779450D01*
X+1510280Y-792150D01*
X+1459480Y-792150D01*
X+1446780Y-779450D01*
X+1446780Y-792150D02*
X+1522980Y-715950D01*
D22*
X-769821Y-950449D02*
X-680019Y-1040251D01*
X-769821Y-1040251D02*
X-680019Y-950449D01*
D47*
X-427740Y-1020750D02*
X-427740Y-969950D01*
X-415040Y-957250D01*
X-364240Y-957250D01*
X-351540Y-969950D01*
X-351540Y-1020750D01*
X-364240Y-1033450D01*
X-415040Y-1033450D01*
X-427740Y-1020750D01*
X-427740Y-1033450D02*
X-351540Y-957250D01*
X-288040Y-1020750D02*
X-275340Y-1020750D01*
X-275340Y-1033450D01*
X-288040Y-1033450D01*
X-288040Y-1020750D01*
X-211840Y-957250D02*
X-148340Y-957250D01*
X-148340Y-969950D01*
X-211840Y-1033450D01*
X-46740Y-969950D02*
X-59440Y-957250D01*
X-97540Y-957250D01*
X-110240Y-969950D01*
X-110240Y-1020750D01*
X-97540Y-1033450D01*
X-59440Y-1033450D01*
X-46740Y-1020750D01*
X-46740Y-1008050D01*
X-59440Y-995350D01*
X-110240Y-995350D01*
X-8640Y-969950D02*
X+4060Y-957250D01*
X+42160Y-957250D01*
X+54860Y-969950D01*
X+54860Y-982650D01*
X+42160Y-995350D01*
X+4060Y-995350D01*
X-8640Y-1008050D01*
X-8640Y-1033450D01*
X+54860Y-1033450D01*
X+80260Y-1033450D02*
X+80260Y-982650D01*
X+80260Y-995350D02*
X+92960Y-982650D01*
X+118360Y-1008050D01*
X+143760Y-982650D01*
X+156460Y-995350D01*
X+156460Y-1033450D01*
X+181860Y-1033450D02*
X+181860Y-982650D01*
X+181860Y-995350D02*
X+194560Y-982650D01*
X+219960Y-1008050D01*
X+245360Y-982650D01*
X+258060Y-995350D01*
X+258060Y-1033450D01*
X+575560Y-957250D02*
X+499360Y-1033450D01*
X+499360Y-957250D02*
X+537460Y-995350D01*
X+677160Y-1033450D02*
X+600960Y-1033450D01*
X+600960Y-957250D01*
X+677160Y-957250D01*
X+600960Y-995350D02*
X+651760Y-995350D01*
X+702560Y-1020750D02*
X+715260Y-1033450D01*
X+766060Y-1033450D01*
X+778760Y-1020750D01*
X+778760Y-1008050D01*
X+766060Y-995350D01*
X+715260Y-995350D01*
X+702560Y-982650D01*
X+702560Y-969950D01*
X+715260Y-957250D01*
X+766060Y-957250D01*
X+778760Y-969950D01*
X+1370580Y-982650D02*
X+1395980Y-957250D01*
X+1395980Y-1033450D01*
X+1459480Y-969950D02*
X+1472180Y-957250D01*
X+1510280Y-957250D01*
X+1522980Y-969950D01*
X+1522980Y-982650D01*
X+1510280Y-995350D01*
X+1472180Y-995350D01*
X+1459480Y-1008050D01*
X+1459480Y-1033450D01*
X+1522980Y-1033450D01*
D22*
X-724920Y-1173150D02*
X-724920Y-1300150D01*
X-788420Y-1236650D02*
X-661420Y-1236650D01*
X-769821Y-1191749D02*
X-680019Y-1281551D01*
X-769821Y-1281551D02*
X-680019Y-1191749D01*
D47*
X-402340Y-1223950D02*
X-376940Y-1198550D01*
X-376940Y-1274750D01*
X-288040Y-1262050D02*
X-275340Y-1262050D01*
X-275340Y-1274750D01*
X-288040Y-1274750D01*
X-288040Y-1262050D01*
X-224540Y-1262050D02*
X-224540Y-1211250D01*
X-211840Y-1198550D01*
X-161040Y-1198550D01*
X-148340Y-1211250D01*
X-148340Y-1262050D01*
X-161040Y-1274750D01*
X-211840Y-1274750D01*
X-224540Y-1262050D01*
X-224540Y-1274750D02*
X-148340Y-1198550D01*
X-97540Y-1223950D02*
X-72140Y-1198550D01*
X-72140Y-1274750D01*
X+54860Y-1211250D02*
X+42160Y-1198550D01*
X+4060Y-1198550D01*
X-8640Y-1211250D01*
X-8640Y-1262050D01*
X+4060Y-1274750D01*
X+42160Y-1274750D01*
X+54860Y-1262050D01*
X+54860Y-1249350D01*
X+42160Y-1236650D01*
X-8640Y-1236650D01*
X+80260Y-1274750D02*
X+80260Y-1223950D01*
X+80260Y-1236650D02*
X+92960Y-1223950D01*
X+118360Y-1249350D01*
X+143760Y-1223950D01*
X+156460Y-1236650D01*
X+156460Y-1274750D01*
X+181860Y-1274750D02*
X+181860Y-1223950D01*
X+181860Y-1236650D02*
X+194560Y-1223950D01*
X+219960Y-1249350D01*
X+245360Y-1223950D01*
X+258060Y-1236650D01*
X+258060Y-1274750D01*
X+575560Y-1198550D02*
X+499360Y-1274750D01*
X+499360Y-1198550D02*
X+537460Y-1236650D01*
X+677160Y-1274750D02*
X+600960Y-1274750D01*
X+600960Y-1198550D01*
X+677160Y-1198550D01*
X+600960Y-1236650D02*
X+651760Y-1236650D01*
X+702560Y-1262050D02*
X+715260Y-1274750D01*
X+766060Y-1274750D01*
X+778760Y-1262050D01*
X+778760Y-1249350D01*
X+766060Y-1236650D01*
X+715260Y-1236650D01*
X+702560Y-1223950D01*
X+702560Y-1211250D01*
X+715260Y-1198550D01*
X+766060Y-1198550D01*
X+778760Y-1211250D01*
X+1357880Y-1211250D02*
X+1370580Y-1198550D01*
X+1408680Y-1198550D01*
X+1421380Y-1211250D01*
X+1421380Y-1223950D01*
X+1408680Y-1236650D01*
X+1370580Y-1236650D01*
X+1357880Y-1249350D01*
X+1357880Y-1274750D01*
X+1421380Y-1274750D01*
X+1459480Y-1198550D02*
X+1522980Y-1198550D01*
X+1522980Y-1211250D01*
X+1459480Y-1274750D01*
D22*
X-661420Y-1477950D02*
X-661637Y-1472703D01*
X-663402Y-1462208D01*
X-667094Y-1451713D01*
X-673122Y-1441218D01*
X-682344Y-1430838D01*
X-692839Y-1423150D01*
X-703334Y-1418232D01*
X-713829Y-1415426D01*
X-724324Y-1414453D01*
X-724920Y-1414450D01*
X-788420Y-1477950D02*
X-788203Y-1472703D01*
X-786438Y-1462208D01*
X-782746Y-1451713D01*
X-776718Y-1441218D01*
X-767496Y-1430838D01*
X-757001Y-1423150D01*
X-746506Y-1418232D01*
X-736011Y-1415426D01*
X-725516Y-1414453D01*
X-724920Y-1414450D01*
X-788420Y-1477950D02*
X-788203Y-1483197D01*
X-786438Y-1493692D01*
X-782746Y-1504187D01*
X-776718Y-1514682D01*
X-767496Y-1525062D01*
X-757001Y-1532750D01*
X-746506Y-1537668D01*
X-736011Y-1540474D01*
X-725516Y-1541447D01*
X-724920Y-1541450D01*
X-661420Y-1477950D02*
X-661637Y-1483197D01*
X-663402Y-1493692D01*
X-667094Y-1504187D01*
X-673122Y-1514682D01*
X-682344Y-1525062D01*
X-692839Y-1532750D01*
X-703334Y-1537668D01*
X-713829Y-1540474D01*
X-724324Y-1541447D01*
X-724920Y-1541450D01*
X-724920Y-1414450D02*
X-724920Y-1541450D01*
X-788420Y-1477950D02*
X-661420Y-1477950D01*
D47*
X-415040Y-1452550D02*
X-402340Y-1439850D01*
X-364240Y-1439850D01*
X-351540Y-1452550D01*
X-351540Y-1465250D01*
X-364240Y-1477950D01*
X-402340Y-1477950D01*
X-415040Y-1490650D01*
X-415040Y-1516050D01*
X-351540Y-1516050D01*
X-288040Y-1503350D02*
X-275340Y-1503350D01*
X-275340Y-1516050D01*
X-288040Y-1516050D01*
X-288040Y-1503350D01*
X-148340Y-1465250D02*
X-161040Y-1477950D01*
X-199140Y-1477950D01*
X-211840Y-1465250D01*
X-211840Y-1452550D01*
X-199140Y-1439850D01*
X-161040Y-1439850D01*
X-148340Y-1452550D01*
X-148340Y-1503350D01*
X-161040Y-1516050D01*
X-199140Y-1516050D01*
X-46740Y-1465250D02*
X-59440Y-1477950D01*
X-97540Y-1477950D01*
X-110240Y-1465250D01*
X-110240Y-1452550D01*
X-97540Y-1439850D01*
X-59440Y-1439850D01*
X-46740Y-1452550D01*
X-46740Y-1503350D01*
X-59440Y-1516050D01*
X-97540Y-1516050D01*
X-8640Y-1439850D02*
X+54860Y-1439850D01*
X+54860Y-1452550D01*
X-8640Y-1516050D01*
X+92960Y-1452550D02*
X+105660Y-1439850D01*
X+143760Y-1439850D01*
X+156460Y-1452550D01*
X+156460Y-1465250D01*
X+143760Y-1477950D01*
X+105660Y-1477950D01*
X+92960Y-1490650D01*
X+92960Y-1516050D01*
X+156460Y-1516050D01*
X+181860Y-1516050D02*
X+181860Y-1465250D01*
X+181860Y-1477950D02*
X+194560Y-1465250D01*
X+219960Y-1490650D01*
X+245360Y-1465250D01*
X+258060Y-1477950D01*
X+258060Y-1516050D01*
X+283460Y-1516050D02*
X+283460Y-1465250D01*
X+283460Y-1477950D02*
X+296160Y-1465250D01*
X+321560Y-1490650D01*
X+346960Y-1465250D01*
X+359660Y-1477950D01*
X+359660Y-1516050D01*
X+575560Y-1439850D02*
X+499360Y-1516050D01*
X+499360Y-1439850D02*
X+537460Y-1477950D01*
X+677160Y-1516050D02*
X+600960Y-1516050D01*
X+600960Y-1439850D01*
X+677160Y-1439850D01*
X+600960Y-1477950D02*
X+651760Y-1477950D01*
X+702560Y-1503350D02*
X+715260Y-1516050D01*
X+766060Y-1516050D01*
X+778760Y-1503350D01*
X+778760Y-1490650D01*
X+766060Y-1477950D01*
X+715260Y-1477950D01*
X+702560Y-1465250D01*
X+702560Y-1452550D01*
X+715260Y-1439850D01*
X+766060Y-1439850D01*
X+778760Y-1452550D01*
X+1357880Y-1452550D02*
X+1370580Y-1439850D01*
X+1408680Y-1439850D01*
X+1421380Y-1452550D01*
X+1421380Y-1465250D01*
X+1408680Y-1477950D01*
X+1370580Y-1477950D01*
X+1357880Y-1490650D01*
X+1357880Y-1516050D01*
X+1421380Y-1516050D01*
D22*
X-661420Y-1719250D02*
X-661637Y-1714003D01*
X-663402Y-1703508D01*
X-667094Y-1693013D01*
X-673122Y-1682518D01*
X-682344Y-1672138D01*
X-692839Y-1664450D01*
X-703334Y-1659532D01*
X-713829Y-1656726D01*
X-724324Y-1655753D01*
X-724920Y-1655750D01*
X-788420Y-1719250D02*
X-788203Y-1714003D01*
X-786438Y-1703508D01*
X-782746Y-1693013D01*
X-776718Y-1682518D01*
X-767496Y-1672138D01*
X-757001Y-1664450D01*
X-746506Y-1659532D01*
X-736011Y-1656726D01*
X-725516Y-1655753D01*
X-724920Y-1655750D01*
X-788420Y-1719250D02*
X-788203Y-1724497D01*
X-786438Y-1734992D01*
X-782746Y-1745487D01*
X-776718Y-1755982D01*
X-767496Y-1766362D01*
X-757001Y-1774050D01*
X-746506Y-1778968D01*
X-736011Y-1781774D01*
X-725516Y-1782747D01*
X-724920Y-1782750D01*
X-661420Y-1719250D02*
X-661637Y-1724497D01*
X-663402Y-1734992D01*
X-667094Y-1745487D01*
X-673122Y-1755982D01*
X-682344Y-1766362D01*
X-692839Y-1774050D01*
X-703334Y-1778968D01*
X-713829Y-1781774D01*
X-724324Y-1782747D01*
X-724920Y-1782750D01*
X-769821Y-1674349D02*
X-680019Y-1764151D01*
X-769821Y-1764151D02*
X-680019Y-1674349D01*
D47*
X-415040Y-1693850D02*
X-402340Y-1681150D01*
X-364240Y-1681150D01*
X-351540Y-1693850D01*
X-351540Y-1706550D01*
X-364240Y-1719250D01*
X-351540Y-1731950D01*
X-351540Y-1744650D01*
X-364240Y-1757350D01*
X-402340Y-1757350D01*
X-415040Y-1744650D01*
X-389640Y-1719250D02*
X-364240Y-1719250D01*
X-288040Y-1744650D02*
X-275340Y-1744650D01*
X-275340Y-1757350D01*
X-288040Y-1757350D01*
X-288040Y-1744650D01*
X-211840Y-1693850D02*
X-199140Y-1681150D01*
X-161040Y-1681150D01*
X-148340Y-1693850D01*
X-148340Y-1706550D01*
X-161040Y-1719250D01*
X-199140Y-1719250D01*
X-211840Y-1731950D01*
X-211840Y-1757350D01*
X-148340Y-1757350D01*
X-122940Y-1757350D02*
X-122940Y-1706550D01*
X-122940Y-1719250D02*
X-110240Y-1706550D01*
X-84840Y-1731950D01*
X-59440Y-1706550D01*
X-46740Y-1719250D01*
X-46740Y-1757350D01*
X-21340Y-1757350D02*
X-21340Y-1706550D01*
X-21340Y-1719250D02*
X-8640Y-1706550D01*
X+16760Y-1731950D01*
X+42160Y-1706550D01*
X+54860Y-1719250D01*
X+54860Y-1757350D01*
X+575560Y-1681150D02*
X+499360Y-1757350D01*
X+499360Y-1681150D02*
X+537460Y-1719250D01*
X+677160Y-1757350D02*
X+600960Y-1757350D01*
X+600960Y-1681150D01*
X+677160Y-1681150D01*
X+600960Y-1719250D02*
X+651760Y-1719250D01*
X+702560Y-1744650D02*
X+715260Y-1757350D01*
X+766060Y-1757350D01*
X+778760Y-1744650D01*
X+778760Y-1731950D01*
X+766060Y-1719250D01*
X+715260Y-1719250D01*
X+702560Y-1706550D01*
X+702560Y-1693850D01*
X+715260Y-1681150D01*
X+766060Y-1681150D01*
X+778760Y-1693850D01*
X+1421380Y-1731950D02*
X+1345180Y-1731950D01*
X+1395980Y-1681150D01*
X+1395980Y-1757350D01*
M02*
