G04 PROTEUS RS274X GERBER FILE*
%FSLAX45Y45*%
%MOMM*%
G01*
%ADD19C,3.556000*%
%ADD32C,1.524000*%
%AMPPAD027*
4,1,36,
-1.016000,1.143000,
1.016000,1.143000,
1.041970,1.140470,
1.065980,1.133200,
1.087580,1.121650,
1.106290,1.106290,
1.121650,1.087570,
1.133200,1.065980,
1.140470,1.041970,
1.143000,1.016000,
1.143000,-1.016000,
1.140470,-1.041970,
1.133200,-1.065980,
1.121650,-1.087570,
1.106290,-1.106290,
1.087580,-1.121650,
1.065980,-1.133200,
1.041970,-1.140470,
1.016000,-1.143000,
-1.016000,-1.143000,
-1.041970,-1.140470,
-1.065980,-1.133200,
-1.087580,-1.121650,
-1.106290,-1.106290,
-1.121650,-1.087570,
-1.133200,-1.065980,
-1.140470,-1.041970,
-1.143000,-1.016000,
-1.143000,1.016000,
-1.140470,1.041970,
-1.133200,1.065980,
-1.121650,1.087570,
-1.106290,1.106290,
-1.087580,1.121650,
-1.065980,1.133200,
-1.041970,1.140470,
-1.016000,1.143000,
0*%
%ADD33PPAD027*%
%AMPPAD028*
4,1,36,
1.143000,1.016000,
1.143000,-1.016000,
1.140470,-1.041970,
1.133200,-1.065980,
1.121650,-1.087580,
1.106290,-1.106290,
1.087570,-1.121650,
1.065980,-1.133200,
1.041970,-1.140470,
1.016000,-1.143000,
-1.016000,-1.143000,
-1.041970,-1.140470,
-1.065980,-1.133200,
-1.087570,-1.121650,
-1.106290,-1.106290,
-1.121650,-1.087580,
-1.133200,-1.065980,
-1.140470,-1.041970,
-1.143000,-1.016000,
-1.143000,1.016000,
-1.140470,1.041970,
-1.133200,1.065980,
-1.121650,1.087580,
-1.106290,1.106290,
-1.087570,1.121650,
-1.065980,1.133200,
-1.041970,1.140470,
-1.016000,1.143000,
1.016000,1.143000,
1.041970,1.140470,
1.065980,1.133200,
1.087570,1.121650,
1.106290,1.106290,
1.121650,1.087580,
1.133200,1.065980,
1.140470,1.041970,
1.143000,1.016000,
0*%
%ADD34PPAD028*%
%AMPPAD029*
4,1,36,
-0.444500,-0.571500,
0.444500,-0.571500,
0.470470,-0.568970,
0.494480,-0.561700,
0.516080,-0.550150,
0.534790,-0.534790,
0.550150,-0.516070,
0.561700,-0.494480,
0.568970,-0.470470,
0.571500,-0.444500,
0.571500,0.444500,
0.568970,0.470470,
0.561700,0.494480,
0.550150,0.516070,
0.534790,0.534790,
0.516080,0.550150,
0.494480,0.561700,
0.470470,0.568970,
0.444500,0.571500,
-0.444500,0.571500,
-0.470470,0.568970,
-0.494480,0.561700,
-0.516080,0.550150,
-0.534790,0.534790,
-0.550150,0.516070,
-0.561700,0.494480,
-0.568970,0.470470,
-0.571500,0.444500,
-0.571500,-0.444500,
-0.568970,-0.470470,
-0.561700,-0.494480,
-0.550150,-0.516070,
-0.534790,-0.534790,
-0.516080,-0.550150,
-0.494480,-0.561700,
-0.470470,-0.568970,
-0.444500,-0.571500,
0*%
%ADD35PPAD029*%
%ADD22C,0.203200*%
D19*
X+232660Y+648640D03*
X+232660Y+1969440D03*
D32*
X+1315560Y+1074260D03*
X+1565560Y+1074260D03*
X+1815560Y+1074260D03*
X+1815560Y+1674260D03*
X+1565560Y+1674260D03*
X+1315560Y+1674260D03*
D33*
X+1320000Y+2509040D03*
X+1574000Y+2509040D03*
X+1828000Y+2509040D03*
X+2082000Y+2509040D03*
X+2336000Y+2509040D03*
X+3836000Y+2509040D03*
X+3582000Y+2509040D03*
X+3328000Y+2509040D03*
X+3074000Y+2509040D03*
X+2820000Y+2509040D03*
X+2590000Y+119040D03*
X+2336000Y+119040D03*
X+2082000Y+119040D03*
X+1828000Y+119040D03*
X+1574000Y+119040D03*
X+1320000Y+119040D03*
X+3083500Y+119040D03*
X+3337500Y+119040D03*
D34*
X+5308500Y+1964040D03*
X+5308500Y+1710040D03*
X+5308500Y+1456040D03*
X+5308500Y+1202040D03*
X+5308500Y+948040D03*
X+5308500Y+694040D03*
D33*
X+3900000Y+680000D03*
X+3646000Y+680000D03*
X+3392000Y+680000D03*
D32*
X+3400000Y+1080000D03*
X+3650000Y+1080000D03*
X+3900000Y+1080000D03*
X+3900000Y+1680000D03*
X+3650000Y+1680000D03*
X+3400000Y+1680000D03*
D35*
X+3727280Y+890000D03*
X+3900000Y+890000D03*
X+3462720Y+890000D03*
X+3290000Y+890000D03*
D22*
X+0Y+150000D02*
X+0Y+2470000D01*
X+250000Y+2720000D02*
X+5250000Y+2720000D01*
X+5500000Y+2470000D02*
X+5500000Y+150000D01*
X+5250000Y-100000D02*
X+250000Y-100000D01*
X+0Y+2470000D02*
X+4974Y+2521117D01*
X+19287Y+2568389D01*
X+42023Y+2610900D01*
X+72266Y+2647734D01*
X+109100Y+2677977D01*
X+151611Y+2700713D01*
X+198883Y+2715026D01*
X+250000Y+2720000D01*
X+0Y+150000D02*
X+4974Y+98883D01*
X+19287Y+51611D01*
X+42023Y+9100D01*
X+72266Y-27734D01*
X+109100Y-57977D01*
X+151611Y-80713D01*
X+198883Y-95026D01*
X+250000Y-100000D01*
X+5250000Y-100000D02*
X+5301117Y-95026D01*
X+5348389Y-80713D01*
X+5390900Y-57977D01*
X+5427734Y-27734D01*
X+5457977Y+9100D01*
X+5480713Y+51611D01*
X+5495026Y+98883D01*
X+5500000Y+150000D01*
X+5500000Y+2470000D02*
X+5495026Y+2521117D01*
X+5480713Y+2568389D01*
X+5457977Y+2610900D01*
X+5427734Y+2647734D01*
X+5390900Y+2677977D01*
X+5348389Y+2700713D01*
X+5301117Y+2715026D01*
X+5250000Y+2720000D01*
M02*
