M48
METRIC,TZ
T01C0.3810
T02C2.9970
T03C0.7620
T04C1.0160
T05C3.2000
%
T01
X+17697Y+6345
X+9942Y+10438
X+7770Y+16089
X+10275Y+19379
X+22960Y+13867
X+46289Y+20688
X+19900Y+16442
X+43400Y+18000
X+19923Y+13192
X+19175Y+12534
T02
X+2327Y+6486
X+2327Y+19694
T03
X+13156Y+10743
X+15656Y+10743
X+18156Y+10743
X+18156Y+16743
X+15656Y+16743
X+13156Y+16743
X+34000Y+10800
X+36500Y+10800
X+39000Y+10800
X+39000Y+16800
X+36500Y+16800
X+34000Y+16800
T04
X+13200Y+25090
X+15740Y+25090
X+18280Y+25090
X+20820Y+25090
X+23360Y+25090
X+38360Y+25090
X+35820Y+25090
X+33280Y+25090
X+30740Y+25090
X+28200Y+25090
X+25900Y+1190
X+23360Y+1190
X+20820Y+1190
X+18280Y+1190
X+15740Y+1190
X+13200Y+1190
X+30835Y+1190
X+33375Y+1190
X+53085Y+19640
X+53085Y+17100
X+53085Y+14560
X+53085Y+12020
X+53085Y+9480
X+53085Y+6940
X+39000Y+6800
X+36460Y+6800
X+33920Y+6800
T05
X+2200Y+1200
X+2200Y+25000
X+52800Y+25000
X+52800Y+1200
M30
