G04 PROTEUS RS274X GERBER FILE*
%FSLAX45Y45*%
%MOMM*%
G01*
%ADD10C,0.508000*%
%ADD11C,0.254000*%
%ADD12C,0.762000*%
%ADD13R,1.701800X0.457200*%
%ADD14R,1.473200X2.387600*%
%ADD15R,1.016000X1.270000*%
%ADD16R,0.990600X1.397000*%
%ADD17R,0.889000X0.889000*%
%ADD18R,2.997200X0.990600*%
%ADD19C,3.556000*%
%ADD70C,0.000000*%
%ADD71R,0.838200X0.508000*%
%ADD20C,1.270000*%
%ADD21R,2.032000X2.032000*%
%ADD22C,0.203200*%
G36*
X+5081901Y+2582055D02*
X+5081901Y+2417945D01*
X+5197945Y+2301901D01*
X+5362055Y+2301901D01*
X+5439040Y+2378886D01*
X+5439040Y+2103739D01*
X+5168801Y+2103739D01*
X+5168801Y+554341D01*
X+5439040Y+554341D01*
X+5439040Y+241114D01*
X+5362055Y+318099D01*
X+5197945Y+318099D01*
X+5081901Y+202055D01*
X+5081901Y+37945D01*
X+5158886Y-39040D01*
X+341114Y-39040D01*
X+418099Y+37945D01*
X+418099Y+202055D01*
X+302055Y+318099D01*
X+137945Y+318099D01*
X+60960Y+241114D01*
X+60960Y+515013D01*
X+143232Y+432741D01*
X+322088Y+432741D01*
X+448559Y+559212D01*
X+448559Y+738068D01*
X+322088Y+864539D01*
X+143232Y+864539D01*
X+60960Y+782267D01*
X+60960Y+1835813D01*
X+143232Y+1753541D01*
X+322088Y+1753541D01*
X+448559Y+1880012D01*
X+448559Y+2058868D01*
X+322088Y+2185339D01*
X+143232Y+2185339D01*
X+60960Y+2103067D01*
X+60960Y+2378886D01*
X+137945Y+2301901D01*
X+302055Y+2301901D01*
X+418099Y+2417945D01*
X+418099Y+2582055D01*
X+341114Y+2659040D01*
X+5158886Y+2659040D01*
X+5081901Y+2582055D01*
G37*
%LPC*%
G36*
X+2475699Y+2441181D02*
X+2499199Y+2417681D01*
X+2499199Y+1236399D01*
X+2270181Y+1007381D01*
X+2265429Y+1007381D01*
X+2265429Y+997221D01*
X+2019051Y+997221D01*
X+2019051Y+1007381D01*
X+1892364Y+1007381D01*
X+1857644Y+972661D01*
X+1773476Y+972661D01*
X+1713961Y+1032176D01*
X+1713961Y+1116344D01*
X+1773476Y+1175859D01*
X+1857644Y+1175859D01*
X+1917159Y+1116344D01*
X+1917159Y+1108979D01*
X+2019051Y+1108979D01*
X+2019051Y+1202381D01*
X+1974195Y+1202381D01*
X+1949036Y+1177222D01*
X+1885910Y+1177222D01*
X+1841274Y+1221858D01*
X+1841274Y+1284984D01*
X+1885910Y+1329620D01*
X+1916095Y+1329620D01*
X+1916095Y+1350770D01*
X+1960731Y+1395406D01*
X+2019051Y+1395406D01*
X+2019051Y+1527381D01*
X+1640599Y+1527381D01*
X+1595319Y+1572661D01*
X+1523476Y+1572661D01*
X+1463961Y+1632176D01*
X+1463961Y+1716344D01*
X+1523476Y+1775859D01*
X+1607644Y+1775859D01*
X+1667159Y+1716344D01*
X+1667159Y+1644501D01*
X+1682681Y+1628979D01*
X+1717158Y+1628979D01*
X+1713961Y+1632176D01*
X+1713961Y+1716344D01*
X+1773476Y+1775859D01*
X+1857644Y+1775859D01*
X+1917159Y+1716344D01*
X+1917159Y+1679110D01*
X+1958437Y+1720388D01*
X+2021563Y+1720388D01*
X+2037812Y+1704139D01*
X+2228560Y+1704139D01*
X+2228560Y+2206788D01*
X+2128353Y+2206788D01*
X+2087589Y+2247552D01*
X+1898241Y+2247552D01*
X+1858154Y+2287639D01*
X+1661361Y+2287639D01*
X+1620314Y+2328686D01*
X+1428514Y+2328686D01*
X+1387859Y+2369341D01*
X+1180301Y+2369341D01*
X+1180301Y+2648739D01*
X+2475699Y+2648739D01*
X+2475699Y+2441181D01*
G37*
G36*
X+3975699Y+2369341D02*
X+3757401Y+2369341D01*
X+3711298Y+2323238D01*
X+3514060Y+2323238D01*
X+3478216Y+2287394D01*
X+3302124Y+2287394D01*
X+3247178Y+2232448D01*
X+3247178Y+1708555D01*
X+2961532Y+1422908D01*
X+3052919Y+1331521D01*
X+3052919Y+334384D01*
X+3087910Y+299393D01*
X+3217693Y+299393D01*
X+3258347Y+258739D01*
X+3477199Y+258739D01*
X+3477199Y-20659D01*
X+2943801Y-20659D01*
X+2943801Y+186899D01*
X+2908141Y+222559D01*
X+2908141Y+997221D01*
X+2750276Y+997221D01*
X+2728597Y+975542D01*
X+2728597Y+258739D01*
X+2729699Y+258739D01*
X+2729699Y-20659D01*
X+1180301Y-20659D01*
X+1180301Y+258739D01*
X+1895859Y+258739D01*
X+1936456Y+299336D01*
X+2135299Y+299336D01*
X+2178539Y+342576D01*
X+2384179Y+342576D01*
X+2422296Y+380693D01*
X+2498853Y+380693D01*
X+2505080Y+386920D01*
X+2505080Y+1085064D01*
X+2709051Y+1289035D01*
X+2709051Y+1704139D01*
X+2919502Y+1704139D01*
X+3023201Y+1807838D01*
X+3023201Y+2369341D01*
X+2680301Y+2369341D01*
X+2680301Y+2648739D01*
X+3975699Y+2648739D01*
X+3975699Y+2369341D01*
G37*
G36*
X+4609241Y+626521D02*
X+4609241Y+941479D01*
X+4832759Y+941479D01*
X+4832759Y+626521D01*
X+4609241Y+626521D01*
G37*
G36*
X+4451759Y+1642521D02*
X+4228241Y+1642521D01*
X+4228241Y+1957479D01*
X+4451759Y+1957479D01*
X+4451759Y+1642521D01*
G37*
G36*
X+4809229Y+1986291D02*
X+4777479Y+1986291D01*
X+4777479Y+1957479D01*
X+4832759Y+1957479D01*
X+4832759Y+1642521D01*
X+4609241Y+1642521D01*
X+4609241Y+1957479D01*
X+4675881Y+1957479D01*
X+4675881Y+1986291D01*
X+4644131Y+1986291D01*
X+4644131Y+1992641D01*
X+4636509Y+1992641D01*
X+4636509Y+1986291D01*
X+4471411Y+1986291D01*
X+4471411Y+2151389D01*
X+4636509Y+2151389D01*
X+4636509Y+2145039D01*
X+4644131Y+2145039D01*
X+4644131Y+2151389D01*
X+4809229Y+2151389D01*
X+4809229Y+1986291D01*
G37*
G36*
X+4228241Y+626521D02*
X+4228241Y+941479D01*
X+4451759Y+941479D01*
X+4451759Y+626521D01*
X+4228241Y+626521D01*
G37*
G36*
X+1958559Y+532861D02*
X+1780761Y+532861D01*
X+1780761Y+558261D01*
X+1745199Y+558261D01*
X+1745199Y+532861D01*
X+1567401Y+532861D01*
X+1567401Y+736059D01*
X+1745199Y+736059D01*
X+1745199Y+710659D01*
X+1780761Y+710659D01*
X+1780761Y+736059D01*
X+1958559Y+736059D01*
X+1958559Y+532861D01*
G37*
G36*
X+1192369Y+1829911D02*
X+1017111Y+1829911D01*
X+1017111Y+1861661D01*
X+1012369Y+1861661D01*
X+1012369Y+1829911D01*
X+957419Y+1829911D01*
X+957419Y+1824829D01*
X+989169Y+1824829D01*
X+989169Y+1659731D01*
X+834009Y+1659731D01*
X+836551Y+1657189D01*
X+989169Y+1657189D01*
X+989169Y+1492091D01*
X+957419Y+1492091D01*
X+957419Y+1491589D01*
X+989829Y+1491589D01*
X+989829Y+1326491D01*
X+824731Y+1326491D01*
X+824731Y+1358241D01*
X+727959Y+1358241D01*
X+727959Y+1321411D01*
X+352041Y+1321411D01*
X+352041Y+1496669D01*
X+727959Y+1496669D01*
X+727959Y+1459839D01*
X+824731Y+1459839D01*
X+824731Y+1491589D01*
X+855821Y+1491589D01*
X+855821Y+1492091D01*
X+824071Y+1492091D01*
X+824071Y+1548203D01*
X+808605Y+1532737D01*
X+745479Y+1532737D01*
X+732675Y+1545541D01*
X+727959Y+1545541D01*
X+727959Y+1521411D01*
X+352041Y+1521411D01*
X+352041Y+1696669D01*
X+727959Y+1696669D01*
X+727959Y+1672539D01*
X+732883Y+1672539D01*
X+745479Y+1685135D01*
X+808605Y+1685135D01*
X+824071Y+1669669D01*
X+824071Y+1824829D01*
X+855821Y+1824829D01*
X+855821Y+1829911D01*
X+837111Y+1829911D01*
X+837111Y+2045809D01*
X+1012369Y+2045809D01*
X+1012369Y+2014059D01*
X+1017111Y+2014059D01*
X+1017111Y+2045809D01*
X+1192369Y+2045809D01*
X+1192369Y+1829911D01*
G37*
G36*
X+996791Y+1824829D02*
X+1161889Y+1824829D01*
X+1161889Y+1659731D01*
X+996791Y+1659731D01*
X+996791Y+1824829D01*
G37*
G36*
X+727959Y+1259839D02*
X+814731Y+1259839D01*
X+814731Y+1291589D01*
X+979829Y+1291589D01*
X+979829Y+1126491D01*
X+947259Y+1126491D01*
X+947259Y+1126329D01*
X+979009Y+1126329D01*
X+979009Y+1119979D01*
X+986631Y+1119979D01*
X+986631Y+1126329D01*
X+1151729Y+1126329D01*
X+1151729Y+961231D01*
X+986631Y+961231D01*
X+986631Y+967581D01*
X+979009Y+967581D01*
X+979009Y+961231D01*
X+844539Y+961231D01*
X+844539Y+939496D01*
X+857096Y+926939D01*
X+995869Y+926939D01*
X+995869Y+799941D01*
X+804494Y+799941D01*
X+717541Y+886894D01*
X+717541Y+921411D01*
X+352041Y+921411D01*
X+352041Y+1096669D01*
X+727959Y+1096669D01*
X+727959Y+1071719D01*
X+770361Y+1071719D01*
X+813911Y+1028169D01*
X+813911Y+1126329D01*
X+845661Y+1126329D01*
X+845661Y+1126491D01*
X+814731Y+1126491D01*
X+814731Y+1158241D01*
X+727959Y+1158241D01*
X+727959Y+1121411D01*
X+352041Y+1121411D01*
X+352041Y+1296669D01*
X+727959Y+1296669D01*
X+727959Y+1259839D01*
G37*
G36*
X+1255869Y+799941D02*
X+1239359Y+799941D01*
X+1239359Y+700879D01*
X+1255869Y+700879D01*
X+1255869Y+573881D01*
X+1095851Y+573881D01*
X+1095851Y+700879D01*
X+1112361Y+700879D01*
X+1112361Y+799941D01*
X+1095851Y+799941D01*
X+1095851Y+926939D01*
X+1255869Y+926939D01*
X+1255869Y+799941D01*
G37*
G36*
X+835851Y+573881D02*
X+835851Y+700879D01*
X+995869Y+700879D01*
X+995869Y+573881D01*
X+835851Y+573881D01*
G37*
G36*
X+1152549Y+1259839D02*
X+1451821Y+1259839D01*
X+1535801Y+1175859D01*
X+1607644Y+1175859D01*
X+1667159Y+1116344D01*
X+1667159Y+1032176D01*
X+1607644Y+972661D01*
X+1523476Y+972661D01*
X+1463961Y+1032176D01*
X+1463961Y+1104019D01*
X+1409739Y+1158241D01*
X+1375262Y+1158241D01*
X+1417159Y+1116344D01*
X+1417159Y+1032176D01*
X+1357644Y+972661D01*
X+1273476Y+972661D01*
X+1213961Y+1032176D01*
X+1213961Y+1116344D01*
X+1255858Y+1158241D01*
X+1152549Y+1158241D01*
X+1152549Y+1126491D01*
X+987451Y+1126491D01*
X+987451Y+1291589D01*
X+1152549Y+1291589D01*
X+1152549Y+1259839D01*
G37*
G36*
X+1417159Y+1716344D02*
X+1417159Y+1632176D01*
X+1366359Y+1581376D01*
X+1366359Y+1490099D01*
X+1234501Y+1358241D01*
X+1162549Y+1358241D01*
X+1162549Y+1326491D01*
X+997451Y+1326491D01*
X+997451Y+1491589D01*
X+1162549Y+1491589D01*
X+1162549Y+1459839D01*
X+1192419Y+1459839D01*
X+1264761Y+1532181D01*
X+1264761Y+1581376D01*
X+1213961Y+1632176D01*
X+1213961Y+1716344D01*
X+1273476Y+1775859D01*
X+1357644Y+1775859D01*
X+1417159Y+1716344D01*
G37*
G36*
X+1161889Y+1492091D02*
X+996791Y+1492091D01*
X+996791Y+1657189D01*
X+1161889Y+1657189D01*
X+1161889Y+1492091D01*
G37*
G36*
X+3751599Y+1722084D02*
X+3751599Y+1637916D01*
X+3710799Y+1597116D01*
X+3710799Y+1218960D01*
X+3673438Y+1181599D01*
X+3692084Y+1181599D01*
X+3751599Y+1122084D01*
X+3751599Y+1037916D01*
X+3692084Y+978401D01*
X+3607916Y+978401D01*
X+3580799Y+1005518D01*
X+3580799Y+819699D01*
X+3859201Y+819699D01*
X+3859201Y+978401D01*
X+3857916Y+978401D01*
X+3798401Y+1037916D01*
X+3798401Y+1122084D01*
X+3857916Y+1181599D01*
X+3942084Y+1181599D01*
X+4001599Y+1122084D01*
X+4001599Y+1037916D01*
X+3960799Y+997116D01*
X+3960799Y+819699D01*
X+4039699Y+819699D01*
X+4039699Y+540301D01*
X+3252301Y+540301D01*
X+3252301Y+819699D01*
X+3459859Y+819699D01*
X+3479201Y+839041D01*
X+3479201Y+1015518D01*
X+3442084Y+978401D01*
X+3357916Y+978401D01*
X+3298401Y+1037916D01*
X+3298401Y+1122084D01*
X+3357916Y+1181599D01*
X+3442084Y+1181599D01*
X+3485921Y+1137762D01*
X+3609201Y+1261042D01*
X+3609201Y+1578401D01*
X+3607916Y+1578401D01*
X+3548401Y+1637916D01*
X+3548401Y+1722084D01*
X+3607916Y+1781599D01*
X+3692084Y+1781599D01*
X+3751599Y+1722084D01*
G37*
G36*
X+3798401Y+1637916D02*
X+3798401Y+1722084D01*
X+3857916Y+1781599D01*
X+3942084Y+1781599D01*
X+4001599Y+1722084D01*
X+4001599Y+1637916D01*
X+3942084Y+1578401D01*
X+3857916Y+1578401D01*
X+3798401Y+1637916D01*
G37*
G36*
X+3298401Y+1637916D02*
X+3298401Y+1722084D01*
X+3357916Y+1781599D01*
X+3442084Y+1781599D01*
X+3501599Y+1722084D01*
X+3501599Y+1637916D01*
X+3442084Y+1578401D01*
X+3357916Y+1578401D01*
X+3298401Y+1637916D01*
G37*
%LPD*%
D10*
X+1869660Y+634460D02*
X+1769660Y+634460D01*
D11*
X+540000Y+1409040D02*
X+907280Y+1409040D01*
X+906620Y+1574640D02*
X+906620Y+1409700D01*
X+907280Y+1409040D01*
X+896460Y+1043780D02*
X+896460Y+1208880D01*
X+896620Y+1209040D01*
X+899000Y+1211420D01*
X+897280Y+1209040D01*
X+540000Y+1209040D02*
X+896620Y+1209040D01*
X+897280Y+1209040D01*
X+1069180Y+1043780D02*
X+994230Y+1043780D01*
D10*
X+540000Y+1609040D02*
X+776938Y+1609040D01*
X+777042Y+1608936D01*
X+915860Y+863440D02*
X+830795Y+863440D01*
X+781040Y+913195D01*
X+781040Y+971240D01*
X+744060Y+1008220D01*
X+540820Y+1008220D01*
X+540000Y+1009040D01*
X+1175860Y+863440D02*
X+1175860Y+637380D01*
D11*
X+1080000Y+1409040D02*
X+1213460Y+1409040D01*
X+1315560Y+1511140D01*
X+1315560Y+1674260D01*
X+1070000Y+1209040D02*
X+1430780Y+1209040D01*
X+1565560Y+1074260D01*
X+906620Y+1742280D02*
X+906620Y+1919740D01*
X+924740Y+1937860D01*
X+1104740Y+1937860D02*
X+1027549Y+1937860D01*
X+2142240Y+1058180D02*
X+1831640Y+1058180D01*
X+1815560Y+1074260D01*
X+2142240Y+1578180D02*
X+2057742Y+1578180D01*
X+1661640Y+1578180D01*
X+1565560Y+1674260D01*
X+2142240Y+1383180D02*
X+2292458Y+1383180D01*
X+2296024Y+1386746D01*
X+2142240Y+1253180D02*
X+1917714Y+1253180D01*
X+1917473Y+1253421D01*
X+2142240Y+1318180D02*
X+1993321Y+1318180D01*
X+1992294Y+1319207D01*
X+4553960Y+2068840D02*
X+4628909Y+2068840D01*
X+2142240Y+1643180D02*
X+1991009Y+1643180D01*
X+1990000Y+1644189D01*
X+2832240Y+1058180D02*
X+2739395Y+1058180D01*
X+2677798Y+996583D01*
X+2677798Y+206838D01*
X+2590000Y+119040D01*
X+2832240Y+1123180D02*
X+2746945Y+1123180D01*
X+2637129Y+1013364D01*
X+2637129Y+296724D01*
X+2589027Y+248622D01*
X+2476939Y+248622D01*
X+2347357Y+119040D01*
X+2336000Y+119040D01*
X+2832240Y+1188180D02*
X+2745650Y+1188180D01*
X+2596522Y+1039052D01*
X+2596522Y+335589D01*
X+2550173Y+289240D01*
X+2460111Y+289240D01*
X+2423795Y+252924D01*
X+2419431Y+248560D01*
X+2218000Y+248560D01*
X+2088480Y+119040D01*
X+2082000Y+119040D01*
X+2832240Y+1318180D02*
X+2930920Y+1318180D01*
X+2958940Y+1290160D01*
X+2958940Y+243600D01*
X+3083500Y+119040D01*
X+2832240Y+1383180D02*
X+2929420Y+1383180D01*
X+3002120Y+1310480D01*
X+3002120Y+313343D01*
X+3066868Y+248595D01*
X+3196651Y+248595D01*
X+3329291Y+115955D01*
X+3341021Y+115955D01*
X+3337500Y+119040D01*
X+4726680Y+2068840D02*
X+4726680Y+1805680D01*
X+4721000Y+1800000D01*
X+2832240Y+1253180D02*
X+2745036Y+1253180D01*
X+2555879Y+1064023D01*
X+2555879Y+365879D01*
X+2519894Y+329894D01*
X+2443337Y+329894D01*
X+2405220Y+291777D01*
X+2199580Y+291777D01*
X+2156340Y+248537D01*
X+1957497Y+248537D01*
X+1828000Y+119040D01*
X+3900000Y+1080000D02*
X+3910000Y+1080000D01*
X+3910000Y+690000D01*
X+3900000Y+680000D01*
X+3650000Y+1680000D02*
X+3660000Y+1680000D01*
X+3660000Y+1240001D01*
X+3530000Y+1110001D01*
X+3530000Y+818000D01*
X+3392000Y+680000D01*
X+2142240Y+1058180D02*
X+2249140Y+1058180D01*
X+2448400Y+1257440D01*
X+2448400Y+2396640D01*
X+2336000Y+2509040D01*
X+2142240Y+1123180D02*
X+2244141Y+1123180D01*
X+2405220Y+1284259D01*
X+2405220Y+2320899D01*
X+2346585Y+2379534D01*
X+2222900Y+2379534D01*
X+2088619Y+2513815D01*
X+2088619Y+2514250D01*
X+2082000Y+2509040D01*
X+2142240Y+1188180D02*
X+2239139Y+1188180D01*
X+2362040Y+1311081D01*
X+2362040Y+2298039D01*
X+2321155Y+2338924D01*
X+2200439Y+2338924D01*
X+2159814Y+2379549D01*
X+1952997Y+2379549D01*
X+1828000Y+2504546D01*
X+1828000Y+2509040D01*
X+2142240Y+1513180D02*
X+2227539Y+1513180D01*
X+2321400Y+1607041D01*
X+2321400Y+2270100D01*
X+2293255Y+2298245D01*
X+2176948Y+2298245D01*
X+2136236Y+2338957D01*
X+1936114Y+2338957D01*
X+1896031Y+2379040D01*
X+1704000Y+2379040D01*
X+1574000Y+2509040D01*
X+2142240Y+1578180D02*
X+2232508Y+1578180D01*
X+2279359Y+1625031D01*
X+2279359Y+2235941D01*
X+2257713Y+2257587D01*
X+2149394Y+2257587D01*
X+2108630Y+2298351D01*
X+1919282Y+2298351D01*
X+1879195Y+2338438D01*
X+1682402Y+2338438D01*
X+1641355Y+2379485D01*
X+1449555Y+2379485D01*
X+1320000Y+2509040D01*
X+2832240Y+1643180D02*
X+2930383Y+1643180D01*
X+3074000Y+1786797D01*
X+3074000Y+2509040D01*
X+2832240Y+1578180D02*
X+2922856Y+1578180D01*
X+3114645Y+1769969D01*
X+3114645Y+2295685D01*
X+3328000Y+2509040D01*
X+2832240Y+1513180D02*
X+2918485Y+1513180D01*
X+3155711Y+1750406D01*
X+3155711Y+2279337D01*
X+3255197Y+2378823D01*
X+3440367Y+2378823D01*
X+3570584Y+2509040D01*
X+3582000Y+2509040D01*
X+2832240Y+1448180D02*
X+2914963Y+1448180D01*
X+3196379Y+1729596D01*
X+3196379Y+2253489D01*
X+3281083Y+2338193D01*
X+3457175Y+2338193D01*
X+3493019Y+2374037D01*
X+3690257Y+2374037D01*
X+3825260Y+2509040D01*
X+3836000Y+2509040D01*
D12*
X+1769660Y+634460D03*
X+994230Y+1043780D03*
X+777042Y+1608936D03*
X+1027549Y+1937860D03*
X+2296024Y+1386746D03*
X+4628909Y+2068840D03*
X+1990000Y+1644189D03*
X+4340000Y+1800000D03*
X+1992294Y+1319207D03*
X+1917473Y+1253421D03*
D11*
X+5081901Y+2582055D02*
X+5081901Y+2417945D01*
X+5197945Y+2301901D01*
X+5362055Y+2301901D01*
X+5439040Y+2378886D01*
X+5439040Y+2103739D01*
X+5168801Y+2103739D01*
X+5168801Y+554341D01*
X+5439040Y+554341D01*
X+5439040Y+241114D01*
X+5362055Y+318099D01*
X+5197945Y+318099D01*
X+5081901Y+202055D01*
X+5081901Y+37945D01*
X+5158886Y-39040D01*
X+341114Y-39040D01*
X+418099Y+37945D01*
X+418099Y+202055D01*
X+302055Y+318099D01*
X+137945Y+318099D01*
X+60960Y+241114D01*
X+60960Y+515013D01*
X+143232Y+432741D01*
X+322088Y+432741D01*
X+448559Y+559212D01*
X+448559Y+738068D01*
X+322088Y+864539D01*
X+143232Y+864539D01*
X+60960Y+782267D01*
X+60960Y+1835813D01*
X+143232Y+1753541D01*
X+322088Y+1753541D01*
X+448559Y+1880012D01*
X+448559Y+2058868D01*
X+322088Y+2185339D01*
X+143232Y+2185339D01*
X+60960Y+2103067D01*
X+60960Y+2378886D01*
X+137945Y+2301901D01*
X+302055Y+2301901D01*
X+418099Y+2417945D01*
X+418099Y+2582055D01*
X+341114Y+2659040D01*
X+5158886Y+2659040D01*
X+5081901Y+2582055D01*
X+2475699Y+2441181D02*
X+2499199Y+2417681D01*
X+2499199Y+1236399D01*
X+2270181Y+1007381D01*
X+2265429Y+1007381D01*
X+2265429Y+997221D01*
X+2019051Y+997221D01*
X+2019051Y+1007381D01*
X+1892364Y+1007381D01*
X+1857644Y+972661D01*
X+1773476Y+972661D01*
X+1713961Y+1032176D01*
X+1713961Y+1116344D01*
X+1773476Y+1175859D01*
X+1857644Y+1175859D01*
X+1917159Y+1116344D01*
X+1917159Y+1108979D01*
X+2019051Y+1108979D01*
X+2019051Y+1202381D01*
X+1974195Y+1202381D01*
X+1949036Y+1177222D01*
X+1885910Y+1177222D01*
X+1841274Y+1221858D01*
X+1841274Y+1284984D01*
X+1885910Y+1329620D01*
X+1916095Y+1329620D01*
X+1916095Y+1350770D01*
X+1960731Y+1395406D01*
X+2019051Y+1395406D01*
X+2019051Y+1527381D01*
X+1640599Y+1527381D01*
X+1595319Y+1572661D01*
X+1523476Y+1572661D01*
X+1463961Y+1632176D01*
X+1463961Y+1716344D01*
X+1523476Y+1775859D01*
X+1607644Y+1775859D01*
X+1667159Y+1716344D01*
X+1667159Y+1644501D01*
X+1682681Y+1628979D01*
X+1717158Y+1628979D01*
X+1713961Y+1632176D01*
X+1713961Y+1716344D01*
X+1773476Y+1775859D01*
X+1857644Y+1775859D01*
X+1917159Y+1716344D01*
X+1917159Y+1679110D01*
X+1958437Y+1720388D01*
X+2021563Y+1720388D01*
X+2037812Y+1704139D01*
X+2228560Y+1704139D01*
X+2228560Y+2206788D01*
X+2128353Y+2206788D01*
X+2087589Y+2247552D01*
X+1898241Y+2247552D01*
X+1858154Y+2287639D01*
X+1661361Y+2287639D01*
X+1620314Y+2328686D01*
X+1428514Y+2328686D01*
X+1387859Y+2369341D01*
X+1180301Y+2369341D01*
X+1180301Y+2648739D01*
X+2475699Y+2648739D01*
X+2475699Y+2441181D01*
X+3975699Y+2369341D02*
X+3757401Y+2369341D01*
X+3711298Y+2323238D01*
X+3514060Y+2323238D01*
X+3478216Y+2287394D01*
X+3302124Y+2287394D01*
X+3247178Y+2232448D01*
X+3247178Y+1708555D01*
X+2961532Y+1422908D01*
X+3052919Y+1331521D01*
X+3052919Y+334384D01*
X+3087910Y+299393D01*
X+3217693Y+299393D01*
X+3258347Y+258739D01*
X+3477199Y+258739D01*
X+3477199Y-20659D01*
X+2943801Y-20659D01*
X+2943801Y+186899D01*
X+2908141Y+222559D01*
X+2908141Y+997221D01*
X+2750276Y+997221D01*
X+2728597Y+975542D01*
X+2728597Y+258739D01*
X+2729699Y+258739D01*
X+2729699Y-20659D01*
X+1180301Y-20659D01*
X+1180301Y+258739D01*
X+1895859Y+258739D01*
X+1936456Y+299336D01*
X+2135299Y+299336D01*
X+2178539Y+342576D01*
X+2384179Y+342576D01*
X+2422296Y+380693D01*
X+2498853Y+380693D01*
X+2505080Y+386920D01*
X+2505080Y+1085064D01*
X+2709051Y+1289035D01*
X+2709051Y+1704139D01*
X+2919502Y+1704139D01*
X+3023201Y+1807838D01*
X+3023201Y+2369341D01*
X+2680301Y+2369341D01*
X+2680301Y+2648739D01*
X+3975699Y+2648739D01*
X+3975699Y+2369341D01*
X+4609241Y+626521D02*
X+4609241Y+941479D01*
X+4832759Y+941479D01*
X+4832759Y+626521D01*
X+4609241Y+626521D01*
X+4451759Y+1642521D02*
X+4228241Y+1642521D01*
X+4228241Y+1957479D01*
X+4451759Y+1957479D01*
X+4451759Y+1642521D01*
X+4809229Y+1986291D02*
X+4777479Y+1986291D01*
X+4777479Y+1957479D01*
X+4832759Y+1957479D01*
X+4832759Y+1642521D01*
X+4609241Y+1642521D01*
X+4609241Y+1957479D01*
X+4675881Y+1957479D01*
X+4675881Y+1986291D01*
X+4644131Y+1986291D01*
X+4644131Y+1992641D01*
X+4636509Y+1992641D01*
X+4636509Y+1986291D01*
X+4471411Y+1986291D01*
X+4471411Y+2151389D01*
X+4636509Y+2151389D01*
X+4636509Y+2145039D01*
X+4644131Y+2145039D01*
X+4644131Y+2151389D01*
X+4809229Y+2151389D01*
X+4809229Y+1986291D01*
X+4228241Y+626521D02*
X+4228241Y+941479D01*
X+4451759Y+941479D01*
X+4451759Y+626521D01*
X+4228241Y+626521D01*
X+1958559Y+532861D02*
X+1780761Y+532861D01*
X+1780761Y+558261D01*
X+1745199Y+558261D01*
X+1745199Y+532861D01*
X+1567401Y+532861D01*
X+1567401Y+736059D01*
X+1745199Y+736059D01*
X+1745199Y+710659D01*
X+1780761Y+710659D01*
X+1780761Y+736059D01*
X+1958559Y+736059D01*
X+1958559Y+532861D01*
X+1192369Y+1829911D02*
X+1017111Y+1829911D01*
X+1017111Y+1861661D01*
X+1012369Y+1861661D01*
X+1012369Y+1829911D01*
X+957419Y+1829911D01*
X+957419Y+1824829D01*
X+989169Y+1824829D01*
X+989169Y+1659731D01*
X+834009Y+1659731D01*
X+836551Y+1657189D01*
X+989169Y+1657189D01*
X+989169Y+1492091D01*
X+957419Y+1492091D01*
X+957419Y+1491589D01*
X+989829Y+1491589D01*
X+989829Y+1326491D01*
X+824731Y+1326491D01*
X+824731Y+1358241D01*
X+727959Y+1358241D01*
X+727959Y+1321411D01*
X+352041Y+1321411D01*
X+352041Y+1496669D01*
X+727959Y+1496669D01*
X+727959Y+1459839D01*
X+824731Y+1459839D01*
X+824731Y+1491589D01*
X+855821Y+1491589D01*
X+855821Y+1492091D01*
X+824071Y+1492091D01*
X+824071Y+1548203D01*
X+808605Y+1532737D01*
X+745479Y+1532737D01*
X+732675Y+1545541D01*
X+727959Y+1545541D01*
X+727959Y+1521411D01*
X+352041Y+1521411D01*
X+352041Y+1696669D01*
X+727959Y+1696669D01*
X+727959Y+1672539D01*
X+732883Y+1672539D01*
X+745479Y+1685135D01*
X+808605Y+1685135D01*
X+824071Y+1669669D01*
X+824071Y+1824829D01*
X+855821Y+1824829D01*
X+855821Y+1829911D01*
X+837111Y+1829911D01*
X+837111Y+2045809D01*
X+1012369Y+2045809D01*
X+1012369Y+2014059D01*
X+1017111Y+2014059D01*
X+1017111Y+2045809D01*
X+1192369Y+2045809D01*
X+1192369Y+1829911D01*
X+996791Y+1824829D02*
X+1161889Y+1824829D01*
X+1161889Y+1659731D01*
X+996791Y+1659731D01*
X+996791Y+1824829D01*
X+727959Y+1259839D02*
X+814731Y+1259839D01*
X+814731Y+1291589D01*
X+979829Y+1291589D01*
X+979829Y+1126491D01*
X+947259Y+1126491D01*
X+947259Y+1126329D01*
X+979009Y+1126329D01*
X+979009Y+1119979D01*
X+986631Y+1119979D01*
X+986631Y+1126329D01*
X+1151729Y+1126329D01*
X+1151729Y+961231D01*
X+986631Y+961231D01*
X+986631Y+967581D01*
X+979009Y+967581D01*
X+979009Y+961231D01*
X+844539Y+961231D01*
X+844539Y+939496D01*
X+857096Y+926939D01*
X+995869Y+926939D01*
X+995869Y+799941D01*
X+804494Y+799941D01*
X+717541Y+886894D01*
X+717541Y+921411D01*
X+352041Y+921411D01*
X+352041Y+1096669D01*
X+727959Y+1096669D01*
X+727959Y+1071719D01*
X+770361Y+1071719D01*
X+813911Y+1028169D01*
X+813911Y+1126329D01*
X+845661Y+1126329D01*
X+845661Y+1126491D01*
X+814731Y+1126491D01*
X+814731Y+1158241D01*
X+727959Y+1158241D01*
X+727959Y+1121411D01*
X+352041Y+1121411D01*
X+352041Y+1296669D01*
X+727959Y+1296669D01*
X+727959Y+1259839D01*
X+1255869Y+799941D02*
X+1239359Y+799941D01*
X+1239359Y+700879D01*
X+1255869Y+700879D01*
X+1255869Y+573881D01*
X+1095851Y+573881D01*
X+1095851Y+700879D01*
X+1112361Y+700879D01*
X+1112361Y+799941D01*
X+1095851Y+799941D01*
X+1095851Y+926939D01*
X+1255869Y+926939D01*
X+1255869Y+799941D01*
X+835851Y+573881D02*
X+835851Y+700879D01*
X+995869Y+700879D01*
X+995869Y+573881D01*
X+835851Y+573881D01*
X+1152549Y+1259839D02*
X+1451821Y+1259839D01*
X+1535801Y+1175859D01*
X+1607644Y+1175859D01*
X+1667159Y+1116344D01*
X+1667159Y+1032176D01*
X+1607644Y+972661D01*
X+1523476Y+972661D01*
X+1463961Y+1032176D01*
X+1463961Y+1104019D01*
X+1409739Y+1158241D01*
X+1375262Y+1158241D01*
X+1417159Y+1116344D01*
X+1417159Y+1032176D01*
X+1357644Y+972661D01*
X+1273476Y+972661D01*
X+1213961Y+1032176D01*
X+1213961Y+1116344D01*
X+1255858Y+1158241D01*
X+1152549Y+1158241D01*
X+1152549Y+1126491D01*
X+987451Y+1126491D01*
X+987451Y+1291589D01*
X+1152549Y+1291589D01*
X+1152549Y+1259839D01*
X+1417159Y+1716344D02*
X+1417159Y+1632176D01*
X+1366359Y+1581376D01*
X+1366359Y+1490099D01*
X+1234501Y+1358241D01*
X+1162549Y+1358241D01*
X+1162549Y+1326491D01*
X+997451Y+1326491D01*
X+997451Y+1491589D01*
X+1162549Y+1491589D01*
X+1162549Y+1459839D01*
X+1192419Y+1459839D01*
X+1264761Y+1532181D01*
X+1264761Y+1581376D01*
X+1213961Y+1632176D01*
X+1213961Y+1716344D01*
X+1273476Y+1775859D01*
X+1357644Y+1775859D01*
X+1417159Y+1716344D01*
X+1161889Y+1492091D02*
X+996791Y+1492091D01*
X+996791Y+1657189D01*
X+1161889Y+1657189D01*
X+1161889Y+1492091D01*
X+3751599Y+1722084D02*
X+3751599Y+1637916D01*
X+3710799Y+1597116D01*
X+3710799Y+1218960D01*
X+3673438Y+1181599D01*
X+3692084Y+1181599D01*
X+3751599Y+1122084D01*
X+3751599Y+1037916D01*
X+3692084Y+978401D01*
X+3607916Y+978401D01*
X+3580799Y+1005518D01*
X+3580799Y+819699D01*
X+3859201Y+819699D01*
X+3859201Y+978401D01*
X+3857916Y+978401D01*
X+3798401Y+1037916D01*
X+3798401Y+1122084D01*
X+3857916Y+1181599D01*
X+3942084Y+1181599D01*
X+4001599Y+1122084D01*
X+4001599Y+1037916D01*
X+3960799Y+997116D01*
X+3960799Y+819699D01*
X+4039699Y+819699D01*
X+4039699Y+540301D01*
X+3252301Y+540301D01*
X+3252301Y+819699D01*
X+3459859Y+819699D01*
X+3479201Y+839041D01*
X+3479201Y+1015518D01*
X+3442084Y+978401D01*
X+3357916Y+978401D01*
X+3298401Y+1037916D01*
X+3298401Y+1122084D01*
X+3357916Y+1181599D01*
X+3442084Y+1181599D01*
X+3485921Y+1137762D01*
X+3609201Y+1261042D01*
X+3609201Y+1578401D01*
X+3607916Y+1578401D01*
X+3548401Y+1637916D01*
X+3548401Y+1722084D01*
X+3607916Y+1781599D01*
X+3692084Y+1781599D01*
X+3751599Y+1722084D01*
X+3798401Y+1637916D02*
X+3798401Y+1722084D01*
X+3857916Y+1781599D01*
X+3942084Y+1781599D01*
X+4001599Y+1722084D01*
X+4001599Y+1637916D01*
X+3942084Y+1578401D01*
X+3857916Y+1578401D01*
X+3798401Y+1637916D01*
X+3298401Y+1637916D02*
X+3298401Y+1722084D01*
X+3357916Y+1781599D01*
X+3442084Y+1781599D01*
X+3501599Y+1722084D01*
X+3501599Y+1637916D01*
X+3442084Y+1578401D01*
X+3357916Y+1578401D01*
X+3298401Y+1637916D01*
X+2019051Y+1448180D02*
X+2142240Y+1448180D01*
X+1567401Y+634460D02*
X+1656300Y+634460D01*
X+1656300Y+532861D02*
X+1656300Y+634460D01*
X+1656300Y+736059D02*
X+1656300Y+634460D01*
X+996791Y+1742280D02*
X+1079340Y+1742280D01*
X+1161889Y+1742280D02*
X+1079340Y+1742280D01*
X+1079340Y+1659731D02*
X+1079340Y+1742280D01*
X+1079340Y+1824829D02*
X+1079340Y+1742280D01*
X+915860Y+573881D02*
X+915860Y+637380D01*
X+915860Y+700879D02*
X+915860Y+637380D01*
X+995869Y+637380D02*
X+915860Y+637380D01*
X+835851Y+637380D02*
X+915860Y+637380D01*
X+1161889Y+1574640D02*
X+1079340Y+1574640D01*
X+996791Y+1574640D02*
X+1079340Y+1574640D01*
X+1079340Y+1657189D02*
X+1079340Y+1574640D01*
X+1079340Y+1492091D02*
X+1079340Y+1574640D01*
X+5308500Y+2103739D02*
X+5308500Y+1964040D01*
X+5168801Y+1964040D02*
X+5308500Y+1964040D01*
X+5168801Y+1710040D02*
X+5308500Y+1710040D01*
X+5168801Y+1456040D02*
X+5308500Y+1456040D01*
D13*
X+2142240Y+1643180D03*
X+2142240Y+1578180D03*
X+2142240Y+1513180D03*
X+2142240Y+1448180D03*
X+2142240Y+1383180D03*
X+2142240Y+1318180D03*
X+2142240Y+1253180D03*
X+2142240Y+1188180D03*
X+2142240Y+1123180D03*
X+2142240Y+1058180D03*
X+2832240Y+1058180D03*
X+2832240Y+1123180D03*
X+2832240Y+1188180D03*
X+2832240Y+1253180D03*
X+2832240Y+1318180D03*
X+2832240Y+1383180D03*
X+2832240Y+1448180D03*
X+2832240Y+1513180D03*
X+2832240Y+1578180D03*
X+2832240Y+1643180D03*
D14*
X+4721000Y+784000D03*
X+4340000Y+1800000D03*
X+4721000Y+1800000D03*
X+4340000Y+784000D03*
D15*
X+1656300Y+634460D03*
X+1869660Y+634460D03*
D16*
X+924740Y+1937860D03*
X+1104740Y+1937860D03*
D17*
X+906620Y+1742280D03*
X+1079340Y+1742280D03*
D18*
X+540000Y+1009040D03*
X+540000Y+1209040D03*
X+540000Y+1409040D03*
X+540000Y+1609040D03*
D19*
X+232660Y+648640D03*
D70*
X+232660Y+648640D03*
D19*
X+232660Y+1969440D03*
D70*
X+232660Y+1969440D03*
D71*
X+915860Y+863440D03*
X+1175860Y+863440D03*
X+1175860Y+637380D03*
X+915860Y+637380D03*
D20*
X+1315560Y+1074260D03*
X+1565560Y+1074260D03*
X+1815560Y+1074260D03*
X+1815560Y+1674260D03*
X+1565560Y+1674260D03*
X+1315560Y+1674260D03*
D17*
X+1070000Y+1209040D03*
X+897280Y+1209040D03*
X+1080000Y+1409040D03*
X+907280Y+1409040D03*
X+896460Y+1043780D03*
X+1069180Y+1043780D03*
X+1079340Y+1574640D03*
X+906620Y+1574640D03*
D21*
X+1320000Y+2509040D03*
X+1574000Y+2509040D03*
X+1828000Y+2509040D03*
X+2082000Y+2509040D03*
X+2336000Y+2509040D03*
X+3836000Y+2509040D03*
X+3582000Y+2509040D03*
X+3328000Y+2509040D03*
X+3074000Y+2509040D03*
X+2820000Y+2509040D03*
X+2590000Y+119040D03*
X+2336000Y+119040D03*
X+2082000Y+119040D03*
X+1828000Y+119040D03*
X+1574000Y+119040D03*
X+1320000Y+119040D03*
X+3083500Y+119040D03*
X+3337500Y+119040D03*
D17*
X+4726680Y+2068840D03*
X+4553960Y+2068840D03*
D21*
X+5308500Y+1964040D03*
X+5308500Y+1710040D03*
X+5308500Y+1456040D03*
X+5308500Y+1202040D03*
X+5308500Y+948040D03*
X+5308500Y+694040D03*
X+3900000Y+680000D03*
X+3646000Y+680000D03*
X+3392000Y+680000D03*
D20*
X+3400000Y+1080000D03*
X+3650000Y+1080000D03*
X+3900000Y+1080000D03*
X+3900000Y+1680000D03*
X+3650000Y+1680000D03*
X+3400000Y+1680000D03*
D22*
X+0Y+150000D02*
X+0Y+2470000D01*
X+250000Y+2720000D02*
X+5250000Y+2720000D01*
X+5500000Y+2470000D02*
X+5500000Y+150000D01*
X+5250000Y-100000D02*
X+250000Y-100000D01*
X+0Y+2470000D02*
X+4974Y+2521117D01*
X+19287Y+2568389D01*
X+42023Y+2610900D01*
X+72266Y+2647734D01*
X+109100Y+2677977D01*
X+151611Y+2700713D01*
X+198883Y+2715026D01*
X+250000Y+2720000D01*
X+0Y+150000D02*
X+4974Y+98883D01*
X+19287Y+51611D01*
X+42023Y+9100D01*
X+72266Y-27734D01*
X+109100Y-57977D01*
X+151611Y-80713D01*
X+198883Y-95026D01*
X+250000Y-100000D01*
X+5250000Y-100000D02*
X+5301117Y-95026D01*
X+5348389Y-80713D01*
X+5390900Y-57977D01*
X+5427734Y-27734D01*
X+5457977Y+9100D01*
X+5480713Y+51611D01*
X+5495026Y+98883D01*
X+5500000Y+150000D01*
X+5500000Y+2470000D02*
X+5495026Y+2521117D01*
X+5480713Y+2568389D01*
X+5457977Y+2610900D01*
X+5427734Y+2647734D01*
X+5390900Y+2677977D01*
X+5348389Y+2700713D01*
X+5301117Y+2715026D01*
X+5250000Y+2720000D01*
M02*
