G04 PROTEUS RS274X GERBER FILE*
%FSLAX45Y45*%
%MOMM*%
G01*
%ADD11C,0.254000*%
%ADD12C,0.762000*%
%ADD19C,3.556000*%
%ADD70C,0.000000*%
%ADD20C,1.270000*%
%ADD21R,2.032000X2.032000*%
%ADD17R,0.889000X0.889000*%
%ADD22C,0.203200*%
G36*
X+5081901Y+2582055D02*
X+5081901Y+2417945D01*
X+5197945Y+2301901D01*
X+5362055Y+2301901D01*
X+5439040Y+2378886D01*
X+5439040Y+2103739D01*
X+5168801Y+2103739D01*
X+5168801Y+554341D01*
X+5439040Y+554341D01*
X+5439040Y+241114D01*
X+5362055Y+318099D01*
X+5197945Y+318099D01*
X+5081901Y+202055D01*
X+5081901Y+37945D01*
X+5158886Y-39040D01*
X+341114Y-39040D01*
X+418099Y+37945D01*
X+418099Y+202055D01*
X+302055Y+318099D01*
X+137945Y+318099D01*
X+60960Y+241114D01*
X+60960Y+515013D01*
X+143232Y+432741D01*
X+322088Y+432741D01*
X+448559Y+559212D01*
X+448559Y+738068D01*
X+322088Y+864539D01*
X+143232Y+864539D01*
X+60960Y+782267D01*
X+60960Y+1835813D01*
X+143232Y+1753541D01*
X+322088Y+1753541D01*
X+448559Y+1880012D01*
X+448559Y+2058868D01*
X+322088Y+2185339D01*
X+143232Y+2185339D01*
X+60960Y+2103067D01*
X+60960Y+2378886D01*
X+137945Y+2301901D01*
X+302055Y+2301901D01*
X+418099Y+2417945D01*
X+418099Y+2582055D01*
X+341114Y+2659040D01*
X+5158886Y+2659040D01*
X+5081901Y+2582055D01*
G37*
%LPC*%
G36*
X+1213961Y+1032176D02*
X+1213961Y+1116344D01*
X+1273476Y+1175859D01*
X+1357644Y+1175859D01*
X+1417159Y+1116344D01*
X+1417159Y+1032176D01*
X+1357644Y+972661D01*
X+1273476Y+972661D01*
X+1213961Y+1032176D01*
G37*
G36*
X+1463961Y+1032176D02*
X+1463961Y+1116344D01*
X+1523476Y+1175859D01*
X+1607644Y+1175859D01*
X+1667159Y+1116344D01*
X+1667159Y+1032176D01*
X+1607644Y+972661D01*
X+1523476Y+972661D01*
X+1463961Y+1032176D01*
G37*
G36*
X+3501599Y+1722084D02*
X+3501599Y+1637916D01*
X+3450799Y+1587116D01*
X+3450799Y+1418959D01*
X+3352639Y+1320799D01*
X+3478858Y+1320799D01*
X+3618058Y+1181599D01*
X+3692084Y+1181599D01*
X+3751599Y+1122084D01*
X+3751599Y+1037916D01*
X+3692084Y+978401D01*
X+3607916Y+978401D01*
X+3548401Y+1037916D01*
X+3548401Y+1107576D01*
X+3436776Y+1219201D01*
X+2208960Y+1219201D01*
X+2159753Y+1268408D01*
X+2049257Y+1268408D01*
X+2043093Y+1262244D01*
X+2043093Y+582332D01*
X+1719500Y+258739D01*
X+2729699Y+258739D01*
X+2729699Y-20659D01*
X+1180301Y-20659D01*
X+1180301Y+258739D01*
X+1399176Y+258739D01*
X+1439817Y+299380D01*
X+1559051Y+299380D01*
X+1866674Y+607003D01*
X+1866674Y+981691D01*
X+1857644Y+972661D01*
X+1773476Y+972661D01*
X+1713961Y+1032176D01*
X+1713961Y+1116344D01*
X+1773476Y+1175859D01*
X+1857644Y+1175859D01*
X+1866674Y+1166829D01*
X+1866674Y+1196458D01*
X+1841274Y+1221858D01*
X+1841274Y+1284984D01*
X+1866674Y+1310384D01*
X+1866674Y+1358765D01*
X+1943957Y+1436048D01*
X+2224316Y+1436048D01*
X+2264274Y+1396090D01*
X+2264274Y+1399897D01*
X+2282873Y+1418496D01*
X+2309175Y+1418496D01*
X+2327774Y+1399897D01*
X+2327774Y+1373595D01*
X+2324978Y+1370799D01*
X+3258959Y+1370799D01*
X+3349201Y+1461041D01*
X+3349201Y+1587116D01*
X+3298401Y+1637916D01*
X+3298401Y+1722084D01*
X+3357916Y+1781599D01*
X+3442084Y+1781599D01*
X+3501599Y+1722084D01*
G37*
G36*
X+3975699Y+2369341D02*
X+3031539Y+2369341D01*
X+3438150Y+1962730D01*
X+4319110Y+1962730D01*
X+4390798Y+1891042D01*
X+4390798Y+1856964D01*
X+4416199Y+1831563D01*
X+4416199Y+1768437D01*
X+4371563Y+1723801D01*
X+4308437Y+1723801D01*
X+4263801Y+1768437D01*
X+4263801Y+1831563D01*
X+4285199Y+1852961D01*
X+4277028Y+1861132D01*
X+3396068Y+1861132D01*
X+2887859Y+2369341D01*
X+2716992Y+2369341D01*
X+2044801Y+1697150D01*
X+2066199Y+1675752D01*
X+2066199Y+1612626D01*
X+2021563Y+1567990D01*
X+1958437Y+1567990D01*
X+1913801Y+1612626D01*
X+1913801Y+1628818D01*
X+1857644Y+1572661D01*
X+1773476Y+1572661D01*
X+1713961Y+1632176D01*
X+1713961Y+1716344D01*
X+1773476Y+1775859D01*
X+1857644Y+1775859D01*
X+1917159Y+1716344D01*
X+1917159Y+1679110D01*
X+1939202Y+1701153D01*
X+1939202Y+1735231D01*
X+2680301Y+2476330D01*
X+2680301Y+2648739D01*
X+3975699Y+2648739D01*
X+3975699Y+2369341D01*
G37*
G36*
X+1463961Y+1632176D02*
X+1463961Y+1716344D01*
X+1523476Y+1775859D01*
X+1607644Y+1775859D01*
X+1667159Y+1716344D01*
X+1667159Y+1632176D01*
X+1607644Y+1572661D01*
X+1523476Y+1572661D01*
X+1463961Y+1632176D01*
G37*
G36*
X+1213961Y+1632176D02*
X+1213961Y+1716344D01*
X+1273476Y+1775859D01*
X+1357644Y+1775859D01*
X+1417159Y+1716344D01*
X+1417159Y+1632176D01*
X+1357644Y+1572661D01*
X+1273476Y+1572661D01*
X+1213961Y+1632176D01*
G37*
G36*
X+2475699Y+2369341D02*
X+1180301Y+2369341D01*
X+1180301Y+2648739D01*
X+2475699Y+2648739D01*
X+2475699Y+2369341D01*
G37*
G36*
X+3477199Y-20659D02*
X+2943801Y-20659D01*
X+2943801Y+258739D01*
X+3477199Y+258739D01*
X+3477199Y-20659D01*
G37*
G36*
X+3982549Y+819699D02*
X+4039699Y+819699D01*
X+4039699Y+540301D01*
X+3252301Y+540301D01*
X+3252301Y+807451D01*
X+3207451Y+807451D01*
X+3207451Y+972549D01*
X+3372549Y+972549D01*
X+3372549Y+819699D01*
X+3380171Y+819699D01*
X+3380171Y+972549D01*
X+3545269Y+972549D01*
X+3545269Y+819699D01*
X+3644731Y+819699D01*
X+3644731Y+972549D01*
X+3809829Y+972549D01*
X+3809829Y+882011D01*
X+3817451Y+874389D01*
X+3817451Y+972549D01*
X+3982549Y+972549D01*
X+3982549Y+819699D01*
G37*
G36*
X+3298401Y+1037916D02*
X+3298401Y+1122084D01*
X+3357916Y+1181599D01*
X+3442084Y+1181599D01*
X+3501599Y+1122084D01*
X+3501599Y+1037916D01*
X+3442084Y+978401D01*
X+3357916Y+978401D01*
X+3298401Y+1037916D01*
G37*
G36*
X+3798401Y+1037916D02*
X+3798401Y+1122084D01*
X+3857916Y+1181599D01*
X+3942084Y+1181599D01*
X+4001599Y+1122084D01*
X+4001599Y+1037916D01*
X+3942084Y+978401D01*
X+3857916Y+978401D01*
X+3798401Y+1037916D01*
G37*
G36*
X+3798401Y+1637916D02*
X+3798401Y+1722084D01*
X+3857916Y+1781599D01*
X+3942084Y+1781599D01*
X+4001599Y+1722084D01*
X+4001599Y+1637916D01*
X+3942084Y+1578401D01*
X+3857916Y+1578401D01*
X+3798401Y+1637916D01*
G37*
G36*
X+3548401Y+1637916D02*
X+3548401Y+1722084D01*
X+3607916Y+1781599D01*
X+3692084Y+1781599D01*
X+3751599Y+1722084D01*
X+3751599Y+1637916D01*
X+3692084Y+1578401D01*
X+3607916Y+1578401D01*
X+3548401Y+1637916D01*
G37*
G36*
X+1737910Y+621309D02*
X+1737910Y+647611D01*
X+1756509Y+666210D01*
X+1782811Y+666210D01*
X+1801410Y+647611D01*
X+1801410Y+621309D01*
X+1782811Y+602710D01*
X+1756509Y+602710D01*
X+1737910Y+621309D01*
G37*
G36*
X+962480Y+1030629D02*
X+962480Y+1056931D01*
X+981079Y+1075530D01*
X+1007381Y+1075530D01*
X+1025980Y+1056931D01*
X+1025980Y+1030629D01*
X+1007381Y+1012030D01*
X+981079Y+1012030D01*
X+962480Y+1030629D01*
G37*
G36*
X+745292Y+1595785D02*
X+745292Y+1622087D01*
X+763891Y+1640686D01*
X+790193Y+1640686D01*
X+808792Y+1622087D01*
X+808792Y+1595785D01*
X+790193Y+1577186D01*
X+763891Y+1577186D01*
X+745292Y+1595785D01*
G37*
G36*
X+995799Y+1924709D02*
X+995799Y+1951011D01*
X+1014398Y+1969610D01*
X+1040700Y+1969610D01*
X+1059299Y+1951011D01*
X+1059299Y+1924709D01*
X+1040700Y+1906110D01*
X+1014398Y+1906110D01*
X+995799Y+1924709D01*
G37*
G36*
X+4615758Y+2100590D02*
X+4642060Y+2100590D01*
X+4660659Y+2081991D01*
X+4660659Y+2055689D01*
X+4642060Y+2037090D01*
X+4615758Y+2037090D01*
X+4597159Y+2055689D01*
X+4597159Y+2081991D01*
X+4615758Y+2100590D01*
G37*
%LPD*%
D11*
X+1917473Y+1253421D02*
X+1917473Y+585962D01*
X+1580093Y+248582D01*
X+1460859Y+248582D01*
X+1331317Y+119040D01*
X+1320000Y+119040D01*
X+1992294Y+1319207D02*
X+1992294Y+1249207D01*
X+1992294Y+603373D01*
X+1574000Y+185079D01*
X+1574000Y+119040D01*
X+1992294Y+1319207D02*
X+2180794Y+1319207D01*
X+2230001Y+1270000D01*
X+3457817Y+1270000D01*
X+3586500Y+1141317D01*
X+3650000Y+1080000D01*
X+1917473Y+1253421D02*
X+1917473Y+1337724D01*
X+1964998Y+1385249D01*
X+2203275Y+1385249D01*
X+2268524Y+1320000D01*
X+3280000Y+1320000D01*
X+3400000Y+1440000D01*
X+3400000Y+1680000D01*
X+3727280Y+890000D02*
X+3730000Y+890000D01*
X+3900000Y+720000D01*
X+3900000Y+680000D01*
X+3462720Y+890000D02*
X+3460000Y+890000D01*
X+3460000Y+748000D01*
X+3392000Y+680000D01*
X+1990000Y+1644189D02*
X+1990000Y+1714189D01*
X+2784851Y+2509040D01*
X+2820000Y+2509040D01*
X+3417109Y+1911931D01*
X+4298069Y+1911931D01*
X+4340000Y+1870000D01*
X+4340000Y+1800000D01*
D12*
X+1769660Y+634460D03*
X+994230Y+1043780D03*
X+777042Y+1608936D03*
X+1027549Y+1937860D03*
X+2296024Y+1386746D03*
X+4628909Y+2068840D03*
X+1990000Y+1644189D03*
X+4340000Y+1800000D03*
X+1992294Y+1319207D03*
X+1917473Y+1253421D03*
D11*
X+5081901Y+2582055D02*
X+5081901Y+2417945D01*
X+5197945Y+2301901D01*
X+5362055Y+2301901D01*
X+5439040Y+2378886D01*
X+5439040Y+2103739D01*
X+5168801Y+2103739D01*
X+5168801Y+554341D01*
X+5439040Y+554341D01*
X+5439040Y+241114D01*
X+5362055Y+318099D01*
X+5197945Y+318099D01*
X+5081901Y+202055D01*
X+5081901Y+37945D01*
X+5158886Y-39040D01*
X+341114Y-39040D01*
X+418099Y+37945D01*
X+418099Y+202055D01*
X+302055Y+318099D01*
X+137945Y+318099D01*
X+60960Y+241114D01*
X+60960Y+515013D01*
X+143232Y+432741D01*
X+322088Y+432741D01*
X+448559Y+559212D01*
X+448559Y+738068D01*
X+322088Y+864539D01*
X+143232Y+864539D01*
X+60960Y+782267D01*
X+60960Y+1835813D01*
X+143232Y+1753541D01*
X+322088Y+1753541D01*
X+448559Y+1880012D01*
X+448559Y+2058868D01*
X+322088Y+2185339D01*
X+143232Y+2185339D01*
X+60960Y+2103067D01*
X+60960Y+2378886D01*
X+137945Y+2301901D01*
X+302055Y+2301901D01*
X+418099Y+2417945D01*
X+418099Y+2582055D01*
X+341114Y+2659040D01*
X+5158886Y+2659040D01*
X+5081901Y+2582055D01*
X+1213961Y+1032176D02*
X+1213961Y+1116344D01*
X+1273476Y+1175859D01*
X+1357644Y+1175859D01*
X+1417159Y+1116344D01*
X+1417159Y+1032176D01*
X+1357644Y+972661D01*
X+1273476Y+972661D01*
X+1213961Y+1032176D01*
X+1463961Y+1032176D02*
X+1463961Y+1116344D01*
X+1523476Y+1175859D01*
X+1607644Y+1175859D01*
X+1667159Y+1116344D01*
X+1667159Y+1032176D01*
X+1607644Y+972661D01*
X+1523476Y+972661D01*
X+1463961Y+1032176D01*
X+3501599Y+1722084D02*
X+3501599Y+1637916D01*
X+3450799Y+1587116D01*
X+3450799Y+1418959D01*
X+3352639Y+1320799D01*
X+3478858Y+1320799D01*
X+3618058Y+1181599D01*
X+3692084Y+1181599D01*
X+3751599Y+1122084D01*
X+3751599Y+1037916D01*
X+3692084Y+978401D01*
X+3607916Y+978401D01*
X+3548401Y+1037916D01*
X+3548401Y+1107576D01*
X+3436776Y+1219201D01*
X+2208960Y+1219201D01*
X+2159753Y+1268408D01*
X+2049257Y+1268408D01*
X+2043093Y+1262244D01*
X+2043093Y+582332D01*
X+1719500Y+258739D01*
X+2729699Y+258739D01*
X+2729699Y-20659D01*
X+1180301Y-20659D01*
X+1180301Y+258739D01*
X+1399176Y+258739D01*
X+1439817Y+299380D01*
X+1559051Y+299380D01*
X+1866674Y+607003D01*
X+1866674Y+981691D01*
X+1857644Y+972661D01*
X+1773476Y+972661D01*
X+1713961Y+1032176D01*
X+1713961Y+1116344D01*
X+1773476Y+1175859D01*
X+1857644Y+1175859D01*
X+1866674Y+1166829D01*
X+1866674Y+1196458D01*
X+1841274Y+1221858D01*
X+1841274Y+1284984D01*
X+1866674Y+1310384D01*
X+1866674Y+1358765D01*
X+1943957Y+1436048D01*
X+2224316Y+1436048D01*
X+2264274Y+1396090D01*
X+2264274Y+1399897D01*
X+2282873Y+1418496D01*
X+2309175Y+1418496D01*
X+2327774Y+1399897D01*
X+2327774Y+1373595D01*
X+2324978Y+1370799D01*
X+3258959Y+1370799D01*
X+3349201Y+1461041D01*
X+3349201Y+1587116D01*
X+3298401Y+1637916D01*
X+3298401Y+1722084D01*
X+3357916Y+1781599D01*
X+3442084Y+1781599D01*
X+3501599Y+1722084D01*
X+3975699Y+2369341D02*
X+3031539Y+2369341D01*
X+3438150Y+1962730D01*
X+4319110Y+1962730D01*
X+4390798Y+1891042D01*
X+4390798Y+1856964D01*
X+4416199Y+1831563D01*
X+4416199Y+1768437D01*
X+4371563Y+1723801D01*
X+4308437Y+1723801D01*
X+4263801Y+1768437D01*
X+4263801Y+1831563D01*
X+4285199Y+1852961D01*
X+4277028Y+1861132D01*
X+3396068Y+1861132D01*
X+2887859Y+2369341D01*
X+2716992Y+2369341D01*
X+2044801Y+1697150D01*
X+2066199Y+1675752D01*
X+2066199Y+1612626D01*
X+2021563Y+1567990D01*
X+1958437Y+1567990D01*
X+1913801Y+1612626D01*
X+1913801Y+1628818D01*
X+1857644Y+1572661D01*
X+1773476Y+1572661D01*
X+1713961Y+1632176D01*
X+1713961Y+1716344D01*
X+1773476Y+1775859D01*
X+1857644Y+1775859D01*
X+1917159Y+1716344D01*
X+1917159Y+1679110D01*
X+1939202Y+1701153D01*
X+1939202Y+1735231D01*
X+2680301Y+2476330D01*
X+2680301Y+2648739D01*
X+3975699Y+2648739D01*
X+3975699Y+2369341D01*
X+1463961Y+1632176D02*
X+1463961Y+1716344D01*
X+1523476Y+1775859D01*
X+1607644Y+1775859D01*
X+1667159Y+1716344D01*
X+1667159Y+1632176D01*
X+1607644Y+1572661D01*
X+1523476Y+1572661D01*
X+1463961Y+1632176D01*
X+1213961Y+1632176D02*
X+1213961Y+1716344D01*
X+1273476Y+1775859D01*
X+1357644Y+1775859D01*
X+1417159Y+1716344D01*
X+1417159Y+1632176D01*
X+1357644Y+1572661D01*
X+1273476Y+1572661D01*
X+1213961Y+1632176D01*
X+2475699Y+2369341D02*
X+1180301Y+2369341D01*
X+1180301Y+2648739D01*
X+2475699Y+2648739D01*
X+2475699Y+2369341D01*
X+3477199Y-20659D02*
X+2943801Y-20659D01*
X+2943801Y+258739D01*
X+3477199Y+258739D01*
X+3477199Y-20659D01*
X+3982549Y+819699D02*
X+4039699Y+819699D01*
X+4039699Y+540301D01*
X+3252301Y+540301D01*
X+3252301Y+807451D01*
X+3207451Y+807451D01*
X+3207451Y+972549D01*
X+3372549Y+972549D01*
X+3372549Y+819699D01*
X+3380171Y+819699D01*
X+3380171Y+972549D01*
X+3545269Y+972549D01*
X+3545269Y+819699D01*
X+3644731Y+819699D01*
X+3644731Y+972549D01*
X+3809829Y+972549D01*
X+3809829Y+882011D01*
X+3817451Y+874389D01*
X+3817451Y+972549D01*
X+3982549Y+972549D01*
X+3982549Y+819699D01*
X+3298401Y+1037916D02*
X+3298401Y+1122084D01*
X+3357916Y+1181599D01*
X+3442084Y+1181599D01*
X+3501599Y+1122084D01*
X+3501599Y+1037916D01*
X+3442084Y+978401D01*
X+3357916Y+978401D01*
X+3298401Y+1037916D01*
X+3798401Y+1037916D02*
X+3798401Y+1122084D01*
X+3857916Y+1181599D01*
X+3942084Y+1181599D01*
X+4001599Y+1122084D01*
X+4001599Y+1037916D01*
X+3942084Y+978401D01*
X+3857916Y+978401D01*
X+3798401Y+1037916D01*
X+3798401Y+1637916D02*
X+3798401Y+1722084D01*
X+3857916Y+1781599D01*
X+3942084Y+1781599D01*
X+4001599Y+1722084D01*
X+4001599Y+1637916D01*
X+3942084Y+1578401D01*
X+3857916Y+1578401D01*
X+3798401Y+1637916D01*
X+3548401Y+1637916D02*
X+3548401Y+1722084D01*
X+3607916Y+1781599D01*
X+3692084Y+1781599D01*
X+3751599Y+1722084D01*
X+3751599Y+1637916D01*
X+3692084Y+1578401D01*
X+3607916Y+1578401D01*
X+3548401Y+1637916D01*
X+1737910Y+621309D02*
X+1737910Y+647611D01*
X+1756509Y+666210D01*
X+1782811Y+666210D01*
X+1801410Y+647611D01*
X+1801410Y+621309D01*
X+1782811Y+602710D01*
X+1756509Y+602710D01*
X+1737910Y+621309D01*
X+962480Y+1030629D02*
X+962480Y+1056931D01*
X+981079Y+1075530D01*
X+1007381Y+1075530D01*
X+1025980Y+1056931D01*
X+1025980Y+1030629D01*
X+1007381Y+1012030D01*
X+981079Y+1012030D01*
X+962480Y+1030629D01*
X+745292Y+1595785D02*
X+745292Y+1622087D01*
X+763891Y+1640686D01*
X+790193Y+1640686D01*
X+808792Y+1622087D01*
X+808792Y+1595785D01*
X+790193Y+1577186D01*
X+763891Y+1577186D01*
X+745292Y+1595785D01*
X+995799Y+1924709D02*
X+995799Y+1951011D01*
X+1014398Y+1969610D01*
X+1040700Y+1969610D01*
X+1059299Y+1951011D01*
X+1059299Y+1924709D01*
X+1040700Y+1906110D01*
X+1014398Y+1906110D01*
X+995799Y+1924709D01*
X+4615758Y+2100590D02*
X+4642060Y+2100590D01*
X+4660659Y+2081991D01*
X+4660659Y+2055689D01*
X+4642060Y+2037090D01*
X+4615758Y+2037090D01*
X+4597159Y+2055689D01*
X+4597159Y+2081991D01*
X+4615758Y+2100590D01*
X+5168801Y+1202040D02*
X+5308500Y+1202040D01*
X+5168801Y+948040D02*
X+5308500Y+948040D01*
X+5308500Y+554341D02*
X+5308500Y+694040D01*
X+5168801Y+694040D02*
X+5308500Y+694040D01*
X+3646000Y+540301D02*
X+3646000Y+680000D01*
X+3982549Y+890000D02*
X+3900000Y+890000D01*
X+3817451Y+890000D02*
X+3900000Y+890000D01*
X+3900000Y+972549D02*
X+3900000Y+890000D01*
X+3207451Y+890000D02*
X+3290000Y+890000D01*
X+3372549Y+890000D02*
X+3290000Y+890000D01*
X+3290000Y+972549D02*
X+3290000Y+890000D01*
D19*
X+232660Y+648640D03*
D70*
X+232660Y+648640D03*
D19*
X+232660Y+1969440D03*
D70*
X+232660Y+1969440D03*
D20*
X+1315560Y+1074260D03*
X+1565560Y+1074260D03*
X+1815560Y+1074260D03*
X+1815560Y+1674260D03*
X+1565560Y+1674260D03*
X+1315560Y+1674260D03*
D21*
X+1320000Y+2509040D03*
X+1574000Y+2509040D03*
X+1828000Y+2509040D03*
X+2082000Y+2509040D03*
X+2336000Y+2509040D03*
X+3836000Y+2509040D03*
X+3582000Y+2509040D03*
X+3328000Y+2509040D03*
X+3074000Y+2509040D03*
X+2820000Y+2509040D03*
X+2590000Y+119040D03*
X+2336000Y+119040D03*
X+2082000Y+119040D03*
X+1828000Y+119040D03*
X+1574000Y+119040D03*
X+1320000Y+119040D03*
X+3083500Y+119040D03*
X+3337500Y+119040D03*
X+5308500Y+1964040D03*
X+5308500Y+1710040D03*
X+5308500Y+1456040D03*
X+5308500Y+1202040D03*
X+5308500Y+948040D03*
X+5308500Y+694040D03*
X+3900000Y+680000D03*
X+3646000Y+680000D03*
X+3392000Y+680000D03*
D20*
X+3400000Y+1080000D03*
X+3650000Y+1080000D03*
X+3900000Y+1080000D03*
X+3900000Y+1680000D03*
X+3650000Y+1680000D03*
X+3400000Y+1680000D03*
D17*
X+3727280Y+890000D03*
X+3900000Y+890000D03*
X+3462720Y+890000D03*
X+3290000Y+890000D03*
D22*
X+0Y+150000D02*
X+0Y+2470000D01*
X+250000Y+2720000D02*
X+5250000Y+2720000D01*
X+5500000Y+2470000D02*
X+5500000Y+150000D01*
X+5250000Y-100000D02*
X+250000Y-100000D01*
X+0Y+2470000D02*
X+4974Y+2521117D01*
X+19287Y+2568389D01*
X+42023Y+2610900D01*
X+72266Y+2647734D01*
X+109100Y+2677977D01*
X+151611Y+2700713D01*
X+198883Y+2715026D01*
X+250000Y+2720000D01*
X+0Y+150000D02*
X+4974Y+98883D01*
X+19287Y+51611D01*
X+42023Y+9100D01*
X+72266Y-27734D01*
X+109100Y-57977D01*
X+151611Y-80713D01*
X+198883Y-95026D01*
X+250000Y-100000D01*
X+5250000Y-100000D02*
X+5301117Y-95026D01*
X+5348389Y-80713D01*
X+5390900Y-57977D01*
X+5427734Y-27734D01*
X+5457977Y+9100D01*
X+5480713Y+51611D01*
X+5495026Y+98883D01*
X+5500000Y+150000D01*
X+5500000Y+2470000D02*
X+5495026Y+2521117D01*
X+5480713Y+2568389D01*
X+5457977Y+2610900D01*
X+5427734Y+2647734D01*
X+5390900Y+2677977D01*
X+5348389Y+2700713D01*
X+5301117Y+2715026D01*
X+5250000Y+2720000D01*
M02*
