G04 PROTEUS RS274X GERBER FILE*
%FSLAX45Y45*%
%MOMM*%
G01*
%ADD22C,0.203200*%
D22*
X+0Y+150000D02*
X+0Y+2470000D01*
X+250000Y+2720000D02*
X+5250000Y+2720000D01*
X+5500000Y+2470000D02*
X+5500000Y+150000D01*
X+5250000Y-100000D02*
X+250000Y-100000D01*
X+0Y+2470000D02*
X+4974Y+2521117D01*
X+19287Y+2568389D01*
X+42023Y+2610900D01*
X+72266Y+2647734D01*
X+109100Y+2677977D01*
X+151611Y+2700713D01*
X+198883Y+2715026D01*
X+250000Y+2720000D01*
X+0Y+150000D02*
X+4974Y+98883D01*
X+19287Y+51611D01*
X+42023Y+9100D01*
X+72266Y-27734D01*
X+109100Y-57977D01*
X+151611Y-80713D01*
X+198883Y-95026D01*
X+250000Y-100000D01*
X+5250000Y-100000D02*
X+5301117Y-95026D01*
X+5348389Y-80713D01*
X+5390900Y-57977D01*
X+5427734Y-27734D01*
X+5457977Y+9100D01*
X+5480713Y+51611D01*
X+5495026Y+98883D01*
X+5500000Y+150000D01*
X+5500000Y+2470000D02*
X+5495026Y+2521117D01*
X+5480713Y+2568389D01*
X+5457977Y+2610900D01*
X+5427734Y+2647734D01*
X+5390900Y+2677977D01*
X+5348389Y+2700713D01*
X+5301117Y+2715026D01*
X+5250000Y+2720000D01*
X+3790780Y+849360D02*
X+3836500Y+849360D01*
X+3790780Y+930640D02*
X+3836500Y+930640D01*
X+4105390Y+862520D02*
X+4121265Y+847280D01*
X+4168890Y+847280D01*
X+4200640Y+877760D01*
X+4200640Y+908240D01*
X+4168890Y+938720D01*
X+4121265Y+938720D01*
X+4105390Y+923480D01*
X+4057765Y+923480D02*
X+4041890Y+938720D01*
X+3994265Y+938720D01*
X+3978390Y+923480D01*
X+3978390Y+908240D01*
X+3994265Y+893000D01*
X+4041890Y+893000D01*
X+4057765Y+877760D01*
X+4057765Y+847280D01*
X+3978390Y+847280D01*
X+3399220Y+930640D02*
X+3353500Y+930640D01*
X+3399220Y+849360D02*
X+3353500Y+849360D01*
X+3118110Y+866520D02*
X+3133985Y+851280D01*
X+3181610Y+851280D01*
X+3213360Y+881760D01*
X+3213360Y+912240D01*
X+3181610Y+942720D01*
X+3133985Y+942720D01*
X+3118110Y+927480D01*
X+3070485Y+927480D02*
X+3054610Y+942720D01*
X+3006985Y+942720D01*
X+2991110Y+927480D01*
X+2991110Y+912240D01*
X+3006985Y+897000D01*
X+2991110Y+881760D01*
X+2991110Y+866520D01*
X+3006985Y+851280D01*
X+3054610Y+851280D01*
X+3070485Y+866520D01*
X+3038735Y+897000D02*
X+3006985Y+897000D01*
M02*
