G04 PROTEUS RS274X GERBER FILE*
%FSLAX45Y45*%
%MOMM*%
G01*
%ADD36C,0.050000*%
%ADD37C,0.305000*%
%ADD22C,0.203200*%
%ADD38C,0.313690*%
%ADD39C,0.085340*%
%ADD40C,0.083750*%
%ADD41C,0.060960*%
%ADD26C,0.152400*%
%ADD42C,0.435610*%
%ADD43C,0.117000*%
%ADD44C,0.205080*%
%ADD45C,0.164590*%
%ADD46C,0.164060*%
D36*
X+2032240Y+955680D02*
X+2942240Y+955680D01*
X+2942240Y+1745680D01*
X+2032240Y+1745680D01*
X+2032240Y+955680D01*
X+2487240Y+1400680D02*
X+2487240Y+1300680D01*
X+2537240Y+1350680D02*
X+2437240Y+1350680D01*
D37*
X+2243240Y+1442180D02*
X+2243240Y+1289680D01*
X+2273740Y+1259180D01*
X+2395740Y+1259180D01*
X+2426240Y+1289680D01*
X+2426240Y+1442180D01*
X+2548240Y+1381180D02*
X+2609240Y+1442180D01*
X+2609240Y+1259180D01*
D22*
X+4202840Y+664620D02*
X+4858160Y+664620D01*
X+4858160Y+1919380D01*
X+4202840Y+1919380D01*
X+4202840Y+664620D01*
D38*
X+4624607Y+915572D02*
X+4436393Y+915572D01*
X+4436393Y+1072417D01*
X+4467762Y+1103786D01*
X+4499131Y+1103786D01*
X+4530500Y+1072417D01*
X+4530500Y+915572D01*
X+4530500Y+1072417D02*
X+4561869Y+1103786D01*
X+4624607Y+1103786D01*
X+4593238Y+1166524D02*
X+4624607Y+1197893D01*
X+4624607Y+1323369D01*
X+4593238Y+1354738D01*
X+4561869Y+1354738D01*
X+4530500Y+1323369D01*
X+4530500Y+1197893D01*
X+4499131Y+1166524D01*
X+4467762Y+1166524D01*
X+4436393Y+1197893D01*
X+4436393Y+1323369D01*
X+4467762Y+1354738D01*
X+4436393Y+1417476D02*
X+4436393Y+1605690D01*
X+4436393Y+1511583D02*
X+4624607Y+1511583D01*
D22*
X+1605500Y+560800D02*
X+1920460Y+560800D01*
X+1920460Y+703040D01*
X+1605500Y+703040D01*
X+1605500Y+560800D01*
D39*
X+1745911Y+614851D02*
X+1737376Y+606316D01*
X+1711773Y+606316D01*
X+1694705Y+623385D01*
X+1694705Y+640454D01*
X+1711773Y+657523D01*
X+1737376Y+657523D01*
X+1745911Y+648988D01*
X+1780048Y+640454D02*
X+1797117Y+657523D01*
X+1797117Y+606316D01*
D36*
X+1179740Y+2032860D02*
X+849740Y+2032860D01*
X+849740Y+1842860D01*
X+1179740Y+1842860D01*
X+1179740Y+2032860D01*
X+1014740Y+1887860D02*
X+1014740Y+1987860D01*
X+964740Y+1937860D02*
X+1064740Y+1937860D01*
D40*
X+914240Y+1912735D02*
X+914240Y+1962985D01*
X+956115Y+1962985D01*
X+964490Y+1954610D01*
X+964490Y+1946235D01*
X+956115Y+1937860D01*
X+914240Y+1937860D01*
X+981240Y+1962985D02*
X+981240Y+1912735D01*
X+1006365Y+1937860D01*
X+1031490Y+1912735D01*
X+1031490Y+1962985D01*
X+1048240Y+1912735D02*
X+1048240Y+1962985D01*
X+1090115Y+1962985D01*
X+1098490Y+1954610D01*
X+1098490Y+1946235D01*
X+1090115Y+1937860D01*
X+1048240Y+1937860D01*
X+1090115Y+1937860D02*
X+1098490Y+1929485D01*
X+1098490Y+1912735D01*
D22*
X+862170Y+1691480D02*
X+1123790Y+1691480D01*
X+1123790Y+1793080D01*
X+862170Y+1793080D01*
X+862170Y+1691480D01*
D41*
X+944212Y+1723992D02*
X+944212Y+1760568D01*
X+974692Y+1760568D01*
X+980788Y+1754472D01*
X+980788Y+1748376D01*
X+974692Y+1742280D01*
X+944212Y+1742280D01*
X+974692Y+1742280D02*
X+980788Y+1736184D01*
X+980788Y+1723992D01*
X+1029556Y+1760568D02*
X+999076Y+1760568D01*
X+999076Y+1748376D01*
X+1023460Y+1748376D01*
X+1029556Y+1742280D01*
X+1029556Y+1730088D01*
X+1023460Y+1723992D01*
X+1005172Y+1723992D01*
X+999076Y+1730088D01*
D26*
X-836680Y+2172640D02*
X-836680Y+445440D01*
X+834780Y+445440D01*
X+834780Y+2172640D01*
X-836680Y+2172640D02*
X+834780Y+2172640D01*
X+834780Y+445440D01*
X-836680Y+445440D01*
X-836680Y+2172640D01*
X+834780Y+2172640D01*
D42*
X+42611Y+786308D02*
X+86172Y+786308D01*
X+129733Y+829869D01*
X+129733Y+1004113D01*
X+86172Y+1047674D01*
X-131633Y+1047674D01*
X-44511Y+1221918D02*
X-131633Y+1309040D01*
X+129733Y+1309040D01*
X-88072Y+1526845D02*
X-131633Y+1570406D01*
X-131633Y+1701089D01*
X-88072Y+1744650D01*
X-44511Y+1744650D01*
X-950Y+1701089D01*
X-950Y+1570406D01*
X+42611Y+1526845D01*
X+129733Y+1526845D01*
X+129733Y+1744650D01*
D36*
X+1245860Y+958440D02*
X+845860Y+958440D01*
X+845860Y+768440D01*
X+1245860Y+768440D01*
X+1245860Y+958440D01*
X+1045860Y+813440D02*
X+1045860Y+913440D01*
X+995860Y+863440D02*
X+1095860Y+863440D01*
D43*
X+952260Y+828340D02*
X+952260Y+898540D01*
X+999060Y+898540D01*
X+1022460Y+875140D01*
X+1022460Y+851740D01*
X+999060Y+828340D01*
X+952260Y+828340D01*
X+1069260Y+875140D02*
X+1092660Y+898540D01*
X+1092660Y+828340D01*
D36*
X+845860Y+542380D02*
X+1245860Y+542380D01*
X+1245860Y+732380D01*
X+845860Y+732380D01*
X+845860Y+542380D01*
X+1045860Y+687380D02*
X+1045860Y+587380D01*
X+1095860Y+637380D02*
X+995860Y+637380D01*
D43*
X+952260Y+602280D02*
X+952260Y+672480D01*
X+999060Y+672480D01*
X+1022460Y+649080D01*
X+1022460Y+625680D01*
X+999060Y+602280D01*
X+952260Y+602280D01*
X+1057560Y+660780D02*
X+1069260Y+672480D01*
X+1104360Y+672480D01*
X+1116060Y+660780D01*
X+1116060Y+649080D01*
X+1104360Y+637380D01*
X+1116060Y+625680D01*
X+1116060Y+613980D01*
X+1104360Y+602280D01*
X+1069260Y+602280D01*
X+1057560Y+613980D01*
X+1080960Y+637380D02*
X+1104360Y+637380D01*
D22*
X+1155400Y+964100D02*
X+1975720Y+964100D01*
X+1975720Y+1784420D01*
X+1155400Y+1784420D01*
X+1155400Y+964100D01*
D44*
X+1319464Y+1435784D02*
X+1319464Y+1333244D01*
X+1339972Y+1312736D01*
X+1422004Y+1312736D01*
X+1442512Y+1333244D01*
X+1442512Y+1435784D01*
X+1483528Y+1333244D02*
X+1504036Y+1312736D01*
X+1586068Y+1312736D01*
X+1606576Y+1333244D01*
X+1606576Y+1353752D01*
X+1586068Y+1374260D01*
X+1504036Y+1374260D01*
X+1483528Y+1394768D01*
X+1483528Y+1415276D01*
X+1504036Y+1435784D01*
X+1586068Y+1435784D01*
X+1606576Y+1415276D01*
X+1647592Y+1312736D02*
X+1647592Y+1435784D01*
X+1750132Y+1435784D01*
X+1770640Y+1415276D01*
X+1770640Y+1394768D01*
X+1750132Y+1374260D01*
X+1770640Y+1353752D01*
X+1770640Y+1333244D01*
X+1750132Y+1312736D01*
X+1647592Y+1312736D01*
X+1647592Y+1374260D02*
X+1750132Y+1374260D01*
D22*
X+852830Y+1158240D02*
X+1114450Y+1158240D01*
X+1114450Y+1259840D01*
X+852830Y+1259840D01*
X+852830Y+1158240D01*
D41*
X+934872Y+1190752D02*
X+934872Y+1227328D01*
X+965352Y+1227328D01*
X+971448Y+1221232D01*
X+971448Y+1215136D01*
X+965352Y+1209040D01*
X+934872Y+1209040D01*
X+965352Y+1209040D02*
X+971448Y+1202944D01*
X+971448Y+1190752D01*
X+989736Y+1227328D02*
X+1020216Y+1227328D01*
X+1020216Y+1221232D01*
X+989736Y+1190752D01*
D22*
X+862830Y+1358240D02*
X+1124450Y+1358240D01*
X+1124450Y+1459840D01*
X+862830Y+1459840D01*
X+862830Y+1358240D01*
D41*
X+944872Y+1390752D02*
X+944872Y+1427328D01*
X+975352Y+1427328D01*
X+981448Y+1421232D01*
X+981448Y+1415136D01*
X+975352Y+1409040D01*
X+944872Y+1409040D01*
X+975352Y+1409040D02*
X+981448Y+1402944D01*
X+981448Y+1390752D01*
X+1005832Y+1409040D02*
X+999736Y+1415136D01*
X+999736Y+1421232D01*
X+1005832Y+1427328D01*
X+1024120Y+1427328D01*
X+1030216Y+1421232D01*
X+1030216Y+1415136D01*
X+1024120Y+1409040D01*
X+1005832Y+1409040D01*
X+999736Y+1402944D01*
X+999736Y+1396848D01*
X+1005832Y+1390752D01*
X+1024120Y+1390752D01*
X+1030216Y+1396848D01*
X+1030216Y+1402944D01*
X+1024120Y+1409040D01*
D22*
X+852010Y+992980D02*
X+1113630Y+992980D01*
X+1113630Y+1094580D01*
X+852010Y+1094580D01*
X+852010Y+992980D01*
D41*
X+934052Y+1025492D02*
X+934052Y+1062068D01*
X+964532Y+1062068D01*
X+970628Y+1055972D01*
X+970628Y+1049876D01*
X+964532Y+1043780D01*
X+934052Y+1043780D01*
X+964532Y+1043780D02*
X+970628Y+1037684D01*
X+970628Y+1025492D01*
X+1019396Y+1049876D02*
X+1013300Y+1043780D01*
X+995012Y+1043780D01*
X+988916Y+1049876D01*
X+988916Y+1055972D01*
X+995012Y+1062068D01*
X+1013300Y+1062068D01*
X+1019396Y+1055972D01*
X+1019396Y+1031588D01*
X+1013300Y+1025492D01*
X+995012Y+1025492D01*
D22*
X+862170Y+1523840D02*
X+1123790Y+1523840D01*
X+1123790Y+1625440D01*
X+862170Y+1625440D01*
X+862170Y+1523840D01*
D41*
X+944212Y+1556352D02*
X+944212Y+1592928D01*
X+974692Y+1592928D01*
X+980788Y+1586832D01*
X+980788Y+1580736D01*
X+974692Y+1574640D01*
X+944212Y+1574640D01*
X+974692Y+1574640D02*
X+980788Y+1568544D01*
X+980788Y+1556352D01*
X+1029556Y+1586832D02*
X+1023460Y+1592928D01*
X+1005172Y+1592928D01*
X+999076Y+1586832D01*
X+999076Y+1562448D01*
X+1005172Y+1556352D01*
X+1023460Y+1556352D01*
X+1029556Y+1562448D01*
X+1029556Y+1568544D01*
X+1023460Y+1574640D01*
X+999076Y+1574640D01*
D22*
X+1182840Y+2371880D02*
X+2473160Y+2371880D01*
X+2473160Y+2646200D01*
X+1182840Y+2646200D01*
X+1182840Y+2371880D01*
D45*
X+1696327Y+2492580D02*
X+1696327Y+2476121D01*
X+1712786Y+2459662D01*
X+1778622Y+2459662D01*
X+1795081Y+2476121D01*
X+1795081Y+2558417D01*
X+1860918Y+2525499D02*
X+1893836Y+2558417D01*
X+1893836Y+2459662D01*
D22*
X+2682840Y+2371880D02*
X+3973160Y+2371880D01*
X+3973160Y+2646200D01*
X+2682840Y+2646200D01*
X+2682840Y+2371880D01*
D45*
X+3196327Y+2492580D02*
X+3196327Y+2476121D01*
X+3212786Y+2459662D01*
X+3278622Y+2459662D01*
X+3295081Y+2476121D01*
X+3295081Y+2558417D01*
X+3344459Y+2541958D02*
X+3360918Y+2558417D01*
X+3410295Y+2558417D01*
X+3426754Y+2541958D01*
X+3426754Y+2525499D01*
X+3410295Y+2509040D01*
X+3360918Y+2509040D01*
X+3344459Y+2492580D01*
X+3344459Y+2459662D01*
X+3426754Y+2459662D01*
D22*
X+1182840Y-18120D02*
X+2727160Y-18120D01*
X+2727160Y+256200D01*
X+1182840Y+256200D01*
X+1182840Y-18120D01*
D45*
X+1823327Y+102580D02*
X+1823327Y+86121D01*
X+1839786Y+69662D01*
X+1905622Y+69662D01*
X+1922081Y+86121D01*
X+1922081Y+168417D01*
X+1971459Y+151958D02*
X+1987918Y+168417D01*
X+2037295Y+168417D01*
X+2053754Y+151958D01*
X+2053754Y+135499D01*
X+2037295Y+119040D01*
X+2053754Y+102580D01*
X+2053754Y+86121D01*
X+2037295Y+69662D01*
X+1987918Y+69662D01*
X+1971459Y+86121D01*
X+2004377Y+119040D02*
X+2037295Y+119040D01*
D22*
X+2946340Y-18120D02*
X+3474660Y-18120D01*
X+3474660Y+256200D01*
X+2946340Y+256200D01*
X+2946340Y-18120D01*
D45*
X+3078827Y+102580D02*
X+3078827Y+86121D01*
X+3095286Y+69662D01*
X+3161122Y+69662D01*
X+3177581Y+86121D01*
X+3177581Y+168417D01*
X+3309254Y+102580D02*
X+3210500Y+102580D01*
X+3276336Y+168417D01*
X+3276336Y+69662D01*
D22*
X+4509510Y+2018040D02*
X+4771130Y+2018040D01*
X+4771130Y+2119640D01*
X+4509510Y+2119640D01*
X+4509510Y+2018040D01*
D41*
X+4591552Y+2050552D02*
X+4591552Y+2087128D01*
X+4622032Y+2087128D01*
X+4628128Y+2081032D01*
X+4628128Y+2074936D01*
X+4622032Y+2068840D01*
X+4591552Y+2068840D01*
X+4622032Y+2068840D02*
X+4628128Y+2062744D01*
X+4628128Y+2050552D01*
X+4652512Y+2074936D02*
X+4664704Y+2087128D01*
X+4664704Y+2050552D01*
D22*
X+5171340Y+556880D02*
X+5445660Y+556880D01*
X+5445660Y+2101200D01*
X+5171340Y+2101200D01*
X+5171340Y+556880D01*
D45*
X+5324960Y+1197367D02*
X+5341419Y+1197367D01*
X+5357878Y+1213826D01*
X+5357878Y+1279662D01*
X+5341419Y+1296121D01*
X+5259123Y+1296121D01*
X+5275582Y+1427794D02*
X+5259123Y+1411335D01*
X+5259123Y+1361958D01*
X+5275582Y+1345499D01*
X+5341419Y+1345499D01*
X+5357878Y+1361958D01*
X+5357878Y+1411335D01*
X+5341419Y+1427794D01*
X+5324960Y+1427794D01*
X+5308500Y+1411335D01*
X+5308500Y+1345499D01*
D22*
X+0Y+150000D02*
X+0Y+2470000D01*
X+250000Y+2720000D02*
X+5250000Y+2720000D01*
X+5500000Y+2470000D02*
X+5500000Y+150000D01*
X+5250000Y-100000D02*
X+250000Y-100000D01*
X+0Y+2470000D02*
X+4974Y+2521117D01*
X+19287Y+2568389D01*
X+42023Y+2610900D01*
X+72266Y+2647734D01*
X+109100Y+2677977D01*
X+151611Y+2700713D01*
X+198883Y+2715026D01*
X+250000Y+2720000D01*
X+0Y+150000D02*
X+4974Y+98883D01*
X+19287Y+51611D01*
X+42023Y+9100D01*
X+72266Y-27734D01*
X+109100Y-57977D01*
X+151611Y-80713D01*
X+198883Y-95026D01*
X+250000Y-100000D01*
X+5250000Y-100000D02*
X+5301117Y-95026D01*
X+5348389Y-80713D01*
X+5390900Y-57977D01*
X+5427734Y-27734D01*
X+5457977Y+9100D01*
X+5480713Y+51611D01*
X+5495026Y+98883D01*
X+5500000Y+150000D01*
X+5500000Y+2470000D02*
X+5495026Y+2521117D01*
X+5480713Y+2568389D01*
X+5457977Y+2610900D01*
X+5427734Y+2647734D01*
X+5390900Y+2677977D01*
X+5348389Y+2700713D01*
X+5301117Y+2715026D01*
X+5250000Y+2720000D01*
X+3254840Y+542840D02*
X+4037160Y+542840D01*
X+4037160Y+817160D01*
X+3254840Y+817160D01*
X+3254840Y+542840D01*
D45*
X+3514327Y+663540D02*
X+3514327Y+647081D01*
X+3530786Y+630622D01*
X+3596622Y+630622D01*
X+3613081Y+647081D01*
X+3613081Y+729377D01*
X+3744754Y+729377D02*
X+3662459Y+729377D01*
X+3662459Y+696459D01*
X+3728295Y+696459D01*
X+3744754Y+680000D01*
X+3744754Y+647081D01*
X+3728295Y+630622D01*
X+3678918Y+630622D01*
X+3662459Y+647081D01*
D22*
X+3239840Y+969840D02*
X+4060160Y+969840D01*
X+4060160Y+1790160D01*
X+3239840Y+1790160D01*
X+3239840Y+969840D01*
D46*
X+3387498Y+1429219D02*
X+3485936Y+1330780D01*
X+3387498Y+1330780D02*
X+3485936Y+1429219D01*
X+3518749Y+1429219D02*
X+3617187Y+1429219D01*
X+3567968Y+1429219D02*
X+3567968Y+1330780D01*
X+3650000Y+1330780D02*
X+3650000Y+1396406D01*
X+3682812Y+1429219D01*
X+3715625Y+1429219D01*
X+3748438Y+1396406D01*
X+3748438Y+1330780D01*
X+3650000Y+1363593D02*
X+3748438Y+1363593D01*
X+3781251Y+1429219D02*
X+3781251Y+1330780D01*
X+3879689Y+1330780D01*
M02*
