G04 PROTEUS RS274X GERBER FILE*
%FSLAX45Y45*%
%MOMM*%
G01*
%ADD70C,0.203200*%
%ADD30C,0.050000*%
%ADD31C,0.305000*%
%ADD32C,0.316990*%
%ADD33C,0.164590*%
%ADD34C,0.085340*%
%ADD35C,0.393190*%
%ADD36C,0.205080*%
%ADD37C,0.111660*%
%ADD38C,0.259080*%
D70*
X-3830000Y-2435820D02*
X+4230920Y-2435820D01*
X+4230920Y+2610960D01*
X-3830000Y+2610960D01*
X-3830000Y-2435820D01*
D30*
X-450000Y-397500D02*
X+460000Y-397500D01*
X+460000Y+392500D01*
X-450000Y+392500D01*
X-450000Y-397500D01*
X+5000Y+47500D02*
X+5000Y-52500D01*
X+55000Y-2500D02*
X-45000Y-2500D01*
D31*
X-239000Y+89000D02*
X-239000Y-63500D01*
X-208500Y-94000D01*
X-86500Y-94000D01*
X-56000Y-63500D01*
X-56000Y+89000D01*
X+66000Y+28000D02*
X+127000Y+89000D01*
X+127000Y-94000D01*
D70*
X+2262840Y+1758840D02*
X+3553160Y+1758840D01*
X+3553160Y+2287160D01*
X+2262840Y+2287160D01*
X+2262840Y+1758840D01*
D32*
X+2654407Y+1991300D02*
X+2654407Y+1959601D01*
X+2686106Y+1927902D01*
X+2812902Y+1927902D01*
X+2844601Y+1959601D01*
X+2844601Y+2118097D01*
X+2971398Y+2054699D02*
X+3034796Y+2118097D01*
X+3034796Y+1927902D01*
D70*
X-3730280Y-1831160D02*
X-1931960Y-1831160D01*
X-1931960Y-1302840D01*
X-3730280Y-1302840D01*
X-3730280Y-1831160D01*
D32*
X-3084713Y-1598700D02*
X-3084713Y-1630399D01*
X-3053014Y-1662098D01*
X-2926218Y-1662098D01*
X-2894519Y-1630399D01*
X-2894519Y-1471903D01*
X-2799421Y-1503602D02*
X-2767722Y-1471903D01*
X-2672625Y-1471903D01*
X-2640926Y-1503602D01*
X-2640926Y-1535301D01*
X-2672625Y-1567000D01*
X-2640926Y-1598700D01*
X-2640926Y-1630399D01*
X-2672625Y-1662098D01*
X-2767722Y-1662098D01*
X-2799421Y-1630399D01*
X-2736023Y-1567000D02*
X-2672625Y-1567000D01*
D70*
X-3730280Y-1323540D02*
X-1931960Y-1323540D01*
X-1931960Y-1049220D01*
X-3730280Y-1049220D01*
X-3730280Y-1323540D01*
D33*
X-2962793Y-1202840D02*
X-2962793Y-1219299D01*
X-2946334Y-1235758D01*
X-2880498Y-1235758D01*
X-2864039Y-1219299D01*
X-2864039Y-1137003D01*
X-2732366Y-1137003D02*
X-2814661Y-1137003D01*
X-2814661Y-1169921D01*
X-2748825Y-1169921D01*
X-2732366Y-1186380D01*
X-2732366Y-1219299D01*
X-2748825Y-1235758D01*
X-2798202Y-1235758D01*
X-2814661Y-1219299D01*
D70*
X-2270100Y-1013280D02*
X-1955140Y-1013280D01*
X-1955140Y-871040D01*
X-2270100Y-871040D01*
X-2270100Y-1013280D01*
D34*
X-2180895Y-967764D02*
X-2180895Y-916557D01*
X-2138224Y-916557D01*
X-2129689Y-925092D01*
X-2129689Y-933626D01*
X-2138224Y-942160D01*
X-2180895Y-942160D01*
X-2138224Y-942160D02*
X-2129689Y-950695D01*
X-2129689Y-967764D01*
X-2104086Y-925092D02*
X-2095552Y-916557D01*
X-2069949Y-916557D01*
X-2061414Y-925092D01*
X-2061414Y-933626D01*
X-2069949Y-942160D01*
X-2061414Y-950695D01*
X-2061414Y-959229D01*
X-2069949Y-967764D01*
X-2095552Y-967764D01*
X-2104086Y-959229D01*
X-2087017Y-942160D02*
X-2069949Y-942160D01*
D70*
X-3737160Y+746840D02*
X-3462840Y+746840D01*
X-3462840Y+1529160D01*
X-3737160Y+1529160D01*
X-3737160Y+746840D01*
D33*
X-3583540Y+1006327D02*
X-3567081Y+1006327D01*
X-3550622Y+1022786D01*
X-3550622Y+1088622D01*
X-3567081Y+1105081D01*
X-3649377Y+1105081D01*
X-3632918Y+1154459D02*
X-3649377Y+1170918D01*
X-3649377Y+1220295D01*
X-3632918Y+1236754D01*
X-3616459Y+1236754D01*
X-3600000Y+1220295D01*
X-3600000Y+1170918D01*
X-3583540Y+1154459D01*
X-3550622Y+1154459D01*
X-3550622Y+1236754D01*
D70*
X+3667760Y-787200D02*
X+4196080Y-787200D01*
X+4196080Y+1011120D01*
X+3667760Y+1011120D01*
X+3667760Y-787200D01*
D32*
X+3963620Y-141633D02*
X+3995319Y-141633D01*
X+4027018Y-109934D01*
X+4027018Y+16862D01*
X+3995319Y+48561D01*
X+3836823Y+48561D01*
X+3836823Y+143659D02*
X+3836823Y+302154D01*
X+3868522Y+302154D01*
X+4027018Y+143659D01*
D70*
X+3990340Y-1179480D02*
X+4132580Y-1179480D01*
X+4132580Y-864520D01*
X+3990340Y-864520D01*
X+3990340Y-1179480D01*
D34*
X+4087064Y-1090275D02*
X+4035857Y-1090275D01*
X+4035857Y-1047604D01*
X+4044392Y-1039069D01*
X+4052926Y-1039069D01*
X+4061460Y-1047604D01*
X+4061460Y-1090275D01*
X+4061460Y-1047604D02*
X+4069995Y-1039069D01*
X+4087064Y-1039069D01*
X+4052926Y-1004932D02*
X+4035857Y-987863D01*
X+4087064Y-987863D01*
D70*
X+3740340Y-1179480D02*
X+3882580Y-1179480D01*
X+3882580Y-864520D01*
X+3740340Y-864520D01*
X+3740340Y-1179480D01*
D34*
X+3837064Y-1090275D02*
X+3785857Y-1090275D01*
X+3785857Y-1047604D01*
X+3794392Y-1039069D01*
X+3802926Y-1039069D01*
X+3811460Y-1047604D01*
X+3811460Y-1090275D01*
X+3811460Y-1047604D02*
X+3819995Y-1039069D01*
X+3837064Y-1039069D01*
X+3794392Y-1013466D02*
X+3785857Y-1004932D01*
X+3785857Y-979329D01*
X+3794392Y-970794D01*
X+3802926Y-970794D01*
X+3811460Y-979329D01*
X+3811460Y-1004932D01*
X+3819995Y-1013466D01*
X+3837064Y-1013466D01*
X+3837064Y-970794D01*
D70*
X-3049380Y+1862840D02*
X-1794620Y+1862840D01*
X-1794620Y+2518160D01*
X-3049380Y+2518160D01*
X-3049380Y+1862840D01*
D35*
X-2736553Y+2072542D02*
X-2736553Y+2308457D01*
X-2539958Y+2308457D01*
X-2500639Y+2269138D01*
X-2500639Y+2229819D01*
X-2539958Y+2190500D01*
X-2500639Y+2151180D01*
X-2500639Y+2111861D01*
X-2539958Y+2072542D01*
X-2736553Y+2072542D01*
X-2736553Y+2190500D02*
X-2539958Y+2190500D01*
X-2343362Y+2229819D02*
X-2264724Y+2308457D01*
X-2264724Y+2072542D01*
D70*
X-764160Y+416340D02*
X-449200Y+416340D01*
X-449200Y+558580D01*
X-764160Y+558580D01*
X-764160Y+416340D01*
D34*
X-623749Y+470391D02*
X-632284Y+461856D01*
X-657887Y+461856D01*
X-674955Y+478925D01*
X-674955Y+495994D01*
X-657887Y+513063D01*
X-632284Y+513063D01*
X-623749Y+504528D01*
X-589612Y+495994D02*
X-572543Y+513063D01*
X-572543Y+461856D01*
D70*
X-2983660Y+1485840D02*
X-2841420Y+1485840D01*
X-2841420Y+1800800D01*
X-2983660Y+1800800D01*
X-2983660Y+1485840D01*
D34*
X-2886936Y+1575045D02*
X-2938143Y+1575045D01*
X-2938143Y+1617716D01*
X-2929608Y+1626251D01*
X-2921074Y+1626251D01*
X-2912540Y+1617716D01*
X-2912540Y+1575045D01*
X-2912540Y+1617716D02*
X-2904005Y+1626251D01*
X-2886936Y+1626251D01*
X-2904005Y+1694526D02*
X-2904005Y+1643320D01*
X-2938143Y+1677457D01*
X-2886936Y+1677457D01*
D70*
X+979840Y+1639840D02*
X+1800160Y+1639840D01*
X+1800160Y+2460160D01*
X+979840Y+2460160D01*
X+979840Y+1639840D01*
D36*
X+1143904Y+2008984D02*
X+1164412Y+1988476D01*
X+1246444Y+1988476D01*
X+1266952Y+2008984D01*
X+1266952Y+2029492D01*
X+1246444Y+2050000D01*
X+1164412Y+2050000D01*
X+1143904Y+2070508D01*
X+1143904Y+2091016D01*
X+1164412Y+2111524D01*
X+1246444Y+2111524D01*
X+1266952Y+2091016D01*
X+1307968Y+2111524D02*
X+1307968Y+1988476D01*
X+1369492Y+2050000D01*
X+1431016Y+1988476D01*
X+1431016Y+2111524D01*
X+1513048Y+2070508D02*
X+1554064Y+2111524D01*
X+1554064Y+1988476D01*
D30*
X+1455000Y+1445000D02*
X+1455000Y+1115000D01*
X+1645000Y+1115000D01*
X+1645000Y+1445000D01*
X+1455000Y+1445000D01*
X+1600000Y+1280000D02*
X+1500000Y+1280000D01*
X+1550000Y+1230000D02*
X+1550000Y+1330000D01*
D37*
X+1583500Y+1190668D02*
X+1516501Y+1190668D01*
X+1516501Y+1235334D01*
X+1538834Y+1257667D01*
X+1561167Y+1257667D01*
X+1583500Y+1235334D01*
X+1583500Y+1190668D01*
X+1527667Y+1291166D02*
X+1516501Y+1302333D01*
X+1516501Y+1335832D01*
X+1527667Y+1346999D01*
X+1538834Y+1346999D01*
X+1550000Y+1335832D01*
X+1550000Y+1302333D01*
X+1561167Y+1291166D01*
X+1583500Y+1291166D01*
X+1583500Y+1346999D01*
D70*
X+1141420Y+1139200D02*
X+1283660Y+1139200D01*
X+1283660Y+1454160D01*
X+1141420Y+1454160D01*
X+1141420Y+1139200D01*
D34*
X+1238144Y+1228405D02*
X+1186937Y+1228405D01*
X+1186937Y+1271076D01*
X+1195472Y+1279611D01*
X+1204006Y+1279611D01*
X+1212540Y+1271076D01*
X+1212540Y+1228405D01*
X+1212540Y+1271076D02*
X+1221075Y+1279611D01*
X+1238144Y+1279611D01*
X+1186937Y+1347886D02*
X+1186937Y+1305214D01*
X+1204006Y+1305214D01*
X+1204006Y+1339351D01*
X+1212540Y+1347886D01*
X+1229609Y+1347886D01*
X+1238144Y+1339351D01*
X+1238144Y+1313748D01*
X+1229609Y+1305214D01*
D70*
X-1323360Y+1932840D02*
X+728960Y+1932840D01*
X+728960Y+2461160D01*
X-1323360Y+2461160D01*
X-1323360Y+1932840D01*
D32*
X-550793Y+2165300D02*
X-550793Y+2133601D01*
X-519094Y+2101902D01*
X-392298Y+2101902D01*
X-360599Y+2133601D01*
X-360599Y+2292097D01*
X-107006Y+2165300D02*
X-297200Y+2165300D01*
X-170404Y+2292097D01*
X-170404Y+2101902D01*
D70*
X-1381760Y-800100D02*
X-853440Y-800100D01*
X-853440Y+998220D01*
X-1381760Y+998220D01*
X-1381760Y-800100D01*
D32*
X-1085900Y-154533D02*
X-1054201Y-154533D01*
X-1022502Y-122834D01*
X-1022502Y+3962D01*
X-1054201Y+35661D01*
X-1212697Y+35661D01*
X-1117600Y+162458D02*
X-1149299Y+130759D01*
X-1180998Y+130759D01*
X-1212697Y+162458D01*
X-1212697Y+257555D01*
X-1180998Y+289254D01*
X-1149299Y+289254D01*
X-1117600Y+257555D01*
X-1117600Y+162458D01*
X-1085900Y+130759D01*
X-1054201Y+130759D01*
X-1022502Y+162458D01*
X-1022502Y+257555D01*
X-1054201Y+289254D01*
X-1085900Y+289254D01*
X-1117600Y+257555D01*
D70*
X+853440Y-797560D02*
X+1381760Y-797560D01*
X+1381760Y+1000760D01*
X+853440Y+1000760D01*
X+853440Y-797560D01*
D32*
X+1149300Y-151993D02*
X+1180999Y-151993D01*
X+1212698Y-120294D01*
X+1212698Y+6502D01*
X+1180999Y+38201D01*
X+1022503Y+38201D01*
X+1085901Y+291794D02*
X+1117600Y+260095D01*
X+1117600Y+164998D01*
X+1085901Y+133299D01*
X+1054202Y+133299D01*
X+1022503Y+164998D01*
X+1022503Y+260095D01*
X+1054202Y+291794D01*
X+1180999Y+291794D01*
X+1212698Y+260095D01*
X+1212698Y+164998D01*
D70*
X-525160Y+848840D02*
X+511160Y+848840D01*
X+511160Y+1377160D01*
X-525160Y+1377160D01*
X-525160Y+848840D01*
D38*
X-317896Y+1087092D02*
X-317896Y+1061184D01*
X-291988Y+1035276D01*
X-188356Y+1035276D01*
X-162448Y+1061184D01*
X-162448Y+1190724D01*
X-58816Y+1138908D02*
X-7000Y+1190724D01*
X-7000Y+1035276D01*
X+148448Y+1138908D02*
X+200264Y+1190724D01*
X+200264Y+1035276D01*
D70*
X-1036320Y-1391920D02*
X+1016000Y-1391920D01*
X+1016000Y-863600D01*
X-1036320Y-863600D01*
X-1036320Y-1391920D01*
D32*
X-390549Y-1159460D02*
X-390549Y-1191159D01*
X-358850Y-1222858D01*
X-232054Y-1222858D01*
X-200355Y-1191159D01*
X-200355Y-1032663D01*
X-73558Y-1096061D02*
X-10160Y-1032663D01*
X-10160Y-1222858D01*
X+116637Y-1191159D02*
X+116637Y-1064362D01*
X+148336Y-1032663D01*
X+275132Y-1032663D01*
X+306831Y-1064362D01*
X+306831Y-1191159D01*
X+275132Y-1222858D01*
X+148336Y-1222858D01*
X+116637Y-1191159D01*
X+116637Y-1222858D02*
X+306831Y-1032663D01*
D70*
X-462280Y-797560D02*
X-320040Y-797560D01*
X-320040Y-482600D01*
X-462280Y-482600D01*
X-462280Y-797560D01*
D34*
X-374091Y-657149D02*
X-365556Y-665684D01*
X-365556Y-691287D01*
X-382625Y-708355D01*
X-399694Y-708355D01*
X-416763Y-691287D01*
X-416763Y-665684D01*
X-408228Y-657149D01*
X-408228Y-631546D02*
X-416763Y-623012D01*
X-416763Y-597409D01*
X-408228Y-588874D01*
X-399694Y-588874D01*
X-391160Y-597409D01*
X-391160Y-623012D01*
X-382625Y-631546D01*
X-365556Y-631546D01*
X-365556Y-588874D01*
D70*
X-713740Y-797560D02*
X-571500Y-797560D01*
X-571500Y-482600D01*
X-713740Y-482600D01*
X-713740Y-797560D01*
D34*
X-625551Y-657149D02*
X-617016Y-665684D01*
X-617016Y-691287D01*
X-634085Y-708355D01*
X-651154Y-708355D01*
X-668223Y-691287D01*
X-668223Y-665684D01*
X-659688Y-657149D01*
X-659688Y-631546D02*
X-668223Y-623012D01*
X-668223Y-597409D01*
X-659688Y-588874D01*
X-651154Y-588874D01*
X-642620Y-597409D01*
X-634085Y-588874D01*
X-625551Y-588874D01*
X-617016Y-597409D01*
X-617016Y-623012D01*
X-625551Y-631546D01*
X-642620Y-614477D02*
X-642620Y-597409D01*
M02*
