M48
METRIC,TZ
T01C0.3810
T02C1.0160
T03C0.7620
T04C3.2000
%
T01
X-1700Y-100
X-27431Y+23807
X+15500Y+15163
X-6000Y+4900
X-5182Y-5334
X-1195Y+2896
X+26535Y+16949
X-27324Y+20008
T02
X+24000Y+18960
X+26540Y+18960
X+29080Y+18960
X+31620Y+18960
X+34160Y+18960
X+34160Y+21500
X+31620Y+21500
X+29080Y+21500
X+26540Y+21500
X+24000Y+21500
X-20691Y-14400
X-23231Y-14400
X-25771Y-14400
X-28311Y-14400
X-30851Y-14400
X-33391Y-14400
X-35931Y-14400
X-35931Y-16940
X-33391Y-16940
X-30851Y-16940
X-28311Y-16940
X-25771Y-16940
X-23231Y-16940
X-20691Y-16940
X-35931Y-11864
X-33391Y-11864
X-30851Y-11864
X-28311Y-11864
X-25771Y-11864
X-23231Y-11864
X-20691Y-11864
X-36000Y+8840
X-36000Y+11380
X-36000Y+13920
X+40589Y-6500
X+40589Y-3960
X+40589Y-1420
X+40589Y+1120
X+40589Y+3660
X+40589Y+6200
X+40589Y+8740
X+38049Y+8740
X+38049Y+6200
X+38049Y+3660
X+38049Y+1120
X+38049Y-1420
X+38049Y-3960
X+38049Y-6500
X-11862Y+20700
X-9322Y+20700
X-6782Y+20700
X-4242Y+20700
X-1702Y+20700
X+838Y+20700
X+3378Y+20700
X+5918Y+20700
X+5918Y+23240
X+3378Y+23240
X+838Y+23240
X-1702Y+23240
X-4242Y+23240
X-6782Y+23240
X-9322Y+23240
X-11862Y+23240
X-12446Y+8611
X-12446Y+6071
X-12446Y+3531
X-12446Y+991
X-12446Y-1549
X-12446Y-4089
X-12446Y-6629
X-9906Y-6629
X-9906Y-4089
X-9906Y-1549
X-9906Y+991
X-9906Y+3531
X-9906Y+6071
X-9906Y+8611
X+12446Y-6604
X+12446Y-4064
X+12446Y-1524
X+12446Y+1016
X+12446Y+3556
X+12446Y+6096
X+12446Y+8636
X+9906Y+8636
X+9906Y+6096
X+9906Y+3556
X+9906Y+1016
X+9906Y-1524
X+9906Y-4064
X+9906Y-6604
X-3880Y+9860
X-1340Y+9860
X+1200Y+9860
X+3740Y+9860
X+3740Y+12400
X+1200Y+12400
X-1340Y+12400
X-3880Y+12400
X+8788Y-10008
X+6248Y-10008
X+3708Y-10008
X+1168Y-10008
X-1372Y-10008
X-3912Y-10008
X-6452Y-10008
X-8992Y-10008
X-8992Y-12548
X-6452Y-12548
X-3912Y-12548
X-1372Y-12548
X+1168Y-12548
X+3708Y-12548
X+6248Y-12548
X+8788Y-12548
T03
X+11400Y+17500
X+13900Y+17500
X+16400Y+17500
X+16400Y+23500
X+13900Y+23500
X+11400Y+23500
T04
X-36000Y+24000
X+40000Y+24000
X+40000Y-22000
X-36000Y-22000
M30
