G04 PROTEUS RS274X GERBER FILE*
%FSLAX45Y45*%
%MOMM*%
G01*
%ADD70C,0.203200*%
%ADD39C,0.127000*%
%ADD23C,0.063500*%
D70*
X-170000Y+53500D02*
X-170000Y-73500D01*
X-233500Y-10000D02*
X-106500Y-10000D01*
X-2743127Y+2444187D02*
X-2743127Y+2317187D01*
X-2806627Y+2380687D02*
X-2679627Y+2380687D01*
X+1550000Y+1579762D02*
X+1550000Y+1452762D01*
X+1486500Y+1516262D02*
X+1613500Y+1516262D01*
X-600000Y+553500D02*
X-600000Y+426500D01*
X-663500Y+490000D02*
X-536500Y+490000D01*
X-518160Y-469900D02*
X-518160Y-596900D01*
X-581660Y-533400D02*
X-454660Y-533400D01*
X-119459Y+353054D02*
X-119459Y+226054D01*
X-182959Y+289554D02*
X-55959Y+289554D01*
X+2653530Y+1758420D02*
X+2653530Y+1631420D01*
X+2590030Y+1694920D02*
X+2717030Y+1694920D01*
X-2732384Y+2064316D02*
X-2732384Y+1937316D01*
X-2795884Y+2000816D02*
X-2668884Y+2000816D01*
X+2400000Y+1959500D02*
X+2400000Y+1832500D01*
X+2336500Y+1896000D02*
X+2463500Y+1896000D01*
X+2355099Y+1940901D02*
X+2444901Y+1851099D01*
X+2355099Y+1851099D02*
X+2444901Y+1940901D01*
X+2654000Y+1959500D02*
X+2654000Y+1832500D01*
X+2590500Y+1896000D02*
X+2717500Y+1896000D01*
X+2609099Y+1940901D02*
X+2698901Y+1851099D01*
X+2609099Y+1851099D02*
X+2698901Y+1940901D01*
X+2908000Y+1959500D02*
X+2908000Y+1832500D01*
X+2844500Y+1896000D02*
X+2971500Y+1896000D01*
X+2863099Y+1940901D02*
X+2952901Y+1851099D01*
X+2863099Y+1851099D02*
X+2952901Y+1940901D01*
X+3162000Y+1959500D02*
X+3162000Y+1832500D01*
X+3098500Y+1896000D02*
X+3225500Y+1896000D01*
X+3117099Y+1940901D02*
X+3206901Y+1851099D01*
X+3117099Y+1851099D02*
X+3206901Y+1940901D01*
X+3416000Y+1959500D02*
X+3416000Y+1832500D01*
X+3352500Y+1896000D02*
X+3479500Y+1896000D01*
X+3371099Y+1940901D02*
X+3460901Y+1851099D01*
X+3371099Y+1851099D02*
X+3460901Y+1940901D01*
X+3416000Y+2213500D02*
X+3416000Y+2086500D01*
X+3352500Y+2150000D02*
X+3479500Y+2150000D01*
X+3371099Y+2194901D02*
X+3460901Y+2105099D01*
X+3371099Y+2105099D02*
X+3460901Y+2194901D01*
X+3162000Y+2213500D02*
X+3162000Y+2086500D01*
X+3098500Y+2150000D02*
X+3225500Y+2150000D01*
X+3117099Y+2194901D02*
X+3206901Y+2105099D01*
X+3117099Y+2105099D02*
X+3206901Y+2194901D01*
X+2908000Y+2213500D02*
X+2908000Y+2086500D01*
X+2844500Y+2150000D02*
X+2971500Y+2150000D01*
X+2863099Y+2194901D02*
X+2952901Y+2105099D01*
X+2863099Y+2105099D02*
X+2952901Y+2194901D01*
X+2654000Y+2213500D02*
X+2654000Y+2086500D01*
X+2590500Y+2150000D02*
X+2717500Y+2150000D01*
X+2609099Y+2194901D02*
X+2698901Y+2105099D01*
X+2609099Y+2105099D02*
X+2698901Y+2194901D01*
X+2400000Y+2213500D02*
X+2400000Y+2086500D01*
X+2336500Y+2150000D02*
X+2463500Y+2150000D01*
X+2355099Y+2194901D02*
X+2444901Y+2105099D01*
X+2355099Y+2105099D02*
X+2444901Y+2194901D01*
X-2069120Y-1376500D02*
X-2069120Y-1503500D01*
X-2132620Y-1440000D02*
X-2005620Y-1440000D01*
X-2114021Y-1395099D02*
X-2024219Y-1484901D01*
X-2114021Y-1484901D02*
X-2024219Y-1395099D01*
X-2323120Y-1376500D02*
X-2323120Y-1503500D01*
X-2386620Y-1440000D02*
X-2259620Y-1440000D01*
X-2368021Y-1395099D02*
X-2278219Y-1484901D01*
X-2368021Y-1484901D02*
X-2278219Y-1395099D01*
X-2577120Y-1376500D02*
X-2577120Y-1503500D01*
X-2640620Y-1440000D02*
X-2513620Y-1440000D01*
X-2622021Y-1395099D02*
X-2532219Y-1484901D01*
X-2622021Y-1484901D02*
X-2532219Y-1395099D01*
X-2831120Y-1376500D02*
X-2831120Y-1503500D01*
X-2894620Y-1440000D02*
X-2767620Y-1440000D01*
X-2876021Y-1395099D02*
X-2786219Y-1484901D01*
X-2876021Y-1484901D02*
X-2786219Y-1395099D01*
X-3085120Y-1376500D02*
X-3085120Y-1503500D01*
X-3148620Y-1440000D02*
X-3021620Y-1440000D01*
X-3130021Y-1395099D02*
X-3040219Y-1484901D01*
X-3130021Y-1484901D02*
X-3040219Y-1395099D01*
X-3339120Y-1376500D02*
X-3339120Y-1503500D01*
X-3402620Y-1440000D02*
X-3275620Y-1440000D01*
X-3384021Y-1395099D02*
X-3294219Y-1484901D01*
X-3384021Y-1484901D02*
X-3294219Y-1395099D01*
X-3593120Y-1376500D02*
X-3593120Y-1503500D01*
X-3656620Y-1440000D02*
X-3529620Y-1440000D01*
X-3638021Y-1395099D02*
X-3548219Y-1484901D01*
X-3638021Y-1484901D02*
X-3548219Y-1395099D01*
X-3593120Y-1630500D02*
X-3593120Y-1757500D01*
X-3656620Y-1694000D02*
X-3529620Y-1694000D01*
X-3638021Y-1649099D02*
X-3548219Y-1738901D01*
X-3638021Y-1738901D02*
X-3548219Y-1649099D01*
X-3339120Y-1630500D02*
X-3339120Y-1757500D01*
X-3402620Y-1694000D02*
X-3275620Y-1694000D01*
X-3384021Y-1649099D02*
X-3294219Y-1738901D01*
X-3384021Y-1738901D02*
X-3294219Y-1649099D01*
X-3085120Y-1630500D02*
X-3085120Y-1757500D01*
X-3148620Y-1694000D02*
X-3021620Y-1694000D01*
X-3130021Y-1649099D02*
X-3040219Y-1738901D01*
X-3130021Y-1738901D02*
X-3040219Y-1649099D01*
X-2831120Y-1630500D02*
X-2831120Y-1757500D01*
X-2894620Y-1694000D02*
X-2767620Y-1694000D01*
X-2876021Y-1649099D02*
X-2786219Y-1738901D01*
X-2876021Y-1738901D02*
X-2786219Y-1649099D01*
X-2577120Y-1630500D02*
X-2577120Y-1757500D01*
X-2640620Y-1694000D02*
X-2513620Y-1694000D01*
X-2622021Y-1649099D02*
X-2532219Y-1738901D01*
X-2622021Y-1738901D02*
X-2532219Y-1649099D01*
X-2323120Y-1630500D02*
X-2323120Y-1757500D01*
X-2386620Y-1694000D02*
X-2259620Y-1694000D01*
X-2368021Y-1649099D02*
X-2278219Y-1738901D01*
X-2368021Y-1738901D02*
X-2278219Y-1649099D01*
X-2069120Y-1630500D02*
X-2069120Y-1757500D01*
X-2132620Y-1694000D02*
X-2005620Y-1694000D01*
X-2114021Y-1649099D02*
X-2024219Y-1738901D01*
X-2114021Y-1738901D02*
X-2024219Y-1649099D01*
X-3593120Y-1122880D02*
X-3593120Y-1249880D01*
X-3656620Y-1186380D02*
X-3529620Y-1186380D01*
X-3638021Y-1141479D02*
X-3548219Y-1231281D01*
X-3638021Y-1231281D02*
X-3548219Y-1141479D01*
X-3339120Y-1122880D02*
X-3339120Y-1249880D01*
X-3402620Y-1186380D02*
X-3275620Y-1186380D01*
X-3384021Y-1141479D02*
X-3294219Y-1231281D01*
X-3384021Y-1231281D02*
X-3294219Y-1141479D01*
X-3085120Y-1122880D02*
X-3085120Y-1249880D01*
X-3148620Y-1186380D02*
X-3021620Y-1186380D01*
X-3130021Y-1141479D02*
X-3040219Y-1231281D01*
X-3130021Y-1231281D02*
X-3040219Y-1141479D01*
X-2831120Y-1122880D02*
X-2831120Y-1249880D01*
X-2894620Y-1186380D02*
X-2767620Y-1186380D01*
X-2876021Y-1141479D02*
X-2786219Y-1231281D01*
X-2876021Y-1231281D02*
X-2786219Y-1141479D01*
X-2577120Y-1122880D02*
X-2577120Y-1249880D01*
X-2640620Y-1186380D02*
X-2513620Y-1186380D01*
X-2622021Y-1141479D02*
X-2532219Y-1231281D01*
X-2622021Y-1231281D02*
X-2532219Y-1141479D01*
X-2323120Y-1122880D02*
X-2323120Y-1249880D01*
X-2386620Y-1186380D02*
X-2259620Y-1186380D01*
X-2368021Y-1141479D02*
X-2278219Y-1231281D01*
X-2368021Y-1231281D02*
X-2278219Y-1141479D01*
X-2069120Y-1122880D02*
X-2069120Y-1249880D01*
X-2132620Y-1186380D02*
X-2005620Y-1186380D01*
X-2114021Y-1141479D02*
X-2024219Y-1231281D01*
X-2114021Y-1231281D02*
X-2024219Y-1141479D01*
X-3600000Y+947500D02*
X-3600000Y+820500D01*
X-3663500Y+884000D02*
X-3536500Y+884000D01*
X-3644901Y+928901D02*
X-3555099Y+839099D01*
X-3644901Y+839099D02*
X-3555099Y+928901D01*
X-3600000Y+1201500D02*
X-3600000Y+1074500D01*
X-3663500Y+1138000D02*
X-3536500Y+1138000D01*
X-3644901Y+1182901D02*
X-3555099Y+1093099D01*
X-3644901Y+1093099D02*
X-3555099Y+1182901D01*
X-3600000Y+1455500D02*
X-3600000Y+1328500D01*
X-3663500Y+1392000D02*
X-3536500Y+1392000D01*
X-3644901Y+1436901D02*
X-3555099Y+1347099D01*
X-3644901Y+1347099D02*
X-3555099Y+1436901D01*
X+4058920Y-586540D02*
X+4058920Y-713540D01*
X+3995420Y-650040D02*
X+4122420Y-650040D01*
X+4014019Y-605139D02*
X+4103821Y-694941D01*
X+4014019Y-694941D02*
X+4103821Y-605139D01*
X+4058920Y-332540D02*
X+4058920Y-459540D01*
X+3995420Y-396040D02*
X+4122420Y-396040D01*
X+4014019Y-351139D02*
X+4103821Y-440941D01*
X+4014019Y-440941D02*
X+4103821Y-351139D01*
X+4058920Y-78540D02*
X+4058920Y-205540D01*
X+3995420Y-142040D02*
X+4122420Y-142040D01*
X+4014019Y-97139D02*
X+4103821Y-186941D01*
X+4014019Y-186941D02*
X+4103821Y-97139D01*
X+4058920Y+175460D02*
X+4058920Y+48460D01*
X+3995420Y+111960D02*
X+4122420Y+111960D01*
X+4014019Y+156861D02*
X+4103821Y+67059D01*
X+4014019Y+67059D02*
X+4103821Y+156861D01*
X+4058920Y+429460D02*
X+4058920Y+302460D01*
X+3995420Y+365960D02*
X+4122420Y+365960D01*
X+4014019Y+410861D02*
X+4103821Y+321059D01*
X+4014019Y+321059D02*
X+4103821Y+410861D01*
X+4058920Y+683460D02*
X+4058920Y+556460D01*
X+3995420Y+619960D02*
X+4122420Y+619960D01*
X+4014019Y+664861D02*
X+4103821Y+575059D01*
X+4014019Y+575059D02*
X+4103821Y+664861D01*
X+4058920Y+937460D02*
X+4058920Y+810460D01*
X+3995420Y+873960D02*
X+4122420Y+873960D01*
X+4014019Y+918861D02*
X+4103821Y+829059D01*
X+4014019Y+829059D02*
X+4103821Y+918861D01*
X+3804920Y+937460D02*
X+3804920Y+810460D01*
X+3741420Y+873960D02*
X+3868420Y+873960D01*
X+3760019Y+918861D02*
X+3849821Y+829059D01*
X+3760019Y+829059D02*
X+3849821Y+918861D01*
X+3804920Y+683460D02*
X+3804920Y+556460D01*
X+3741420Y+619960D02*
X+3868420Y+619960D01*
X+3760019Y+664861D02*
X+3849821Y+575059D01*
X+3760019Y+575059D02*
X+3849821Y+664861D01*
X+3804920Y+429460D02*
X+3804920Y+302460D01*
X+3741420Y+365960D02*
X+3868420Y+365960D01*
X+3760019Y+410861D02*
X+3849821Y+321059D01*
X+3760019Y+321059D02*
X+3849821Y+410861D01*
X+3804920Y+175460D02*
X+3804920Y+48460D01*
X+3741420Y+111960D02*
X+3868420Y+111960D01*
X+3760019Y+156861D02*
X+3849821Y+67059D01*
X+3760019Y+67059D02*
X+3849821Y+156861D01*
X+3804920Y-78540D02*
X+3804920Y-205540D01*
X+3741420Y-142040D02*
X+3868420Y-142040D01*
X+3760019Y-97139D02*
X+3849821Y-186941D01*
X+3760019Y-186941D02*
X+3849821Y-97139D01*
X+3804920Y-332540D02*
X+3804920Y-459540D01*
X+3741420Y-396040D02*
X+3868420Y-396040D01*
X+3760019Y-351139D02*
X+3849821Y-440941D01*
X+3760019Y-440941D02*
X+3849821Y-351139D01*
X+3804920Y-586540D02*
X+3804920Y-713540D01*
X+3741420Y-650040D02*
X+3868420Y-650040D01*
X+3760019Y-605139D02*
X+3849821Y-694941D01*
X+3760019Y-694941D02*
X+3849821Y-605139D01*
X+1095099Y+1794901D02*
X+1184901Y+1705099D01*
X+1095099Y+1705099D02*
X+1184901Y+1794901D01*
X+1345099Y+1794901D02*
X+1434901Y+1705099D01*
X+1345099Y+1705099D02*
X+1434901Y+1794901D01*
X+1595099Y+1794901D02*
X+1684901Y+1705099D01*
X+1595099Y+1705099D02*
X+1684901Y+1794901D01*
X+1595099Y+2394901D02*
X+1684901Y+2305099D01*
X+1595099Y+2305099D02*
X+1684901Y+2394901D01*
X+1345099Y+2394901D02*
X+1434901Y+2305099D01*
X+1345099Y+2305099D02*
X+1434901Y+2394901D01*
X+1095099Y+2394901D02*
X+1184901Y+2305099D01*
X+1095099Y+2305099D02*
X+1184901Y+2394901D01*
X-3536500Y+2400000D02*
X-3536717Y+2405247D01*
X-3538482Y+2415742D01*
X-3542174Y+2426237D01*
X-3548202Y+2436732D01*
X-3557424Y+2447112D01*
X-3567919Y+2454800D01*
X-3578414Y+2459718D01*
X-3588909Y+2462524D01*
X-3599404Y+2463497D01*
X-3600000Y+2463500D01*
X-3663500Y+2400000D02*
X-3663283Y+2405247D01*
X-3661518Y+2415742D01*
X-3657826Y+2426237D01*
X-3651798Y+2436732D01*
X-3642576Y+2447112D01*
X-3632081Y+2454800D01*
X-3621586Y+2459718D01*
X-3611091Y+2462524D01*
X-3600596Y+2463497D01*
X-3600000Y+2463500D01*
X-3663500Y+2400000D02*
X-3663283Y+2394753D01*
X-3661518Y+2384258D01*
X-3657826Y+2373763D01*
X-3651798Y+2363268D01*
X-3642576Y+2352888D01*
X-3632081Y+2345200D01*
X-3621586Y+2340282D01*
X-3611091Y+2337476D01*
X-3600596Y+2336503D01*
X-3600000Y+2336500D01*
X-3536500Y+2400000D02*
X-3536717Y+2394753D01*
X-3538482Y+2384258D01*
X-3542174Y+2373763D01*
X-3548202Y+2363268D01*
X-3557424Y+2352888D01*
X-3567919Y+2345200D01*
X-3578414Y+2340282D01*
X-3588909Y+2337476D01*
X-3599404Y+2336503D01*
X-3600000Y+2336500D01*
X-3600000Y+2463500D02*
X-3600000Y+2336500D01*
X-3663500Y+2400000D02*
X-3536500Y+2400000D01*
X+4063500Y+2400000D02*
X+4063283Y+2405247D01*
X+4061518Y+2415742D01*
X+4057826Y+2426237D01*
X+4051798Y+2436732D01*
X+4042576Y+2447112D01*
X+4032081Y+2454800D01*
X+4021586Y+2459718D01*
X+4011091Y+2462524D01*
X+4000596Y+2463497D01*
X+4000000Y+2463500D01*
X+3936500Y+2400000D02*
X+3936717Y+2405247D01*
X+3938482Y+2415742D01*
X+3942174Y+2426237D01*
X+3948202Y+2436732D01*
X+3957424Y+2447112D01*
X+3967919Y+2454800D01*
X+3978414Y+2459718D01*
X+3988909Y+2462524D01*
X+3999404Y+2463497D01*
X+4000000Y+2463500D01*
X+3936500Y+2400000D02*
X+3936717Y+2394753D01*
X+3938482Y+2384258D01*
X+3942174Y+2373763D01*
X+3948202Y+2363268D01*
X+3957424Y+2352888D01*
X+3967919Y+2345200D01*
X+3978414Y+2340282D01*
X+3988909Y+2337476D01*
X+3999404Y+2336503D01*
X+4000000Y+2336500D01*
X+4063500Y+2400000D02*
X+4063283Y+2394753D01*
X+4061518Y+2384258D01*
X+4057826Y+2373763D01*
X+4051798Y+2363268D01*
X+4042576Y+2352888D01*
X+4032081Y+2345200D01*
X+4021586Y+2340282D01*
X+4011091Y+2337476D01*
X+4000596Y+2336503D01*
X+4000000Y+2336500D01*
X+4000000Y+2463500D02*
X+4000000Y+2336500D01*
X+3936500Y+2400000D02*
X+4063500Y+2400000D01*
X+4063500Y-2200000D02*
X+4063283Y-2194753D01*
X+4061518Y-2184258D01*
X+4057826Y-2173763D01*
X+4051798Y-2163268D01*
X+4042576Y-2152888D01*
X+4032081Y-2145200D01*
X+4021586Y-2140282D01*
X+4011091Y-2137476D01*
X+4000596Y-2136503D01*
X+4000000Y-2136500D01*
X+3936500Y-2200000D02*
X+3936717Y-2194753D01*
X+3938482Y-2184258D01*
X+3942174Y-2173763D01*
X+3948202Y-2163268D01*
X+3957424Y-2152888D01*
X+3967919Y-2145200D01*
X+3978414Y-2140282D01*
X+3988909Y-2137476D01*
X+3999404Y-2136503D01*
X+4000000Y-2136500D01*
X+3936500Y-2200000D02*
X+3936717Y-2205247D01*
X+3938482Y-2215742D01*
X+3942174Y-2226237D01*
X+3948202Y-2236732D01*
X+3957424Y-2247112D01*
X+3967919Y-2254800D01*
X+3978414Y-2259718D01*
X+3988909Y-2262524D01*
X+3999404Y-2263497D01*
X+4000000Y-2263500D01*
X+4063500Y-2200000D02*
X+4063283Y-2205247D01*
X+4061518Y-2215742D01*
X+4057826Y-2226237D01*
X+4051798Y-2236732D01*
X+4042576Y-2247112D01*
X+4032081Y-2254800D01*
X+4021586Y-2259718D01*
X+4011091Y-2262524D01*
X+4000596Y-2263497D01*
X+4000000Y-2263500D01*
X+4000000Y-2136500D02*
X+4000000Y-2263500D01*
X+3936500Y-2200000D02*
X+4063500Y-2200000D01*
X-3536500Y-2200000D02*
X-3536717Y-2194753D01*
X-3538482Y-2184258D01*
X-3542174Y-2173763D01*
X-3548202Y-2163268D01*
X-3557424Y-2152888D01*
X-3567919Y-2145200D01*
X-3578414Y-2140282D01*
X-3588909Y-2137476D01*
X-3599404Y-2136503D01*
X-3600000Y-2136500D01*
X-3663500Y-2200000D02*
X-3663283Y-2194753D01*
X-3661518Y-2184258D01*
X-3657826Y-2173763D01*
X-3651798Y-2163268D01*
X-3642576Y-2152888D01*
X-3632081Y-2145200D01*
X-3621586Y-2140282D01*
X-3611091Y-2137476D01*
X-3600596Y-2136503D01*
X-3600000Y-2136500D01*
X-3663500Y-2200000D02*
X-3663283Y-2205247D01*
X-3661518Y-2215742D01*
X-3657826Y-2226237D01*
X-3651798Y-2236732D01*
X-3642576Y-2247112D01*
X-3632081Y-2254800D01*
X-3621586Y-2259718D01*
X-3611091Y-2262524D01*
X-3600596Y-2263497D01*
X-3600000Y-2263500D01*
X-3536500Y-2200000D02*
X-3536717Y-2205247D01*
X-3538482Y-2215742D01*
X-3542174Y-2226237D01*
X-3548202Y-2236732D01*
X-3557424Y-2247112D01*
X-3567919Y-2254800D01*
X-3578414Y-2259718D01*
X-3588909Y-2262524D01*
X-3599404Y-2263497D01*
X-3600000Y-2263500D01*
X-3600000Y-2136500D02*
X-3600000Y-2263500D01*
X-3663500Y-2200000D02*
X-3536500Y-2200000D01*
X-1186200Y+2133500D02*
X-1186200Y+2006500D01*
X-1249700Y+2070000D02*
X-1122700Y+2070000D01*
X-1231101Y+2114901D02*
X-1141299Y+2025099D01*
X-1231101Y+2025099D02*
X-1141299Y+2114901D01*
X-932200Y+2133500D02*
X-932200Y+2006500D01*
X-995700Y+2070000D02*
X-868700Y+2070000D01*
X-977101Y+2114901D02*
X-887299Y+2025099D01*
X-977101Y+2025099D02*
X-887299Y+2114901D01*
X-678200Y+2133500D02*
X-678200Y+2006500D01*
X-741700Y+2070000D02*
X-614700Y+2070000D01*
X-723101Y+2114901D02*
X-633299Y+2025099D01*
X-723101Y+2025099D02*
X-633299Y+2114901D01*
X-424200Y+2133500D02*
X-424200Y+2006500D01*
X-487700Y+2070000D02*
X-360700Y+2070000D01*
X-469101Y+2114901D02*
X-379299Y+2025099D01*
X-469101Y+2025099D02*
X-379299Y+2114901D01*
X-170200Y+2133500D02*
X-170200Y+2006500D01*
X-233700Y+2070000D02*
X-106700Y+2070000D01*
X-215101Y+2114901D02*
X-125299Y+2025099D01*
X-215101Y+2025099D02*
X-125299Y+2114901D01*
X+83800Y+2133500D02*
X+83800Y+2006500D01*
X+20300Y+2070000D02*
X+147300Y+2070000D01*
X+38899Y+2114901D02*
X+128701Y+2025099D01*
X+38899Y+2025099D02*
X+128701Y+2114901D01*
X+337800Y+2133500D02*
X+337800Y+2006500D01*
X+274300Y+2070000D02*
X+401300Y+2070000D01*
X+292899Y+2114901D02*
X+382701Y+2025099D01*
X+292899Y+2025099D02*
X+382701Y+2114901D01*
X+591800Y+2133500D02*
X+591800Y+2006500D01*
X+528300Y+2070000D02*
X+655300Y+2070000D01*
X+546899Y+2114901D02*
X+636701Y+2025099D01*
X+546899Y+2025099D02*
X+636701Y+2114901D01*
X+591800Y+2387500D02*
X+591800Y+2260500D01*
X+528300Y+2324000D02*
X+655300Y+2324000D01*
X+546899Y+2368901D02*
X+636701Y+2279099D01*
X+546899Y+2279099D02*
X+636701Y+2368901D01*
X+337800Y+2387500D02*
X+337800Y+2260500D01*
X+274300Y+2324000D02*
X+401300Y+2324000D01*
X+292899Y+2368901D02*
X+382701Y+2279099D01*
X+292899Y+2279099D02*
X+382701Y+2368901D01*
X+83800Y+2387500D02*
X+83800Y+2260500D01*
X+20300Y+2324000D02*
X+147300Y+2324000D01*
X+38899Y+2368901D02*
X+128701Y+2279099D01*
X+38899Y+2279099D02*
X+128701Y+2368901D01*
X-170200Y+2387500D02*
X-170200Y+2260500D01*
X-233700Y+2324000D02*
X-106700Y+2324000D01*
X-215101Y+2368901D02*
X-125299Y+2279099D01*
X-215101Y+2279099D02*
X-125299Y+2368901D01*
X-424200Y+2387500D02*
X-424200Y+2260500D01*
X-487700Y+2324000D02*
X-360700Y+2324000D01*
X-469101Y+2368901D02*
X-379299Y+2279099D01*
X-469101Y+2279099D02*
X-379299Y+2368901D01*
X-678200Y+2387500D02*
X-678200Y+2260500D01*
X-741700Y+2324000D02*
X-614700Y+2324000D01*
X-723101Y+2368901D02*
X-633299Y+2279099D01*
X-723101Y+2279099D02*
X-633299Y+2368901D01*
X-932200Y+2387500D02*
X-932200Y+2260500D01*
X-995700Y+2324000D02*
X-868700Y+2324000D01*
X-977101Y+2368901D02*
X-887299Y+2279099D01*
X-977101Y+2279099D02*
X-887299Y+2368901D01*
X-1186200Y+2387500D02*
X-1186200Y+2260500D01*
X-1249700Y+2324000D02*
X-1122700Y+2324000D01*
X-1231101Y+2368901D02*
X-1141299Y+2279099D01*
X-1231101Y+2279099D02*
X-1141299Y+2368901D01*
X-1244600Y+924560D02*
X-1244600Y+797560D01*
X-1308100Y+861060D02*
X-1181100Y+861060D01*
X-1289501Y+905961D02*
X-1199699Y+816159D01*
X-1289501Y+816159D02*
X-1199699Y+905961D01*
X-1244600Y+670560D02*
X-1244600Y+543560D01*
X-1308100Y+607060D02*
X-1181100Y+607060D01*
X-1289501Y+651961D02*
X-1199699Y+562159D01*
X-1289501Y+562159D02*
X-1199699Y+651961D01*
X-1244600Y+416560D02*
X-1244600Y+289560D01*
X-1308100Y+353060D02*
X-1181100Y+353060D01*
X-1289501Y+397961D02*
X-1199699Y+308159D01*
X-1289501Y+308159D02*
X-1199699Y+397961D01*
X-1244600Y+162560D02*
X-1244600Y+35560D01*
X-1308100Y+99060D02*
X-1181100Y+99060D01*
X-1289501Y+143961D02*
X-1199699Y+54159D01*
X-1289501Y+54159D02*
X-1199699Y+143961D01*
X-1244600Y-91440D02*
X-1244600Y-218440D01*
X-1308100Y-154940D02*
X-1181100Y-154940D01*
X-1289501Y-110039D02*
X-1199699Y-199841D01*
X-1289501Y-199841D02*
X-1199699Y-110039D01*
X-1244600Y-345440D02*
X-1244600Y-472440D01*
X-1308100Y-408940D02*
X-1181100Y-408940D01*
X-1289501Y-364039D02*
X-1199699Y-453841D01*
X-1289501Y-453841D02*
X-1199699Y-364039D01*
X-1244600Y-599440D02*
X-1244600Y-726440D01*
X-1308100Y-662940D02*
X-1181100Y-662940D01*
X-1289501Y-618039D02*
X-1199699Y-707841D01*
X-1289501Y-707841D02*
X-1199699Y-618039D01*
X-990600Y-599440D02*
X-990600Y-726440D01*
X-1054100Y-662940D02*
X-927100Y-662940D01*
X-1035501Y-618039D02*
X-945699Y-707841D01*
X-1035501Y-707841D02*
X-945699Y-618039D01*
X-990600Y-345440D02*
X-990600Y-472440D01*
X-1054100Y-408940D02*
X-927100Y-408940D01*
X-1035501Y-364039D02*
X-945699Y-453841D01*
X-1035501Y-453841D02*
X-945699Y-364039D01*
X-990600Y-91440D02*
X-990600Y-218440D01*
X-1054100Y-154940D02*
X-927100Y-154940D01*
X-1035501Y-110039D02*
X-945699Y-199841D01*
X-1035501Y-199841D02*
X-945699Y-110039D01*
X-990600Y+162560D02*
X-990600Y+35560D01*
X-1054100Y+99060D02*
X-927100Y+99060D01*
X-1035501Y+143961D02*
X-945699Y+54159D01*
X-1035501Y+54159D02*
X-945699Y+143961D01*
X-990600Y+416560D02*
X-990600Y+289560D01*
X-1054100Y+353060D02*
X-927100Y+353060D01*
X-1035501Y+397961D02*
X-945699Y+308159D01*
X-1035501Y+308159D02*
X-945699Y+397961D01*
X-990600Y+670560D02*
X-990600Y+543560D01*
X-1054100Y+607060D02*
X-927100Y+607060D01*
X-1035501Y+651961D02*
X-945699Y+562159D01*
X-1035501Y+562159D02*
X-945699Y+651961D01*
X-990600Y+924560D02*
X-990600Y+797560D01*
X-1054100Y+861060D02*
X-927100Y+861060D01*
X-1035501Y+905961D02*
X-945699Y+816159D01*
X-1035501Y+816159D02*
X-945699Y+905961D01*
X+1244600Y-596900D02*
X+1244600Y-723900D01*
X+1181100Y-660400D02*
X+1308100Y-660400D01*
X+1199699Y-615499D02*
X+1289501Y-705301D01*
X+1199699Y-705301D02*
X+1289501Y-615499D01*
X+1244600Y-342900D02*
X+1244600Y-469900D01*
X+1181100Y-406400D02*
X+1308100Y-406400D01*
X+1199699Y-361499D02*
X+1289501Y-451301D01*
X+1199699Y-451301D02*
X+1289501Y-361499D01*
X+1244600Y-88900D02*
X+1244600Y-215900D01*
X+1181100Y-152400D02*
X+1308100Y-152400D01*
X+1199699Y-107499D02*
X+1289501Y-197301D01*
X+1199699Y-197301D02*
X+1289501Y-107499D01*
X+1244600Y+165100D02*
X+1244600Y+38100D01*
X+1181100Y+101600D02*
X+1308100Y+101600D01*
X+1199699Y+146501D02*
X+1289501Y+56699D01*
X+1199699Y+56699D02*
X+1289501Y+146501D01*
X+1244600Y+419100D02*
X+1244600Y+292100D01*
X+1181100Y+355600D02*
X+1308100Y+355600D01*
X+1199699Y+400501D02*
X+1289501Y+310699D01*
X+1199699Y+310699D02*
X+1289501Y+400501D01*
X+1244600Y+673100D02*
X+1244600Y+546100D01*
X+1181100Y+609600D02*
X+1308100Y+609600D01*
X+1199699Y+654501D02*
X+1289501Y+564699D01*
X+1199699Y+564699D02*
X+1289501Y+654501D01*
X+1244600Y+927100D02*
X+1244600Y+800100D01*
X+1181100Y+863600D02*
X+1308100Y+863600D01*
X+1199699Y+908501D02*
X+1289501Y+818699D01*
X+1199699Y+818699D02*
X+1289501Y+908501D01*
X+990600Y+927100D02*
X+990600Y+800100D01*
X+927100Y+863600D02*
X+1054100Y+863600D01*
X+945699Y+908501D02*
X+1035501Y+818699D01*
X+945699Y+818699D02*
X+1035501Y+908501D01*
X+990600Y+673100D02*
X+990600Y+546100D01*
X+927100Y+609600D02*
X+1054100Y+609600D01*
X+945699Y+654501D02*
X+1035501Y+564699D01*
X+945699Y+564699D02*
X+1035501Y+654501D01*
X+990600Y+419100D02*
X+990600Y+292100D01*
X+927100Y+355600D02*
X+1054100Y+355600D01*
X+945699Y+400501D02*
X+1035501Y+310699D01*
X+945699Y+310699D02*
X+1035501Y+400501D01*
X+990600Y+165100D02*
X+990600Y+38100D01*
X+927100Y+101600D02*
X+1054100Y+101600D01*
X+945699Y+146501D02*
X+1035501Y+56699D01*
X+945699Y+56699D02*
X+1035501Y+146501D01*
X+990600Y-88900D02*
X+990600Y-215900D01*
X+927100Y-152400D02*
X+1054100Y-152400D01*
X+945699Y-107499D02*
X+1035501Y-197301D01*
X+945699Y-197301D02*
X+1035501Y-107499D01*
X+990600Y-342900D02*
X+990600Y-469900D01*
X+927100Y-406400D02*
X+1054100Y-406400D01*
X+945699Y-361499D02*
X+1035501Y-451301D01*
X+945699Y-451301D02*
X+1035501Y-361499D01*
X+990600Y-596900D02*
X+990600Y-723900D01*
X+927100Y-660400D02*
X+1054100Y-660400D01*
X+945699Y-615499D02*
X+1035501Y-705301D01*
X+945699Y-705301D02*
X+1035501Y-615499D01*
X-388000Y+1049500D02*
X-388000Y+922500D01*
X-451500Y+986000D02*
X-324500Y+986000D01*
X-432901Y+1030901D02*
X-343099Y+941099D01*
X-432901Y+941099D02*
X-343099Y+1030901D01*
X-134000Y+1049500D02*
X-134000Y+922500D01*
X-197500Y+986000D02*
X-70500Y+986000D01*
X-178901Y+1030901D02*
X-89099Y+941099D01*
X-178901Y+941099D02*
X-89099Y+1030901D01*
X+120000Y+1049500D02*
X+120000Y+922500D01*
X+56500Y+986000D02*
X+183500Y+986000D01*
X+75099Y+1030901D02*
X+164901Y+941099D01*
X+75099Y+941099D02*
X+164901Y+1030901D01*
X+374000Y+1049500D02*
X+374000Y+922500D01*
X+310500Y+986000D02*
X+437500Y+986000D01*
X+329099Y+1030901D02*
X+418901Y+941099D01*
X+329099Y+941099D02*
X+418901Y+1030901D01*
X+374000Y+1303500D02*
X+374000Y+1176500D01*
X+310500Y+1240000D02*
X+437500Y+1240000D01*
X+329099Y+1284901D02*
X+418901Y+1195099D01*
X+329099Y+1195099D02*
X+418901Y+1284901D01*
X+120000Y+1303500D02*
X+120000Y+1176500D01*
X+56500Y+1240000D02*
X+183500Y+1240000D01*
X+75099Y+1284901D02*
X+164901Y+1195099D01*
X+75099Y+1195099D02*
X+164901Y+1284901D01*
X-134000Y+1303500D02*
X-134000Y+1176500D01*
X-197500Y+1240000D02*
X-70500Y+1240000D01*
X-178901Y+1284901D02*
X-89099Y+1195099D01*
X-178901Y+1195099D02*
X-89099Y+1284901D01*
X-388000Y+1303500D02*
X-388000Y+1176500D01*
X-451500Y+1240000D02*
X-324500Y+1240000D01*
X-432901Y+1284901D02*
X-343099Y+1195099D01*
X-432901Y+1195099D02*
X-343099Y+1284901D01*
X+878840Y-937260D02*
X+878840Y-1064260D01*
X+815340Y-1000760D02*
X+942340Y-1000760D01*
X+833939Y-955859D02*
X+923741Y-1045661D01*
X+833939Y-1045661D02*
X+923741Y-955859D01*
X+624840Y-937260D02*
X+624840Y-1064260D01*
X+561340Y-1000760D02*
X+688340Y-1000760D01*
X+579939Y-955859D02*
X+669741Y-1045661D01*
X+579939Y-1045661D02*
X+669741Y-955859D01*
X+370840Y-937260D02*
X+370840Y-1064260D01*
X+307340Y-1000760D02*
X+434340Y-1000760D01*
X+325939Y-955859D02*
X+415741Y-1045661D01*
X+325939Y-1045661D02*
X+415741Y-955859D01*
X+116840Y-937260D02*
X+116840Y-1064260D01*
X+53340Y-1000760D02*
X+180340Y-1000760D01*
X+71939Y-955859D02*
X+161741Y-1045661D01*
X+71939Y-1045661D02*
X+161741Y-955859D01*
X-137160Y-937260D02*
X-137160Y-1064260D01*
X-200660Y-1000760D02*
X-73660Y-1000760D01*
X-182061Y-955859D02*
X-92259Y-1045661D01*
X-182061Y-1045661D02*
X-92259Y-955859D01*
X-391160Y-937260D02*
X-391160Y-1064260D01*
X-454660Y-1000760D02*
X-327660Y-1000760D01*
X-436061Y-955859D02*
X-346259Y-1045661D01*
X-436061Y-1045661D02*
X-346259Y-955859D01*
X-645160Y-937260D02*
X-645160Y-1064260D01*
X-708660Y-1000760D02*
X-581660Y-1000760D01*
X-690061Y-955859D02*
X-600259Y-1045661D01*
X-690061Y-1045661D02*
X-600259Y-955859D01*
X-899160Y-937260D02*
X-899160Y-1064260D01*
X-962660Y-1000760D02*
X-835660Y-1000760D01*
X-944061Y-955859D02*
X-854259Y-1045661D01*
X-944061Y-1045661D02*
X-854259Y-955859D01*
X-899160Y-1191260D02*
X-899160Y-1318260D01*
X-962660Y-1254760D02*
X-835660Y-1254760D01*
X-944061Y-1209859D02*
X-854259Y-1299661D01*
X-944061Y-1299661D02*
X-854259Y-1209859D01*
X-645160Y-1191260D02*
X-645160Y-1318260D01*
X-708660Y-1254760D02*
X-581660Y-1254760D01*
X-690061Y-1209859D02*
X-600259Y-1299661D01*
X-690061Y-1299661D02*
X-600259Y-1209859D01*
X-391160Y-1191260D02*
X-391160Y-1318260D01*
X-454660Y-1254760D02*
X-327660Y-1254760D01*
X-436061Y-1209859D02*
X-346259Y-1299661D01*
X-436061Y-1299661D02*
X-346259Y-1209859D01*
X-137160Y-1191260D02*
X-137160Y-1318260D01*
X-200660Y-1254760D02*
X-73660Y-1254760D01*
X-182061Y-1209859D02*
X-92259Y-1299661D01*
X-182061Y-1299661D02*
X-92259Y-1209859D01*
X+116840Y-1191260D02*
X+116840Y-1318260D01*
X+53340Y-1254760D02*
X+180340Y-1254760D01*
X+71939Y-1209859D02*
X+161741Y-1299661D01*
X+71939Y-1299661D02*
X+161741Y-1209859D01*
X+370840Y-1191260D02*
X+370840Y-1318260D01*
X+307340Y-1254760D02*
X+434340Y-1254760D01*
X+325939Y-1209859D02*
X+415741Y-1299661D01*
X+325939Y-1299661D02*
X+415741Y-1209859D01*
X+624840Y-1191260D02*
X+624840Y-1318260D01*
X+561340Y-1254760D02*
X+688340Y-1254760D01*
X+579939Y-1209859D02*
X+669741Y-1299661D01*
X+579939Y-1299661D02*
X+669741Y-1209859D01*
X+878840Y-1191260D02*
X+878840Y-1318260D01*
X+815340Y-1254760D02*
X+942340Y-1254760D01*
X+833939Y-1209859D02*
X+923741Y-1299661D01*
X+833939Y-1299661D02*
X+923741Y-1209859D01*
X-3830000Y-2435820D02*
X+4230920Y-2435820D01*
X+4230920Y+2610960D01*
X-3830000Y+2610960D01*
X-3830000Y-2435820D01*
D39*
X-3842700Y-3947120D02*
X-1198560Y-3947120D01*
X-1198560Y-2702520D01*
X-3842700Y-2702520D01*
X-3842700Y-3947120D01*
D23*
X-3375338Y-2702520D02*
X-3375338Y-3947120D01*
X-2562538Y-2702520D02*
X-2562538Y-3947120D01*
X-1729418Y-2702520D02*
X-1729418Y-3947120D01*
X-3842700Y-2975570D02*
X-1198560Y-2975570D01*
X-3842700Y-3216870D02*
X-1198560Y-3216870D01*
X-3842700Y-3458170D02*
X-1198560Y-3458170D01*
X-3842700Y-3699470D02*
X-1198560Y-3699470D01*
D39*
X-3785550Y-2866350D02*
X-3770310Y-2881590D01*
X-3709350Y-2881590D01*
X-3694110Y-2866350D01*
X-3694110Y-2851110D01*
X-3709350Y-2835870D01*
X-3770310Y-2835870D01*
X-3785550Y-2820630D01*
X-3785550Y-2805390D01*
X-3770310Y-2790150D01*
X-3709350Y-2790150D01*
X-3694110Y-2805390D01*
X-3572190Y-2790150D02*
X-3663630Y-2881590D01*
X-3663630Y-2790150D02*
X-3617910Y-2835870D01*
X-3541710Y-2881590D02*
X-3541710Y-2790150D01*
X-3495990Y-2835870D01*
X-3450270Y-2790150D01*
X-3450270Y-2881590D01*
X-3318190Y-2866350D02*
X-3302950Y-2881590D01*
X-3241990Y-2881590D01*
X-3226750Y-2866350D01*
X-3226750Y-2851110D01*
X-3241990Y-2835870D01*
X-3302950Y-2835870D01*
X-3318190Y-2820630D01*
X-3318190Y-2805390D01*
X-3302950Y-2790150D01*
X-3241990Y-2790150D01*
X-3226750Y-2805390D01*
X-3181030Y-2790150D02*
X-3120070Y-2790150D01*
X-3150550Y-2790150D02*
X-3150550Y-2881590D01*
X-3181030Y-2881590D02*
X-3120070Y-2881590D01*
X-3074350Y-2790150D02*
X-2982910Y-2790150D01*
X-3074350Y-2881590D01*
X-2982910Y-2881590D01*
X-2860990Y-2881590D02*
X-2952430Y-2881590D01*
X-2952430Y-2790150D01*
X-2860990Y-2790150D01*
X-2952430Y-2835870D02*
X-2891470Y-2835870D01*
X-2505390Y-2881590D02*
X-2505390Y-2790150D01*
X-2429190Y-2790150D01*
X-2413950Y-2805390D01*
X-2413950Y-2820630D01*
X-2429190Y-2835870D01*
X-2505390Y-2835870D01*
X-2383470Y-2790150D02*
X-2383470Y-2881590D01*
X-2292030Y-2881590D01*
X-2261550Y-2881590D02*
X-2261550Y-2820630D01*
X-2231070Y-2790150D01*
X-2200590Y-2790150D01*
X-2170110Y-2820630D01*
X-2170110Y-2881590D01*
X-2261550Y-2851110D02*
X-2170110Y-2851110D01*
X-2139630Y-2790150D02*
X-2048190Y-2790150D01*
X-2093910Y-2790150D02*
X-2093910Y-2881590D01*
X-1926270Y-2881590D02*
X-2017710Y-2881590D01*
X-2017710Y-2790150D01*
X-1926270Y-2790150D01*
X-2017710Y-2835870D02*
X-1956750Y-2835870D01*
X-1895790Y-2881590D02*
X-1895790Y-2790150D01*
X-1834830Y-2790150D01*
X-1804350Y-2820630D01*
X-1804350Y-2851110D01*
X-1834830Y-2881590D01*
X-1895790Y-2881590D01*
X-1672270Y-2820630D02*
X-1641790Y-2790150D01*
X-1611310Y-2790150D01*
X-1580830Y-2820630D01*
X-1580830Y-2851110D01*
X-1611310Y-2881590D01*
X-1641790Y-2881590D01*
X-1672270Y-2851110D01*
X-1672270Y-2820630D01*
X-1611310Y-2851110D02*
X-1580830Y-2881590D01*
X-1550350Y-2790150D02*
X-1458910Y-2790150D01*
X-1504630Y-2790150D02*
X-1504630Y-2881590D01*
X-1336990Y-2790150D02*
X-1428430Y-2881590D01*
X-1428430Y-2790150D02*
X-1382710Y-2835870D01*
D70*
X-3596320Y-3026370D02*
X-3596320Y-3153370D01*
X-3659820Y-3089870D02*
X-3532820Y-3089870D01*
D39*
X-3299140Y-3115270D02*
X-3299140Y-3064470D01*
X-3286440Y-3051770D01*
X-3235640Y-3051770D01*
X-3222940Y-3064470D01*
X-3222940Y-3115270D01*
X-3235640Y-3127970D01*
X-3286440Y-3127970D01*
X-3299140Y-3115270D01*
X-3299140Y-3127970D02*
X-3222940Y-3051770D01*
X-3159440Y-3115270D02*
X-3146740Y-3115270D01*
X-3146740Y-3127970D01*
X-3159440Y-3127970D01*
X-3159440Y-3115270D01*
X-3083240Y-3064470D02*
X-3070540Y-3051770D01*
X-3032440Y-3051770D01*
X-3019740Y-3064470D01*
X-3019740Y-3077170D01*
X-3032440Y-3089870D01*
X-3019740Y-3102570D01*
X-3019740Y-3115270D01*
X-3032440Y-3127970D01*
X-3070540Y-3127970D01*
X-3083240Y-3115270D01*
X-3057840Y-3089870D02*
X-3032440Y-3089870D01*
X-2968940Y-3089870D02*
X-2981640Y-3077170D01*
X-2981640Y-3064470D01*
X-2968940Y-3051770D01*
X-2930840Y-3051770D01*
X-2918140Y-3064470D01*
X-2918140Y-3077170D01*
X-2930840Y-3089870D01*
X-2968940Y-3089870D01*
X-2981640Y-3102570D01*
X-2981640Y-3115270D01*
X-2968940Y-3127970D01*
X-2930840Y-3127970D01*
X-2918140Y-3115270D01*
X-2918140Y-3102570D01*
X-2930840Y-3089870D01*
X-2867340Y-3077170D02*
X-2841940Y-3051770D01*
X-2841940Y-3127970D01*
X-2791140Y-3127970D02*
X-2791140Y-3077170D01*
X-2791140Y-3089870D02*
X-2778440Y-3077170D01*
X-2753040Y-3102570D01*
X-2727640Y-3077170D01*
X-2714940Y-3089870D01*
X-2714940Y-3127970D01*
X-2689540Y-3127970D02*
X-2689540Y-3077170D01*
X-2689540Y-3089870D02*
X-2676840Y-3077170D01*
X-2651440Y-3102570D01*
X-2626040Y-3077170D01*
X-2613340Y-3089870D01*
X-2613340Y-3127970D01*
X-2397440Y-3051770D02*
X-2473640Y-3127970D01*
X-2473640Y-3051770D02*
X-2435540Y-3089870D01*
X-2295840Y-3127970D02*
X-2372040Y-3127970D01*
X-2372040Y-3051770D01*
X-2295840Y-3051770D01*
X-2372040Y-3089870D02*
X-2321240Y-3089870D01*
X-2270440Y-3115270D02*
X-2257740Y-3127970D01*
X-2206940Y-3127970D01*
X-2194240Y-3115270D01*
X-2194240Y-3102570D01*
X-2206940Y-3089870D01*
X-2257740Y-3089870D01*
X-2270440Y-3077170D01*
X-2270440Y-3064470D01*
X-2257740Y-3051770D01*
X-2206940Y-3051770D01*
X-2194240Y-3064470D01*
X-1602420Y-3089870D02*
X-1615120Y-3077170D01*
X-1615120Y-3064470D01*
X-1602420Y-3051770D01*
X-1564320Y-3051770D01*
X-1551620Y-3064470D01*
X-1551620Y-3077170D01*
X-1564320Y-3089870D01*
X-1602420Y-3089870D01*
X-1615120Y-3102570D01*
X-1615120Y-3115270D01*
X-1602420Y-3127970D01*
X-1564320Y-3127970D01*
X-1551620Y-3115270D01*
X-1551620Y-3102570D01*
X-1564320Y-3089870D01*
D70*
X-3641221Y-3286269D02*
X-3551419Y-3376071D01*
X-3641221Y-3376071D02*
X-3551419Y-3286269D01*
D39*
X-3299140Y-3356570D02*
X-3299140Y-3305770D01*
X-3286440Y-3293070D01*
X-3235640Y-3293070D01*
X-3222940Y-3305770D01*
X-3222940Y-3356570D01*
X-3235640Y-3369270D01*
X-3286440Y-3369270D01*
X-3299140Y-3356570D01*
X-3299140Y-3369270D02*
X-3222940Y-3293070D01*
X-3159440Y-3356570D02*
X-3146740Y-3356570D01*
X-3146740Y-3369270D01*
X-3159440Y-3369270D01*
X-3159440Y-3356570D01*
X-3083240Y-3293070D02*
X-3019740Y-3293070D01*
X-3019740Y-3305770D01*
X-3083240Y-3369270D01*
X-2918140Y-3305770D02*
X-2930840Y-3293070D01*
X-2968940Y-3293070D01*
X-2981640Y-3305770D01*
X-2981640Y-3356570D01*
X-2968940Y-3369270D01*
X-2930840Y-3369270D01*
X-2918140Y-3356570D01*
X-2918140Y-3343870D01*
X-2930840Y-3331170D01*
X-2981640Y-3331170D01*
X-2880040Y-3305770D02*
X-2867340Y-3293070D01*
X-2829240Y-3293070D01*
X-2816540Y-3305770D01*
X-2816540Y-3318470D01*
X-2829240Y-3331170D01*
X-2867340Y-3331170D01*
X-2880040Y-3343870D01*
X-2880040Y-3369270D01*
X-2816540Y-3369270D01*
X-2791140Y-3369270D02*
X-2791140Y-3318470D01*
X-2791140Y-3331170D02*
X-2778440Y-3318470D01*
X-2753040Y-3343870D01*
X-2727640Y-3318470D01*
X-2714940Y-3331170D01*
X-2714940Y-3369270D01*
X-2689540Y-3369270D02*
X-2689540Y-3318470D01*
X-2689540Y-3331170D02*
X-2676840Y-3318470D01*
X-2651440Y-3343870D01*
X-2626040Y-3318470D01*
X-2613340Y-3331170D01*
X-2613340Y-3369270D01*
X-2397440Y-3293070D02*
X-2473640Y-3369270D01*
X-2473640Y-3293070D02*
X-2435540Y-3331170D01*
X-2295840Y-3369270D02*
X-2372040Y-3369270D01*
X-2372040Y-3293070D01*
X-2295840Y-3293070D01*
X-2372040Y-3331170D02*
X-2321240Y-3331170D01*
X-2270440Y-3356570D02*
X-2257740Y-3369270D01*
X-2206940Y-3369270D01*
X-2194240Y-3356570D01*
X-2194240Y-3343870D01*
X-2206940Y-3331170D01*
X-2257740Y-3331170D01*
X-2270440Y-3318470D01*
X-2270440Y-3305770D01*
X-2257740Y-3293070D01*
X-2206940Y-3293070D01*
X-2194240Y-3305770D01*
X-1551620Y-3305770D02*
X-1564320Y-3293070D01*
X-1602420Y-3293070D01*
X-1615120Y-3305770D01*
X-1615120Y-3356570D01*
X-1602420Y-3369270D01*
X-1564320Y-3369270D01*
X-1551620Y-3356570D01*
X-1551620Y-3343870D01*
X-1564320Y-3331170D01*
X-1615120Y-3331170D01*
D70*
X-3596320Y-3508970D02*
X-3596320Y-3635970D01*
X-3659820Y-3572470D02*
X-3532820Y-3572470D01*
X-3641221Y-3527569D02*
X-3551419Y-3617371D01*
X-3641221Y-3617371D02*
X-3551419Y-3527569D01*
D39*
X-3273740Y-3559770D02*
X-3248340Y-3534370D01*
X-3248340Y-3610570D01*
X-3159440Y-3597870D02*
X-3146740Y-3597870D01*
X-3146740Y-3610570D01*
X-3159440Y-3610570D01*
X-3159440Y-3597870D01*
X-3095940Y-3597870D02*
X-3095940Y-3547070D01*
X-3083240Y-3534370D01*
X-3032440Y-3534370D01*
X-3019740Y-3547070D01*
X-3019740Y-3597870D01*
X-3032440Y-3610570D01*
X-3083240Y-3610570D01*
X-3095940Y-3597870D01*
X-3095940Y-3610570D02*
X-3019740Y-3534370D01*
X-2968940Y-3559770D02*
X-2943540Y-3534370D01*
X-2943540Y-3610570D01*
X-2816540Y-3547070D02*
X-2829240Y-3534370D01*
X-2867340Y-3534370D01*
X-2880040Y-3547070D01*
X-2880040Y-3597870D01*
X-2867340Y-3610570D01*
X-2829240Y-3610570D01*
X-2816540Y-3597870D01*
X-2816540Y-3585170D01*
X-2829240Y-3572470D01*
X-2880040Y-3572470D01*
X-2791140Y-3610570D02*
X-2791140Y-3559770D01*
X-2791140Y-3572470D02*
X-2778440Y-3559770D01*
X-2753040Y-3585170D01*
X-2727640Y-3559770D01*
X-2714940Y-3572470D01*
X-2714940Y-3610570D01*
X-2689540Y-3610570D02*
X-2689540Y-3559770D01*
X-2689540Y-3572470D02*
X-2676840Y-3559770D01*
X-2651440Y-3585170D01*
X-2626040Y-3559770D01*
X-2613340Y-3572470D01*
X-2613340Y-3610570D01*
X-2397440Y-3534370D02*
X-2473640Y-3610570D01*
X-2473640Y-3534370D02*
X-2435540Y-3572470D01*
X-2295840Y-3610570D02*
X-2372040Y-3610570D01*
X-2372040Y-3534370D01*
X-2295840Y-3534370D01*
X-2372040Y-3572470D02*
X-2321240Y-3572470D01*
X-2270440Y-3597870D02*
X-2257740Y-3610570D01*
X-2206940Y-3610570D01*
X-2194240Y-3597870D01*
X-2194240Y-3585170D01*
X-2206940Y-3572470D01*
X-2257740Y-3572470D01*
X-2270440Y-3559770D01*
X-2270440Y-3547070D01*
X-2257740Y-3534370D01*
X-2206940Y-3534370D01*
X-2194240Y-3547070D01*
X-1602420Y-3559770D02*
X-1577020Y-3534370D01*
X-1577020Y-3610570D01*
X-1500820Y-3559770D02*
X-1475420Y-3534370D01*
X-1475420Y-3610570D01*
X-1348420Y-3547070D02*
X-1361120Y-3534370D01*
X-1399220Y-3534370D01*
X-1411920Y-3547070D01*
X-1411920Y-3597870D01*
X-1399220Y-3610570D01*
X-1361120Y-3610570D01*
X-1348420Y-3597870D01*
X-1348420Y-3585170D01*
X-1361120Y-3572470D01*
X-1411920Y-3572470D01*
D70*
X-3532820Y-3813770D02*
X-3533037Y-3808523D01*
X-3534802Y-3798028D01*
X-3538494Y-3787533D01*
X-3544522Y-3777038D01*
X-3553744Y-3766658D01*
X-3564239Y-3758970D01*
X-3574734Y-3754052D01*
X-3585229Y-3751246D01*
X-3595724Y-3750273D01*
X-3596320Y-3750270D01*
X-3659820Y-3813770D02*
X-3659603Y-3808523D01*
X-3657838Y-3798028D01*
X-3654146Y-3787533D01*
X-3648118Y-3777038D01*
X-3638896Y-3766658D01*
X-3628401Y-3758970D01*
X-3617906Y-3754052D01*
X-3607411Y-3751246D01*
X-3596916Y-3750273D01*
X-3596320Y-3750270D01*
X-3659820Y-3813770D02*
X-3659603Y-3819017D01*
X-3657838Y-3829512D01*
X-3654146Y-3840007D01*
X-3648118Y-3850502D01*
X-3638896Y-3860882D01*
X-3628401Y-3868570D01*
X-3617906Y-3873488D01*
X-3607411Y-3876294D01*
X-3596916Y-3877267D01*
X-3596320Y-3877270D01*
X-3532820Y-3813770D02*
X-3533037Y-3819017D01*
X-3534802Y-3829512D01*
X-3538494Y-3840007D01*
X-3544522Y-3850502D01*
X-3553744Y-3860882D01*
X-3564239Y-3868570D01*
X-3574734Y-3873488D01*
X-3585229Y-3876294D01*
X-3595724Y-3877267D01*
X-3596320Y-3877270D01*
X-3596320Y-3750270D02*
X-3596320Y-3877270D01*
X-3659820Y-3813770D02*
X-3532820Y-3813770D01*
D39*
X-3286440Y-3788370D02*
X-3273740Y-3775670D01*
X-3235640Y-3775670D01*
X-3222940Y-3788370D01*
X-3222940Y-3801070D01*
X-3235640Y-3813770D01*
X-3222940Y-3826470D01*
X-3222940Y-3839170D01*
X-3235640Y-3851870D01*
X-3273740Y-3851870D01*
X-3286440Y-3839170D01*
X-3261040Y-3813770D02*
X-3235640Y-3813770D01*
X-3159440Y-3839170D02*
X-3146740Y-3839170D01*
X-3146740Y-3851870D01*
X-3159440Y-3851870D01*
X-3159440Y-3839170D01*
X-3083240Y-3788370D02*
X-3070540Y-3775670D01*
X-3032440Y-3775670D01*
X-3019740Y-3788370D01*
X-3019740Y-3801070D01*
X-3032440Y-3813770D01*
X-3070540Y-3813770D01*
X-3083240Y-3826470D01*
X-3083240Y-3851870D01*
X-3019740Y-3851870D01*
X-2994340Y-3851870D02*
X-2994340Y-3801070D01*
X-2994340Y-3813770D02*
X-2981640Y-3801070D01*
X-2956240Y-3826470D01*
X-2930840Y-3801070D01*
X-2918140Y-3813770D01*
X-2918140Y-3851870D01*
X-2892740Y-3851870D02*
X-2892740Y-3801070D01*
X-2892740Y-3813770D02*
X-2880040Y-3801070D01*
X-2854640Y-3826470D01*
X-2829240Y-3801070D01*
X-2816540Y-3813770D01*
X-2816540Y-3851870D01*
X-2397440Y-3775670D02*
X-2473640Y-3851870D01*
X-2473640Y-3775670D02*
X-2435540Y-3813770D01*
X-2295840Y-3851870D02*
X-2372040Y-3851870D01*
X-2372040Y-3775670D01*
X-2295840Y-3775670D01*
X-2372040Y-3813770D02*
X-2321240Y-3813770D01*
X-2270440Y-3839170D02*
X-2257740Y-3851870D01*
X-2206940Y-3851870D01*
X-2194240Y-3839170D01*
X-2194240Y-3826470D01*
X-2206940Y-3813770D01*
X-2257740Y-3813770D01*
X-2270440Y-3801070D01*
X-2270440Y-3788370D01*
X-2257740Y-3775670D01*
X-2206940Y-3775670D01*
X-2194240Y-3788370D01*
X-1551620Y-3826470D02*
X-1627820Y-3826470D01*
X-1577020Y-3775670D01*
X-1577020Y-3851870D01*
M02*
